<?xml version="1.0" encoding="UTF-8" standalone="no"?>
<!-- Created with Inkscape (http://www.inkscape.org/) -->

<svg
   xmlns:dc="http://purl.org/dc/elements/1.1/"
   xmlns:cc="http://creativecommons.org/ns#"
   xmlns:rdf="http://www.w3.org/1999/02/22-rdf-syntax-ns#"
   xmlns:svg="http://www.w3.org/2000/svg"
   xmlns="http://www.w3.org/2000/svg"
   xmlns:sodipodi="http://sodipodi.sourceforge.net/DTD/sodipodi-0.dtd"
   xmlns:inkscape="http://www.inkscape.org/namespaces/inkscape"
   width="744.09448819"
   height="1052.3622047"
   id="svg2"
   version="1.1"
   inkscape:version="0.48.3.1 r9886"
   sodipodi:docname="colors.svg">
  <defs
     id="defs4">
    <inkscape:perspective
       sodipodi:type="inkscape:persp3d"
       inkscape:vp_x="181.79379 : 639.56017 : 1"
       inkscape:vp_y="0 : 543.87731 : 0"
       inkscape:vp_z="552.99555 : 639.56017 : 1"
       inkscape:persp3d-origin="367.39467 : 544.16751 : 1"
       id="perspective3765" />
  </defs>
  <sodipodi:namedview
     id="base"
     pagecolor="#ffffff"
     bordercolor="#666666"
     borderopacity="1.0"
     inkscape:pageopacity="0.0"
     inkscape:pageshadow="2"
     inkscape:zoom="2.8"
     inkscape:cx="434.87897"
     inkscape:cy="725.96323"
     inkscape:document-units="px"
     inkscape:current-layer="layer1"
     showgrid="false"
     inkscape:window-width="1920"
     inkscape:window-height="1138"
     inkscape:window-x="-8"
     inkscape:window-y="-8"
     inkscape:window-maximized="1" />
  <metadata
     id="metadata7">
    <rdf:RDF>
      <cc:Work
         rdf:about="">
        <dc:format>image/svg+xml</dc:format>
        <dc:type
           rdf:resource="http://purl.org/dc/dcmitype/StillImage" />
        <dc:title></dc:title>
      </cc:Work>
    </rdf:RDF>
  </metadata>
  <g
     inkscape:label="Layer 1"
     inkscape:groupmode="layer"
     id="layer1">
    <path
       sodipodi:type="arc"
       style="fill:#00afe8;fill-opacity:0.42328042;fill-rule:nonzero;stroke:none"
       id="path2985"
       sodipodi:cx="332.5"
       sodipodi:cy="286.82648"
       sodipodi:rx="57.142857"
       sodipodi:ry="55.535713"
       d="m 389.64286,286.82648 a 57.142857,55.535713 0 1 1 -114.28572,0 57.142857,55.535713 0 1 1 114.28572,0 z" />
    <path
       sodipodi:type="arc"
       style="fill:#004ce8;fill-opacity:0.42328042;fill-rule:nonzero;stroke:none"
       id="path2987"
       sodipodi:cx="375.17856"
       sodipodi:cy="333.07648"
       sodipodi:rx="58.035713"
       sodipodi:ry="57.857143"
       d="m 433.21427,333.07648 a 58.035713,57.857143 0 1 1 -116.07142,0 58.035713,57.857143 0 1 1 116.07142,0 z" />
    <path
       sodipodi:type="arc"
       style="fill:#004c14;fill-opacity:0.42328042;fill-rule:nonzero;stroke:none"
       id="path3757"
       sodipodi:cx="376.96429"
       sodipodi:cy="255.21933"
       sodipodi:rx="66.964287"
       sodipodi:ry="61.785713"
       d="m 443.92858,255.21933 a 66.964287,61.785713 0 1 1 -133.92857,0 66.964287,61.785713 0 1 1 133.92857,0 z" />
    <path
       sodipodi:type="arc"
       style="fill:#7d286b;fill-opacity:0.42328042;fill-rule:nonzero;stroke:none"
       id="path3759"
       sodipodi:cx="451.60715"
       sodipodi:cy="342.71933"
       sodipodi:rx="68.39286"
       sodipodi:ry="66.071426"
       d="m 520.00001,342.71933 a 68.39286,66.071426 0 1 1 -136.78572,0 68.39286,66.071426 0 1 1 136.78572,0 z" />
    <path
       sodipodi:type="arc"
       style="fill:#be3218;fill-opacity:0.42328042;fill-rule:nonzero;stroke:none"
       id="path3761"
       sodipodi:cx="471.78571"
       sodipodi:cy="236.46933"
       sodipodi:rx="63.57143"
       sodipodi:ry="65.178574"
       d="m 535.35714,236.46933 a 63.57143,65.178574 0 1 1 -127.14286,0 63.57143,65.178574 0 1 1 127.14286,0 z"
       transform="translate(-0.71428572,-2.8571429)" />
    <path
       style="fill:#be3218;stroke:none;stroke-width:1px;stroke-linecap:butt;stroke-linejoin:miter;stroke-opacity:1;fill-opacity:0.42328041999999999"
       d="m 499.28572,239.1479 c -47.7381,-46.54762 -197.97619,17.61905 -196.07143,43.21428 -2.84314,41.22555 82.86173,36.60312 152.10225,-30.6344 3.99785,-3.88219 -4.63127,130.82513 -0.31654,133.49154 60.59524,10.59524 -145.95239,-165.59523 -109.28572,-95.71428 18.45238,63.57143 177.61906,-21.78571 153.57144,-50.35714 z"
       id="path3763"
       inkscape:connector-curvature="0"
       sodipodi:nodetypes="ccsccc" />
    <g
       sodipodi:type="inkscape:box3d"
       style="fill:#be3218;fill-opacity:0.25925927;fill-rule:nonzero;stroke:none"
       id="g3767"
       inkscape:perspectiveID="#perspective3765"
       inkscape:corner0="0.1574803 : 0.50432189 : 0 : 1"
       inkscape:corner7="-0.16393879 : 0.29712808 : 0.25 : 1">
      <path
         sodipodi:type="inkscape:box3dside"
         id="path3779"
         style="fill:#be3218;fill-opacity:0.25925927;fill-rule:evenodd;stroke:none"
         inkscape:box3dsidetype="11"
         d="m 379.59501,285.69787 58.53914,-37.61638 0,103.75843 -58.53914,13.9216 z" />
      <path
         sodipodi:type="inkscape:box3dside"
         id="path3769"
         style="fill:#be3218;fill-opacity:0.25925927;fill-rule:evenodd;stroke:none"
         inkscape:box3dsidetype="6"
         d="m 342.14285,258.24511 0,97.35631 37.45216,10.1601 0,-80.06365 z" />
      <path
         sodipodi:type="inkscape:box3dside"
         id="path3771"
         style="fill:#be3218;fill-opacity:0.25925927;fill-rule:evenodd;stroke:none"
         inkscape:box3dsidetype="5"
         d="m 342.14285,258.24511 61.64531,-59.41855 34.34599,49.25493 -58.53914,37.61638 z" />
      <path
         sodipodi:type="inkscape:box3dside"
         id="path3777"
         style="fill:#be3218;fill-opacity:0.25925927;fill-rule:evenodd;stroke:none"
         inkscape:box3dsidetype="13"
         d="m 342.14285,355.60142 61.64531,-21.99045 34.34599,18.22895 -58.53914,13.9216 z" />
      <path
         sodipodi:type="inkscape:box3dside"
         id="path3775"
         style="fill:#be3218;fill-opacity:0.25925927;fill-rule:evenodd;stroke:none"
         inkscape:box3dsidetype="14"
         d="m 403.78816,198.82656 0,134.78441 34.34599,18.22895 0,-103.75843 z" />
      <path
         sodipodi:type="inkscape:box3dside"
         id="path3773"
         style="fill:#be3218;fill-opacity:0.25925927;fill-rule:evenodd;stroke:none"
         inkscape:box3dsidetype="3"
         d="m 342.14285,258.24511 61.64531,-59.41855 0,134.78441 -61.64531,21.99045 z" />
    </g>
    <path
       sodipodi:type="star"
       style="fill:#be3218;fill-opacity:0.25925927;fill-rule:nonzero;stroke:none"
       id="path3781"
       sodipodi:sides="3"
       sodipodi:cx="295.35714"
       sodipodi:cy="257.71932"
       sodipodi:r1="64.527324"
       sodipodi:r2="32.263662"
       sodipodi:arg1="1.1120992"
       sodipodi:arg2="2.1592967"
       inkscape:flatsided="true"
       inkscape:rounded="0"
       inkscape:randomized="0"
       d="M 323.92857,315.57647 230.96568,253.53434 331.17719,204.04718 z"
       inkscape:transform-center-x="14.285714"
       inkscape:transform-center-y="2.0924942" />
    <path
       sodipodi:type="star"
       style="fill:#3e32b9;fill-opacity:0.25925927;fill-rule:nonzero;stroke:none"
       id="path3783"
       sodipodi:sides="4"
       sodipodi:cx="536.07141"
       sodipodi:cy="402.36218"
       sodipodi:r1="87.863678"
       sodipodi:r2="43.931839"
       sodipodi:arg1="-1.8423959"
       sodipodi:arg2="-1.0569977"
       inkscape:flatsided="false"
       inkscape:rounded="0"
       inkscape:randomized="0"
       d="m 512.49998,317.71932 45.16344,46.38334 63.05085,14.6881 -46.38333,45.16344 -14.6881,63.05084 -45.16344,-46.38333 -63.05085,-14.6881 46.38333,-45.16344 z"
       inkscape:transform-center-x="-9.8159514"
       inkscape:transform-center-y="-12.749121"
       transform="matrix(0.98628301,-0.16506308,0.16506308,0.98628301,-63.531618,102.92395)" />
    <path
       sodipodi:type="star"
       style="fill:#3e32b9;fill-opacity:0.25925927;fill-rule:nonzero;stroke:none"
       id="path3785"
       sodipodi:sides="4"
       sodipodi:cx="443.57144"
       sodipodi:cy="209.50504"
       sodipodi:r1="52.109821"
       sodipodi:r2="26.054911"
       sodipodi:arg1="0.42379143"
       sodipodi:arg2="1.2091896"
       inkscape:flatsided="false"
       inkscape:rounded="0"
       inkscape:randomized="0"
       d="m 491.07144,230.93361 -38.28236,2.94135 -30.64621,23.13007 -2.94136,-38.28235 -23.13007,-30.64622 38.28236,-2.94135 30.64621,-23.13007 2.94136,38.28235 z"
       transform="translate(-2.8571429,7.5)" />
    <path
       sodipodi:type="arc"
       style="fill:#df8b3b;fill-opacity:0.25925927;fill-rule:nonzero;stroke:none"
       id="path3787"
       sodipodi:cx="411.60715"
       sodipodi:cy="353.61218"
       sodipodi:rx="85.178574"
       sodipodi:ry="82.678574"
       d="m 496.78572,353.61218 a 85.178574,82.678574 0 1 1 -170.35715,0 85.178574,82.678574 0 1 1 170.35715,0 z"
       transform="translate(4.2857143,2.5)" />
    <path
       sodipodi:type="star"
       style="fill:#df8b3b;fill-opacity:0.25925927;fill-rule:nonzero;stroke:none"
       id="path3789"
       sodipodi:sides="3"
       sodipodi:cx="388.21429"
       sodipodi:cy="288.43362"
       sodipodi:r1="55.579048"
       sodipodi:r2="27.789524"
       sodipodi:arg1="0.81266413"
       sodipodi:arg2="1.8598617"
       inkscape:flatsided="true"
       inkscape:rounded="0"
       inkscape:randomized="0"
       d="M 426.42858,328.79077 334.15684,301.3496 404.05746,235.16051 z"
       inkscape:transform-center-x="7.9215841"
       inkscape:transform-center-y="-6.4579854" />
    <path
       sodipodi:type="star"
       style="fill:#288b3b;fill-opacity:0.25925928;fill-rule:nonzero;stroke:none"
       id="path3791"
       sodipodi:sides="9"
       sodipodi:cx="353.57143"
       sodipodi:cy="227.00504"
       sodipodi:r1="49.512934"
       sodipodi:r2="46.526939"
       sodipodi:arg1="0.46364761"
       sodipodi:arg2="0.81271346"
       inkscape:flatsided="true"
       inkscape:rounded="0"
       inkscape:randomized="0"
       d="m 397.85716,249.14789 -24.59405,23.28587 -33.80799,2.02926 -27.20281,-20.17686 -7.86913,-32.942 15.1466,-30.29321 31.07508,-13.4699 32.46317,9.65614 18.66139,28.26395 z"
       inkscape:transform-center-x="0.51514127"
       inkscape:transform-center-y="-0.9830003" />
    <path
       sodipodi:type="arc"
       style="fill:#288b3b;fill-opacity:0.25925927;fill-rule:nonzero;stroke:none"
       id="path3793"
       sodipodi:cx="497.14285"
       sodipodi:cy="339.50504"
       sodipodi:rx="54.642857"
       sodipodi:ry="52.142857"
       d="m 551.78571,339.50504 a 54.642857,52.142857 0 1 1 -109.28571,0 54.642857,52.142857 0 1 1 109.28571,0 z"
       transform="matrix(1.0196078,0,0,1.0582192,-8.6764706,-16.72999)" />
    <path
       sodipodi:type="arc"
       style="fill:#288b3b;fill-opacity:0.25925927;fill-rule:nonzero;stroke:none"
       id="path3795"
       sodipodi:cx="548.92859"
       sodipodi:cy="297.89789"
       sodipodi:rx="9.2857141"
       sodipodi:ry="8.75"
       d="m 558.2143,297.89789 a 9.2857141,8.75 0 1 1 -18.57143,0 9.2857141,8.75 0 1 1 18.57143,0 z"
       transform="translate(-5.7142857,-3.9285714)" />
    <path
       sodipodi:type="arc"
       style="fill:#288b3b;fill-opacity:0.25925927;fill-rule:nonzero;stroke:none"
       id="path3797"
       sodipodi:cx="560"
       sodipodi:cy="286.46933"
       sodipodi:rx="5.3571429"
       sodipodi:ry="4.8214288"
       d="m 565.35714,286.46933 a 5.3571429,4.8214288 0 1 1 -10.71428,0 5.3571429,4.8214288 0 1 1 10.71428,0 z"
       transform="translate(-5.3571429,-6.4285714)" />
    <path
       sodipodi:type="arc"
       style="fill:#288b3b;fill-opacity:0.25925927;fill-rule:nonzero;stroke:none"
       id="path3799"
       sodipodi:cx="571.78571"
       sodipodi:cy="278.07648"
       sodipodi:rx="3.2142856"
       sodipodi:ry="3.2142856"
       d="m 574.99999,278.07648 a 3.2142856,3.2142856 0 1 1 -6.42857,0 3.2142856,3.2142856 0 1 1 6.42857,0 z"
       transform="translate(-16.071429,-9.6428572)" />
    <path
       style="fill:#288b3b;fill-opacity:0.25925927;stroke:none"
       d="m 346.07143,305.93361 c 190.22394,15.88155 105.2381,22.38095 157.85715,33.57143 22.93131,25.38137 -25.9095,67.00765 -52.5,66.78571 -96.99361,-4.52357 -108.58938,47.3344 -136.78572,-4.82142 -8.43566,-13.0533 -26.71007,-112.3875 31.42857,-95.53572 z"
       id="path3801"
       inkscape:connector-curvature="0"
       sodipodi:nodetypes="ccccc" />
    <path
       sodipodi:type="arc"
       style="fill:#ca507c;fill-opacity:0.25925928;fill-rule:nonzero;stroke:none"
       id="path3803"
       sodipodi:cx="277.67856"
       sodipodi:cy="323.43362"
       sodipodi:rx="44.82143"
       sodipodi:ry="43.92857"
       d="m 322.49999,323.43362 a 44.82143,43.92857 0 1 1 -89.64286,0 44.82143,43.92857 0 1 1 89.64286,0 z" />
    <path
       sodipodi:type="arc"
       style="fill:#00507c;fill-opacity:0.25925927;fill-rule:nonzero;stroke:none"
       id="path3805"
       sodipodi:cx="269.64285"
       sodipodi:cy="247.18361"
       sodipodi:rx="39.642857"
       sodipodi:ry="34.82143"
       d="m 309.28571,247.18361 a 39.642857,34.82143 0 1 1 -79.28571,0 39.642857,34.82143 0 1 1 79.28571,0 z"
       transform="matrix(1,0,0,1.0307692,0.35714285,0.25149372)" />
    <path
       sodipodi:type="star"
       style="fill:#00507c;fill-opacity:0.25925927;fill-rule:nonzero;stroke:none"
       id="path3807"
       sodipodi:sides="3"
       sodipodi:cx="380"
       sodipodi:cy="333.07647"
       sodipodi:r1="39.668589"
       sodipodi:r2="19.834294"
       sodipodi:arg1="1.2120257"
       sodipodi:arg2="2.2592232"
       inkscape:flatsided="false"
       inkscape:rounded="0"
       inkscape:randomized="0"
       d="m 393.92857,370.21934 -26.52976,-21.8259 -26.52975,-21.8259 32.16665,-12.06249 32.16666,-12.0625 -5.6369,33.88839 z"
       inkscape:transform-center-x="6.9642857"
       inkscape:transform-center-y="3.2544659" />
    <path
       sodipodi:type="spiral"
       style="fill:none;stroke:#905ad9;stroke-width:1px;stroke-linecap:butt;stroke-linejoin:miter;stroke-opacity:0.35449733"
       id="path3811"
       sodipodi:cx="425"
       sodipodi:cy="306.29074"
       sodipodi:expansion="1"
       sodipodi:revolution="3"
       sodipodi:radius="134.0195"
       sodipodi:argument="-17.82832"
       sodipodi:t0="0"
       d="m 425,306.29074 c 3.50969,5.73011 -5.99251,7.55802 -9.52381,5.83333 -9.56961,-4.67379 -8.08307,-18.01267 -2.14286,-24.88095 10.62565,-12.28575 29.85853,-9.4023 40.2381,1.54762 15.23244,16.06945 10.80273,41.88029 -5.2381,55.59524 -21.3799,18.27988 -53.96649,12.24029 -70.95238,-8.92857 -21.37501,-26.63886 -13.69756,-66.0839 12.61905,-86.30953 31.87294,-24.49595 78.21897,-15.16634 101.66667,16.30953 27.6323,37.09322 16.64237,90.36508 -20.00001,117.02381 -42.30507,30.77857 -102.51854,18.12323 -132.38095,-23.69048 -33.93157,-47.51139 -19.60746,-114.67718 27.38096,-147.7381 52.7139,-37.08936 126.83958,-21.09413 163.09524,31.07144 C 570.01257,300.03775 552.34455,381.12889 495,420.57647"
       transform="matrix(0.95335316,-0.30185719,0.30185719,0.95335316,-71.935178,145.90381)" />
  </g>
</svg>
