<?xml version="1.0" encoding="UTF-8" standalone="no"?>
<!-- Created with Inkscape (http://www.inkscape.org/) -->

<svg
   xmlns:dc="http://purl.org/dc/elements/1.1/"
   xmlns:cc="http://creativecommons.org/ns#"
   xmlns:rdf="http://www.w3.org/1999/02/22-rdf-syntax-ns#"
   xmlns:svg="http://www.w3.org/2000/svg"
   xmlns="http://www.w3.org/2000/svg"
   xmlns:sodipodi="http://sodipodi.sourceforge.net/DTD/sodipodi-0.dtd"
   xmlns:inkscape="http://www.inkscape.org/namespaces/inkscape"
   width="297mm"
   height="210mm"
   id="svg2985"
   version="1.1"
   inkscape:version="0.48.3.1 r9886"
   sodipodi:docname="donguaca.svg">
  <defs
     id="defs2987" />
  <sodipodi:namedview
     inkscape:document-units="mm"
     pagecolor="#ffffff"
     bordercolor="#666666"
     borderopacity="1.0"
     inkscape:pageopacity="0.0"
     inkscape:pageshadow="2"
     inkscape:zoom="0.70710678"
     inkscape:cx="563.87078"
     inkscape:cy="635.96563"
     inkscape:current-layer="layer1"
     id="namedview2989"
     showgrid="false"
     inkscape:window-width="1920"
     inkscape:window-height="1138"
     inkscape:window-x="-8"
     inkscape:window-y="-8"
     inkscape:window-maximized="1"
     showguides="true"
     inkscape:guide-bbox="true" />
  <metadata
     id="metadata2991">
    <rdf:RDF>
      <cc:Work
         rdf:about="">
        <dc:format>image/svg+xml</dc:format>
        <dc:type
           rdf:resource="http://purl.org/dc/dcmitype/StillImage" />
        <dc:title></dc:title>
      </cc:Work>
    </rdf:RDF>
  </metadata>
  <g
     inkscape:label="Layer 1"
     inkscape:groupmode="layer"
     id="layer1">
    <rect
       style="fill:#7527c6;fill-opacity:1;fill-rule:evenodd;stroke:#ff9600;stroke-width:7.08661413;stroke-linecap:round;stroke-linejoin:round;stroke-miterlimit:4;stroke-opacity:1;stroke-dasharray:none"
       id="rect4247"
       width="1538"
       height="1486"
       x="-227.94115"
       y="-568.89331" />
    <g
       id="g4055"
       transform="translate(24,-150)">
      <g
         id="g4007">
        <path
           style="fill:#ffffff;fill-opacity:1;stroke:#000000;stroke-width:7.2713871;stroke-linecap:butt;stroke-linejoin:miter;stroke-miterlimit:4;stroke-opacity:1;stroke-dasharray:none"
           d="m 290.56876,325.64454 c -67.38502,20.90364 -75.32565,136.04207 -17.54733,161.08497 108.79242,42.43978 371.3447,41.90642 495.96697,6.93355 C 849.69143,469.00548 794.17645,340.46081 754.23571,329.844 648.74192,274.31673 350.90676,299.90849 290.56876,325.64454 z"
           id="path3987-6"
           inkscape:connector-curvature="0"
           sodipodi:nodetypes="ccccc" />
        <path
           style="fill:#ffffff;fill-opacity:1;stroke:#000000;stroke-width:7.08661413;stroke-linecap:butt;stroke-linejoin:miter;stroke-miterlimit:4;stroke-opacity:1;stroke-dasharray:none"
           d="m 280.54416,326.82388 c -51.88994,25.88557 -57.56138,95.37163 -1.25126,119.77817 141.17396,44.80703 327.31055,36.94318 483.36396,6.75736 80.7197,-16.45049 37.18896,-104.76605 -11.38478,-126.82842 -102.81309,-54.11627 -411.92317,-24.78918 -470.72792,0.29289 z"
           id="path3987"
           inkscape:connector-curvature="0"
           sodipodi:nodetypes="ccccc" />
      </g>
      <path
         sodipodi:nodetypes="ccccccccc"
         inkscape:connector-curvature="0"
         id="path4017"
         d="M 494,370.59448 336.23297,314.24524 514.5,354.09448 694.50967,307.41681 543,370.09448 720.86501,461.91429 520,394.09448 343.74769,460.05642 z"
         style="fill:none;stroke:#000000;stroke-width:1px;stroke-linecap:butt;stroke-linejoin:miter;stroke-opacity:1" />
      <path
         sodipodi:nodetypes="ccccccccc"
         inkscape:connector-curvature="0"
         id="path4011"
         d="m 500.11091,391.2158 22.26777,83.52082 14.27817,-83.14214 258.97771,-16 L 539.68198,359.05895 518,299.23052 l -17.51041,59.48528 -256.16578,16 z"
         style="fill:#000000;fill-opacity:1;stroke:none" />
      <path
         transform="matrix(1.6879958,0,0,0.99999999,-478.40543,0.99999957)"
         d="m 698.26797,340.15973 c 0,3.41709 -2.92839,6.18718 -6.54074,6.18718 -3.61235,0 -6.54073,-2.77009 -6.54073,-6.18718 0,-3.41709 2.92838,-6.18719 6.54073,-6.18719 3.61235,0 6.54074,2.7701 6.54074,6.18719 z"
         sodipodi:ry="6.1871843"
         sodipodi:rx="6.5407376"
         sodipodi:cy="340.15973"
         sodipodi:cx="691.72723"
         id="path4019"
         style="fill:#000000;fill-opacity:1;fill-rule:evenodd;stroke:none"
         sodipodi:type="arc" />
      <path
         transform="matrix(1.6879958,0,0,0.99999999,-832.13267,2.9347566)"
         d="m 698.26797,340.15973 c 0,3.41709 -2.92839,6.18718 -6.54074,6.18718 -3.61235,0 -6.54073,-2.77009 -6.54073,-6.18718 0,-3.41709 2.92838,-6.18719 6.54073,-6.18719 3.61235,0 6.54074,2.7701 6.54074,6.18719 z"
         sodipodi:ry="6.1871843"
         sodipodi:rx="6.5407376"
         sodipodi:cy="340.15973"
         sodipodi:cx="691.72723"
         id="path4019-1"
         style="fill:#000000;fill-opacity:1;fill-rule:evenodd;stroke:none"
         sodipodi:type="arc" />
      <path
         transform="matrix(1.6879958,0,0,0.99999999,-828.63267,81.934757)"
         d="m 698.26797,340.15973 c 0,3.41709 -2.92839,6.18718 -6.54074,6.18718 -3.61235,0 -6.54073,-2.77009 -6.54073,-6.18718 0,-3.41709 2.92838,-6.18719 6.54073,-6.18719 3.61235,0 6.54074,2.7701 6.54074,6.18719 z"
         sodipodi:ry="6.1871843"
         sodipodi:rx="6.5407376"
         sodipodi:cy="340.15973"
         sodipodi:cx="691.72723"
         id="path4019-4"
         style="fill:#000000;fill-opacity:1;fill-rule:evenodd;stroke:none"
         sodipodi:type="arc" />
      <path
         transform="matrix(1.6879958,0,0,0.99999999,-452.13267,86.934757)"
         d="m 698.26797,340.15973 c 0,3.41709 -2.92839,6.18718 -6.54074,6.18718 -3.61235,0 -6.54073,-2.77009 -6.54073,-6.18718 0,-3.41709 2.92838,-6.18719 6.54073,-6.18719 3.61235,0 6.54074,2.7701 6.54074,6.18719 z"
         sodipodi:ry="6.1871843"
         sodipodi:rx="6.5407376"
         sodipodi:cy="340.15973"
         sodipodi:cx="691.72723"
         id="path4019-2"
         style="fill:#000000;fill-opacity:1;fill-rule:evenodd;stroke:none"
         sodipodi:type="arc" />
      <path
         sodipodi:nodetypes="ccccccccccccccc"
         inkscape:connector-curvature="0"
         id="path4053"
         d="m 235.37868,424.57366 19.12132,7.02082 14,51 57.5,-21.5 52,50.5 92.5,-33.5 59,40.5 88.5,-44 70.5,33 51,-50 45,26 7.15076,-44.27208 19.02081,14.59693 c -12.27113,95.69591 -557.21687,83.06711 -573.31192,-3.49137 z"
         style="fill:#000000;fill-opacity:1;stroke:#000000;stroke-width:1px;stroke-linecap:butt;stroke-linejoin:miter;stroke-opacity:1" />
    </g>
    <g
       id="g4383"
       transform="translate(-7.0710678,980.05)">
      <path
         sodipodi:nodetypes="cccccccccc"
         inkscape:connector-curvature="0"
         id="path2994"
         d="m 466.85464,-1175.2412 c 10.56683,-15.0364 57.97975,-40.3328 97.64131,-12.0459 30.15062,25.2974 42.26766,59.103 47.64301,119.3421 5.03102,43.8717 57.07882,19.8132 87.1305,102.69749 21.58275,73.20857 8.94379,168.19846 -51.6493,191.99695 -44.09067,19.97638 -155.09217,36.36996 -205.38669,12.27494 -78.32347,-40.68356 -79.3058,-143.53741 -48.01911,-193.20113 15.16906,-27.49308 38.22495,-45.90275 56.93805,-72.01765 35.01044,-50.258 -19.0916,-100.8702 15.70223,-149.0467 z"
         style="fill:#00c200;fill-opacity:1;stroke:#000000;stroke-width:2.65748024;stroke-linecap:butt;stroke-linejoin:miter;stroke-miterlimit:4;stroke-opacity:1;stroke-dasharray:none" />
      <path
         sodipodi:nodetypes="ccc"
         inkscape:connector-curvature="0"
         id="path3764"
         d="m 508.20459,-970.45593 c 86.13932,-6.44994 129.00026,177.40726 5.20101,180.43607 -122.47987,7.63356 -139.60706,-173.64171 -5.20101,-180.43607 z"
         style="fill:#d7c200;fill-opacity:1;stroke:#000000;stroke-width:1.77165353;stroke-linecap:butt;stroke-linejoin:miter;stroke-miterlimit:4;stroke-opacity:1;stroke-dasharray:none" />
      <path
         sodipodi:nodetypes="cc"
         inkscape:connector-curvature="0"
         id="path3766"
         d="m 529.14406,-937.00915 c -13.6268,16.85915 -19.09202,34.41766 -16.5,56"
         style="fill:none;stroke:#000000;stroke-width:2.65748024;stroke-linecap:butt;stroke-linejoin:miter;stroke-miterlimit:4;stroke-opacity:1;stroke-dasharray:none" />
      <path
         sodipodi:nodetypes="cc"
         inkscape:connector-curvature="0"
         id="path3768"
         d="m 445.14406,-926.50915 c 22.16862,9.23966 30.99383,27.03154 34.5,45.5"
         style="fill:none;stroke:#000000;stroke-width:2.65748024;stroke-linecap:butt;stroke-linejoin:miter;stroke-miterlimit:4;stroke-opacity:1;stroke-dasharray:none" />
      <path
         inkscape:connector-curvature="0"
         id="path3770"
         d="m 480.14406,-806.50915 19.5,-55.5 32.5,53.5"
         style="fill:none;stroke:#000000;stroke-width:2.65748024;stroke-linecap:butt;stroke-linejoin:miter;stroke-miterlimit:4;stroke-opacity:1;stroke-dasharray:none" />
      <path
         sodipodi:nodetypes="cccccccc"
         inkscape:connector-curvature="0"
         id="path3772"
         d="m 524.26704,-1201.3471 c 83.34413,63.0987 33.51446,153.4578 70.93251,178.3833 82.93137,72.34514 77.12588,142.07419 20.18376,258.48736 48.69807,-3.51454 85.69751,-38.7549 94.85281,-124.70079 -4.13943,-39.12905 -0.48043,-85.64537 -44.54773,-129.40057 -17.9444,-17.843 -35.52094,-8.7072 -52.3259,-42.7621 -7.39895,-33.911 -4.1441,-90.4865 -51.31118,-128.5145 -13.56493,-6.2563 -26.84674,-11.8049 -37.78427,-11.4927 z"
         style="fill:#000000;fill-opacity:0.22751321;stroke:none" />
      <path
         sodipodi:nodetypes="cc"
         inkscape:connector-curvature="0"
         id="path3774"
         d="m 518.83486,-1171.7388 c 23.83261,34.1163 17.83058,67.1034 18.87702,84.2084"
         style="fill:none;stroke:#926d00;stroke-width:1.60847199;stroke-linecap:butt;stroke-linejoin:miter;stroke-miterlimit:4;stroke-opacity:1;stroke-dasharray:none" />
      <path
         sodipodi:nodetypes="cc"
         inkscape:connector-curvature="0"
         id="path3782"
         d="m 525.34417,-1097.6608 c 8.12968,4.2266 16.96172,0.039 22.78263,7.2812"
         style="fill:none;stroke:#926d00;stroke-width:1.60847199;stroke-linecap:butt;stroke-linejoin:miter;stroke-miterlimit:4;stroke-opacity:1;stroke-dasharray:none" />
      <path
         sodipodi:nodetypes="cc"
         inkscape:connector-curvature="0"
         id="path3776"
         d="m 515.25473,-1145.4633 c 3.72813,-10.2457 16.89692,-9.2408 19.85343,-17.0949"
         style="fill:none;stroke:#926d00;stroke-width:1.60847199;stroke-linecap:butt;stroke-linejoin:miter;stroke-miterlimit:4;stroke-opacity:1;stroke-dasharray:none" />
      <path
         sodipodi:nodetypes="cc"
         inkscape:connector-curvature="0"
         id="path3778"
         d="m 520.46218,-1134.0666 c 9.77066,-7.7054 19.47758,-3.8645 27.01369,-9.4972"
         style="fill:none;stroke:#926d00;stroke-width:1.60847199;stroke-linecap:butt;stroke-linejoin:miter;stroke-miterlimit:4;stroke-opacity:1;stroke-dasharray:none" />
      <path
         sodipodi:nodetypes="cc"
         inkscape:connector-curvature="0"
         id="path3780"
         d="m 521.43858,-1119.8209 c 9.4703,-4.189 19.47036,5.1991 27.83314,4.1155"
         style="fill:none;stroke:#926d00;stroke-width:1.60847199;stroke-linecap:butt;stroke-linejoin:miter;stroke-miterlimit:4;stroke-opacity:1;stroke-dasharray:none" />
      <path
         transform="matrix(1.2631579,0,0,1.3125,-99.531404,-1459.9925)"
         d="m 527.14812,358.01419 c 0,1.5621 -1.50376,2.82843 -3.35875,2.82843 -1.85499,0 -3.35876,-1.26633 -3.35876,-2.82843 0,-1.5621 1.50377,-2.82843 3.35876,-2.82843 1.85499,0 3.35875,1.26633 3.35875,2.82843 z"
         sodipodi:ry="2.8284271"
         sodipodi:rx="3.3587573"
         sodipodi:cy="358.01419"
         sodipodi:cx="523.78937"
         id="path3784"
         style="fill:#926d00;fill-opacity:1;stroke:none"
         sodipodi:type="arc" />
      <path
         transform="matrix(1.2631579,0,0,1.3125,-108.37027,-1450.6234)"
         d="m 527.14812,358.01419 c 0,1.5621 -1.50376,2.82843 -3.35875,2.82843 -1.85499,0 -3.35876,-1.26633 -3.35876,-2.82843 0,-1.5621 1.50377,-2.82843 3.35876,-2.82843 1.85499,0 3.35875,1.26633 3.35875,2.82843 z"
         sodipodi:ry="2.8284271"
         sodipodi:rx="3.3587573"
         sodipodi:cy="358.01419"
         sodipodi:cx="523.78937"
         id="path3784-1"
         style="fill:#926d00;fill-opacity:1;stroke:none"
         sodipodi:type="arc" />
      <path
         transform="matrix(1.2631579,0,0,1.3125,-87.86417,-1449.9163)"
         d="m 527.14812,358.01419 c 0,1.5621 -1.50376,2.82843 -3.35875,2.82843 -1.85499,0 -3.35876,-1.26633 -3.35876,-2.82843 0,-1.5621 1.50377,-2.82843 3.35876,-2.82843 1.85499,0 3.35875,1.26633 3.35875,2.82843 z"
         sodipodi:ry="2.8284271"
         sodipodi:rx="3.3587573"
         sodipodi:cy="358.01419"
         sodipodi:cx="523.78937"
         id="path3784-7"
         style="fill:#926d00;fill-opacity:1;stroke:none"
         sodipodi:type="arc" />
      <path
         transform="matrix(1.2631579,0,0,1.3125,-72.135381,-1285.1202)"
         d="m 527.14812,358.01419 c 0,1.5621 -1.50376,2.82843 -3.35875,2.82843 -1.85499,0 -3.35876,-1.26633 -3.35876,-2.82843 0,-1.5621 1.50377,-2.82843 3.35876,-2.82843 1.85499,0 3.35875,1.26633 3.35875,2.82843 z"
         sodipodi:ry="2.8284271"
         sodipodi:rx="3.3587573"
         sodipodi:cy="358.01419"
         sodipodi:cx="523.78937"
         id="path3784-4"
         style="fill:#926d00;fill-opacity:1;stroke:none"
         sodipodi:type="arc" />
      <path
         transform="matrix(1.2631579,0,0,1.3125,-80.135381,-1272.1202)"
         d="m 527.14812,358.01419 c 0,1.5621 -1.50376,2.82843 -3.35875,2.82843 -1.85499,0 -3.35876,-1.26633 -3.35876,-2.82843 0,-1.5621 1.50377,-2.82843 3.35876,-2.82843 1.85499,0 3.35875,1.26633 3.35875,2.82843 z"
         sodipodi:ry="2.8284271"
         sodipodi:rx="3.3587573"
         sodipodi:cy="358.01419"
         sodipodi:cx="523.78937"
         id="path3784-0"
         style="fill:#926d00;fill-opacity:1;stroke:none"
         sodipodi:type="arc" />
      <path
         transform="matrix(1.2631579,0,0,1.3125,-63.635381,-1272.6202)"
         d="m 527.14812,358.01419 c 0,1.5621 -1.50376,2.82843 -3.35875,2.82843 -1.85499,0 -3.35876,-1.26633 -3.35876,-2.82843 0,-1.5621 1.50377,-2.82843 3.35876,-2.82843 1.85499,0 3.35875,1.26633 3.35875,2.82843 z"
         sodipodi:ry="2.8284271"
         sodipodi:rx="3.3587573"
         sodipodi:cy="358.01419"
         sodipodi:cx="523.78937"
         id="path3784-9"
         style="fill:#926d00;fill-opacity:1;stroke:none"
         sodipodi:type="arc" />
      <path
         sodipodi:nodetypes="ccccc"
         inkscape:connector-curvature="0"
         id="path3832"
         d="m 492.62401,-842.75559 -41.89608,-1.32582 c 1.36861,2.11594 1.62046,5.50954 0.17678,7.6014 l 41.10058,-3.88909 z"
         style="fill:#ffffff;fill-opacity:1;stroke:#000000;stroke-width:1px;stroke-linecap:butt;stroke-linejoin:miter;stroke-opacity:1" />
      <path
         sodipodi:nodetypes="ccc"
         inkscape:connector-curvature="0"
         id="path3834"
         d="m 450.12868,-844.19346 c -3.39708,-0.56232 -3.22003,8.6731 0.24085,7.73554 2.75435,-0.2946 1.88677,-7.62935 -0.24085,-7.73554 z"
         style="fill:#ff0f0b;fill-opacity:1;stroke:#000000;stroke-width:1px;stroke-linecap:butt;stroke-linejoin:miter;stroke-opacity:1" />
      <path
         sodipodi:nodetypes="cccccccccccccscc"
         inkscape:connector-curvature="0"
         id="path3950"
         d="m 450.57541,-836.49918 c -22.62933,2.58007 -167.95389,-84.57792 -167.80498,-115.69804 3.32805,-22.03303 -35.28028,-62.29928 -3.59798,-125.60658 14.75653,-41.4837 -39.85245,-78.9683 -39,-152 11.01591,-38.0492 10.64533,-47.198 3,-75 -1.43395,-62.2135 103.08953,-82.5297 140,-37 57.28531,-28.2648 80.49405,35.2597 83,52 4.14304,51.151 -46.90825,27.7309 -29,54 19.77403,43.7754 -11.66973,50.3282 -10,88 0.99079,29.1916 -22.96636,25.7511 -31,57 -2.16524,25.9042 28.02262,29.14 15,47 -28.67115,48.28514 -113.28749,34.4275 -91,54.99998 10.49035,13.43871 25.34118,26.33235 26,41 -21.24188,14.48114 -6.11552,45.35999 25.02203,54.26578 32.91652,9.4146 62.04363,44.02229 80.03886,49.98735 1.00336,4.33031 0.005,6.17352 -0.65793,7.05151 z"
         style="fill:#828384;fill-opacity:0.67724867;stroke:none" />
      <path
         sodipodi:nodetypes="cccc"
         inkscape:connector-curvature="0"
         id="path3836"
         d="m 476.02276,-964.99146 c -79.84136,39.16727 -57.00709,146.2858 -0.35355,169.8824 -34.90896,-10.18894 -60.71628,-44.58877 -60.57374,-85.44381 1.99658,-24.61277 7.02669,-63.36832 60.92729,-84.43859 z"
         style="fill:#ffffff;fill-opacity:0.22751321;stroke:none" />
      <path
         sodipodi:nodetypes="cccc"
         inkscape:connector-curvature="0"
         id="path3836-4"
         d="m 523.76794,-969.30212 c 80.60518,42.48061 69.11406,161.84647 15.22182,175.16273 29.85198,-7.79249 48.08976,-27.38965 51.00788,-70.68555 -0.24658,-30.47674 -10.56958,-90.03559 -66.2297,-104.47718 z"
         style="fill:#000000;fill-opacity:0.17460315;stroke:none" />
      <path
         sodipodi:nodetypes="cc"
         inkscape:connector-curvature="0"
         id="path3856"
         d="m 454.88218,-843.55108 c 1.15301,2.8283 -1.2293,4.28878 0.26517,6.58493"
         style="fill:none;stroke:#000000;stroke-width:1px;stroke-linecap:butt;stroke-linejoin:miter;stroke-opacity:0.21164018" />
      <path
         sodipodi:nodetypes="cc"
         inkscape:connector-curvature="0"
         id="path3856-8"
         d="m 458.35521,-843.66156 c 1.46236,3.00508 -0.74317,4.64234 0.26517,6.23138"
         style="fill:none;stroke:#000000;stroke-width:1px;stroke-linecap:butt;stroke-linejoin:miter;stroke-opacity:0.21164018" />
      <path
         sodipodi:nodetypes="cc"
         inkscape:connector-curvature="0"
         id="path3856-82"
         d="m 461.75815,-843.66158 c 1.7637,2.69722 -0.76135,4.16106 0.48614,5.87783"
         style="fill:none;stroke:#000000;stroke-width:1px;stroke-linecap:butt;stroke-linejoin:miter;stroke-opacity:0.21164018" />
      <path
         sodipodi:nodetypes="cc"
         inkscape:connector-curvature="0"
         id="path3856-4"
         d="m 465.33789,-843.4406 c 0.98049,2.30574 -1.20057,3.82359 0.44195,5.61266"
         style="fill:none;stroke:#000000;stroke-width:1px;stroke-linecap:butt;stroke-linejoin:miter;stroke-opacity:0.21164018" />
      <path
         sodipodi:nodetypes="cc"
         inkscape:connector-curvature="0"
         id="path3856-5"
         d="m 468.2989,-843.30801 c 1.37397,2.20958 -1.00834,3.13973 0.26517,5.08233"
         style="fill:none;stroke:#000000;stroke-width:1px;stroke-linecap:butt;stroke-linejoin:miter;stroke-opacity:0.21164018" />
      <path
         sodipodi:nodetypes="cc"
         inkscape:connector-curvature="0"
         id="path3856-51"
         d="m 471.48088,-843.17543 c 1.59495,2.78411 -0.30123,2.6536 0.57452,4.41942"
         style="fill:none;stroke:#000000;stroke-width:1px;stroke-linecap:butt;stroke-linejoin:miter;stroke-opacity:0.21164018" />
      <path
         sodipodi:nodetypes="cc"
         inkscape:connector-curvature="0"
         id="path3856-7"
         d="m 474.88383,-843.44059 c 1.37397,2.73991 -0.61059,2.91876 0.22097,4.37522"
         style="fill:none;stroke:#000000;stroke-width:1px;stroke-linecap:butt;stroke-linejoin:miter;stroke-opacity:0.21164018" />
      <path
         sodipodi:nodetypes="cc"
         inkscape:connector-curvature="0"
         id="path3856-7-1"
         d="m 478.23188,-843.39639 c 1.37397,2.73991 -0.61059,2.91876 0.22097,4.37522"
         style="fill:none;stroke:#000000;stroke-width:1px;stroke-linecap:butt;stroke-linejoin:miter;stroke-opacity:0.21164018" />
      <path
         sodipodi:nodetypes="cc"
         inkscape:connector-curvature="0"
         id="path3856-7-15"
         d="m 481.67903,-843.17542 c 1.37397,2.73991 -0.65478,2.43262 0.17678,3.88908"
         style="fill:none;stroke:#000000;stroke-width:1px;stroke-linecap:butt;stroke-linejoin:miter;stroke-opacity:0.21164018" />
      <path
         sodipodi:nodetypes="cc"
         inkscape:connector-curvature="0"
         id="path3856-7-2"
         d="m 484.99359,-843.13124 c 1.37397,2.73991 -0.78737,2.16746 0.0442,3.62392"
         style="fill:none;stroke:#000000;stroke-width:1px;stroke-linecap:butt;stroke-linejoin:miter;stroke-opacity:0.21164018" />
      <path
         sodipodi:nodetypes="cc"
         inkscape:connector-curvature="0"
         id="path3856-7-7"
         d="m 488.26396,-843.21962 c 1.32978,2.47474 -1.05253,1.99068 0.17678,3.04939"
         style="fill:none;stroke:#000000;stroke-width:1px;stroke-linecap:butt;stroke-linejoin:miter;stroke-opacity:0.21164018" />
    </g>
    <g
       id="g4131"
       transform="translate(19.171573,29.171573)">
      <path
         sodipodi:nodetypes="ccc"
         inkscape:connector-curvature="0"
         id="path4067"
         d="m 575.34314,475.79297 c -44.76073,3.66954 -49.804,71.26629 2,73 48.37586,-0.21669 42.32847,-74.48714 -2,-73 z"
         style="fill:#efff31;fill-opacity:1;stroke:#ff9600;stroke-width:1.77165353;stroke-linecap:butt;stroke-linejoin:miter;stroke-miterlimit:4;stroke-opacity:1;stroke-dasharray:none" />
      <path
         transform="matrix(0.58181818,0,0,0.62,224.04845,188.99801)"
         d="m 586,501.09448 c 0,3.45178 -3.07804,6.25 -6.875,6.25 -3.79696,0 -6.875,-2.79822 -6.875,-6.25 0,-3.45178 3.07804,-6.25 6.875,-6.25 3.79696,0 6.875,2.79822 6.875,6.25 z"
         sodipodi:ry="6.25"
         sodipodi:rx="6.875"
         sodipodi:cy="501.09448"
         sodipodi:cx="579.125"
         id="path4071"
         style="fill:#000000;fill-opacity:1;fill-rule:evenodd;stroke:none"
         sodipodi:type="arc" />
      <path
         transform="matrix(0.58181818,0,0,0.62,247.79845,183.62301)"
         d="m 586,501.09448 c 0,3.45178 -3.07804,6.25 -6.875,6.25 -3.79696,0 -6.875,-2.79822 -6.875,-6.25 0,-3.45178 3.07804,-6.25 6.875,-6.25 3.79696,0 6.875,2.79822 6.875,6.25 z"
         sodipodi:ry="6.25"
         sodipodi:rx="6.875"
         sodipodi:cy="501.09448"
         sodipodi:cx="579.125"
         id="path4071-3"
         style="fill:#000000;fill-opacity:1;fill-rule:evenodd;stroke:none"
         sodipodi:type="arc" />
      <path
         sodipodi:nodetypes="ccc"
         inkscape:connector-curvature="0"
         id="path4093"
         d="m 566.7439,520.05159 c 2,-1 33.5,-13.25 33.5,-13.25 7.88599,12.12731 -19.52455,38.31848 -33.5,13.25 z"
         style="fill:#ffffff;fill-opacity:1;stroke:#000000;stroke-width:1px;stroke-linecap:butt;stroke-linejoin:miter;stroke-opacity:1" />
      <path
         transform="matrix(0.89898475,0,0,1.057723,38.493903,-28.963652)"
         d="m 584.07021,498.86102 c 0,1.19598 -1.10804,2.16552 -2.47487,2.16552 -1.36684,0 -2.47488,-0.96954 -2.47488,-2.16552 0,-1.19598 1.10804,-2.16551 2.47488,-2.16551 1.36683,0 2.47487,0.96953 2.47487,2.16551 z"
         sodipodi:ry="2.1655145"
         sodipodi:rx="2.4748738"
         sodipodi:cy="498.86102"
         sodipodi:cx="581.59534"
         id="path4095"
         style="fill:#ffffff;fill-opacity:1;fill-rule:evenodd;stroke:none"
         sodipodi:type="arc" />
      <path
         sodipodi:nodetypes="cc"
         inkscape:connector-curvature="0"
         id="path4099"
         d="m 569.3689,518.92659 7.25,10.625"
         style="fill:none;stroke:#000000;stroke-width:1px;stroke-linecap:butt;stroke-linejoin:miter;stroke-opacity:1" />
      <path
         sodipodi:nodetypes="cc"
         inkscape:connector-curvature="0"
         id="path4101"
         d="m 577.6189,515.67659 6.625,14.875"
         style="fill:none;stroke:#000000;stroke-width:1px;stroke-linecap:butt;stroke-linejoin:miter;stroke-opacity:1" />
      <path
         inkscape:connector-curvature="0"
         id="path4103"
         d="m 584.4939,512.80159 8.5,13.125"
         style="fill:none;stroke:#000000;stroke-width:1px;stroke-linecap:butt;stroke-linejoin:miter;stroke-opacity:1" />
      <path
         inkscape:connector-curvature="0"
         id="path4105"
         d="m 592.2439,510.05159 5.5,11.25"
         style="fill:none;stroke:#000000;stroke-width:1px;stroke-linecap:butt;stroke-linejoin:miter;stroke-opacity:1" />
      <path
         inkscape:connector-curvature="0"
         id="path4107"
         d="m 597.3689,507.67659 c 0.5,0.875 3.875,7.25 3.875,7.25"
         style="fill:none;stroke:#000000;stroke-width:1px;stroke-linecap:butt;stroke-linejoin:miter;stroke-opacity:1" />
      <path
         sodipodi:nodetypes="cc"
         inkscape:connector-curvature="0"
         id="path4109"
         d="m 570.8689,526.05159 c 9.17518,-9.30182 21.49406,-8.18491 30.625,-17.125"
         style="fill:none;stroke:#000000;stroke-width:1px;stroke-linecap:butt;stroke-linejoin:miter;stroke-opacity:1" />
      <path
         transform="matrix(0.89898475,0,0,1.057723,62.023565,-34.480189)"
         d="m 584.07021,498.86102 c 0,1.19598 -1.10804,2.16552 -2.47487,2.16552 -1.36684,0 -2.47488,-0.96954 -2.47488,-2.16552 0,-1.19598 1.10804,-2.16551 2.47488,-2.16551 1.36683,0 2.47487,0.96953 2.47487,2.16551 z"
         sodipodi:ry="2.1655145"
         sodipodi:rx="2.4748738"
         sodipodi:cy="498.86102"
         sodipodi:cx="581.59534"
         id="path4095-2"
         style="fill:#ffffff;fill-opacity:1;fill-rule:evenodd;stroke:none"
         sodipodi:type="arc" />
    </g>
    <path
       style="fill:#efff31;fill-opacity:1;stroke:#efff31;stroke-width:7.08661413;stroke-linecap:round;stroke-linejoin:miter;stroke-miterlimit:4;stroke-opacity:1;stroke-dasharray:none"
       d="m 642.58328,543.54073 43.74965,1.80361"
       id="path4129"
       inkscape:connector-curvature="0"
       sodipodi:nodetypes="cc" />
    <path
       style="fill:#efff31;fill-opacity:1;stroke:#ff9600;stroke-width:1px;stroke-linecap:butt;stroke-linejoin:miter;stroke-opacity:1"
       d="M 567.17933,552.64874 C 395.62777,468.0735 363.19829,405.14167 300.60007,346.88067 c -6.57943,-6.64768 -14.94675,-2.49485 -16.94328,-14.00306 l -1.62348,-20.9736 c -1.38264,-7.74152 12.26021,-3.42461 8.30851,2.47488 1.25392,14.88969 0.4403,19.06638 10.1014,23.02385 l -3.57843,-24.2132 c -2.6593,-6.75932 9.68486,-6.28559 8.66206,-0.17678 l 5.3033,24.15255 9.38693,-21.36702 c 1.51251,-6.12024 13.91789,1.25199 6.75305,6.1443 l -7.88909,17.33668 c 13.81278,-4.10539 14.20209,-4.54584 18.25305,-12.30635 3.81884,-9.32444 12.58525,2.37368 7.87958,5.26041 l -9.10935,9.80361 c -5.87821,5.64237 -8.8197,3.45831 -13.14155,5.08637 -12.33201,6.92778 104.28667,140.58407 245.63077,197.39371"
       id="path4145"
       inkscape:connector-curvature="0"
       sodipodi:nodetypes="ccccccccccccccccc" />
    <path
       style="fill:#efff31;fill-opacity:1;stroke:#ff9600;stroke-width:1px;stroke-linecap:butt;stroke-linejoin:miter;stroke-opacity:1"
       d="m 622.6872,534.97107 c 44.71087,-48.40566 47.10318,-31.12245 158.74548,-181.19611 l 24.99138,-11.60661 c 4.03119,-2.22184 0.33789,-13.87242 -2.94975,-17.63477 -1.90164,-3.83533 -8.3305,-5.2183 -7.19239,3.07843 l 1.41421,9.89949 -10.6066,3.53553 2.82843,-21.2132 c -0.79605,-3.25885 -9.2728,-6.01522 -9.1066,1.54289 l -4.41422,22.84189 -13.34924,-20.84925 c -2.03257,-3.58539 -12.41158,-5.2111 -7.44239,3.82107 l 7.90686,20.39214 -21.67767,-15.02082 c -3.73918,-4.98576 -11.73615,0.58319 -7.77082,4.65686 l 20.5061,19.79899 c -31.18371,83.72658 -89.7532,123.12407 -133.29699,168.05398"
       id="path4145-2"
       inkscape:connector-curvature="0"
       sodipodi:nodetypes="ccccccccccccccccc" />
    <path
       style="fill:#efff31;fill-opacity:1;stroke:#efff31;stroke-width:5.88897133;stroke-linecap:round;stroke-linejoin:miter;stroke-miterlimit:4;stroke-opacity:1;stroke-dasharray:none"
       d="m 643.73654,553.96163 21.2624,7.11604"
       id="path4129-1"
       inkscape:connector-curvature="0"
       sodipodi:nodetypes="cc" />
    <path
       style="fill:#efff31;fill-opacity:1;stroke:#efff31;stroke-width:5.88897133;stroke-linecap:round;stroke-linejoin:miter;stroke-miterlimit:4;stroke-opacity:1;stroke-dasharray:none"
       d="m 643.49772,532.33381 21.58876,-6.2264"
       id="path4129-1-6"
       inkscape:connector-curvature="0"
       sodipodi:nodetypes="cc" />
    <path
       style="fill:#efff31;fill-opacity:1;stroke:#efff31;stroke-width:7.08661413;stroke-linecap:round;stroke-linejoin:miter;stroke-miterlimit:4;stroke-opacity:1;stroke-dasharray:none"
       d="m 553.6555,564.40856 -38.77706,20.33775"
       id="path4129-8"
       inkscape:connector-curvature="0"
       sodipodi:nodetypes="cc" />
    <path
       style="fill:#efff31;fill-opacity:1;stroke:#efff31;stroke-width:5.88897133;stroke-linecap:round;stroke-linejoin:miter;stroke-miterlimit:4;stroke-opacity:1;stroke-dasharray:none"
       d="m 557.06896,574.32186 -16.17771,15.52447"
       id="path4129-1-5"
       inkscape:connector-curvature="0"
       sodipodi:nodetypes="cc" />
    <path
       style="fill:#efff31;fill-opacity:1;stroke:#efff31;stroke-width:5.88897133;stroke-linecap:round;stroke-linejoin:miter;stroke-miterlimit:4;stroke-opacity:1;stroke-dasharray:none"
       d="m 548.0368,554.66888 -22.17796,3.60288"
       id="path4129-1-6-7"
       inkscape:connector-curvature="0"
       sodipodi:nodetypes="cc" />
    <path
       style="fill:#efff31;fill-opacity:1;stroke:#efff31;stroke-width:7.08661413;stroke-linecap:round;stroke-linejoin:miter;stroke-miterlimit:4;stroke-opacity:1;stroke-dasharray:none"
       d="m 586.43251,494.5557 -7.53866,-39.83854"
       id="path4129-6"
       inkscape:connector-curvature="0"
       sodipodi:nodetypes="cc" />
    <path
       style="fill:#efff31;fill-opacity:1;stroke:#efff31;stroke-width:5.88897133;stroke-linecap:round;stroke-linejoin:miter;stroke-miterlimit:4;stroke-opacity:1;stroke-dasharray:none"
       d="m 599.60046,494.90578 5.30375,-22.80292"
       id="path4129-1-1"
       inkscape:connector-curvature="0"
       sodipodi:nodetypes="cc" />
    <path
       style="fill:#efff31;fill-opacity:1;stroke:#efff31;stroke-width:5.88897133;stroke-linecap:round;stroke-linejoin:miter;stroke-miterlimit:4;stroke-opacity:1;stroke-dasharray:none"
       d="m 578.0462,501.10932 -14.28824,-20.2093"
       id="path4129-1-6-8"
       inkscape:connector-curvature="0"
       sodipodi:nodetypes="cc" />
    <path
       style="fill:#efff31;fill-opacity:1;stroke:#efff31;stroke-width:7.08661413;stroke-linecap:round;stroke-linejoin:miter;stroke-miterlimit:4;stroke-opacity:1;stroke-dasharray:none"
       d="m 610.99122,581.78254 15.30167,41.02614"
       id="path4129-9"
       inkscape:connector-curvature="0"
       sodipodi:nodetypes="cc" />
    <path
       style="fill:#efff31;fill-opacity:1;stroke:#efff31;stroke-width:5.88897133;stroke-linecap:round;stroke-linejoin:miter;stroke-miterlimit:4;stroke-opacity:1;stroke-dasharray:none"
       d="m 602.71669,584.76502 0.80143,24.47948"
       id="path4129-1-2"
       inkscape:connector-curvature="0"
       sodipodi:nodetypes="cc" />
    <path
       style="fill:#efff31;fill-opacity:1;stroke:#efff31;stroke-width:5.88897133;stroke-linecap:round;stroke-linejoin:miter;stroke-miterlimit:4;stroke-opacity:1;stroke-dasharray:none"
       d="m 619.37781,578.987 16.40852,16.77828"
       id="path4129-1-6-79"
       inkscape:connector-curvature="0"
       sodipodi:nodetypes="cc" />
  </g>
</svg>
