<?xml version="1.0" encoding="UTF-8" standalone="no"?>
<!-- Created with Inkscape (http://www.inkscape.org/) -->

<svg
   xmlns:dc="http://purl.org/dc/elements/1.1/"
   xmlns:cc="http://creativecommons.org/ns#"
   xmlns:rdf="http://www.w3.org/1999/02/22-rdf-syntax-ns#"
   xmlns:svg="http://www.w3.org/2000/svg"
   xmlns="http://www.w3.org/2000/svg"
   xmlns:sodipodi="http://sodipodi.sourceforge.net/DTD/sodipodi-0.dtd"
   xmlns:inkscape="http://www.inkscape.org/namespaces/inkscape"
   width="64px"
   height="64px"
   id="svg4951"
   version="1.1"
   inkscape:version="0.48.3.1 r9886"
   sodipodi:docname="mistake.svg">
  <defs
     id="defs4953" />
  <sodipodi:namedview
     id="base"
     pagecolor="#ffffff"
     bordercolor="#666666"
     borderopacity="1.0"
     inkscape:pageopacity="0.0"
     inkscape:pageshadow="2"
     inkscape:zoom="11.313709"
     inkscape:cx="40.544507"
     inkscape:cy="27.476047"
     inkscape:current-layer="layer2"
     showgrid="true"
     inkscape:document-units="px"
     inkscape:grid-bbox="true"
     showguides="true"
     inkscape:guide-bbox="true"
     inkscape:window-width="1920"
     inkscape:window-height="1138"
     inkscape:window-x="-8"
     inkscape:window-y="-8"
     inkscape:window-maximized="1"
     inkscape:snap-nodes="false">
    <sodipodi:guide
       orientation="0,1"
       position="-8.396893,32"
       id="guide5590" />
    <sodipodi:guide
       orientation="1,0"
       position="32,67.351921"
       id="guide5592" />
  </sodipodi:namedview>
  <metadata
     id="metadata4956">
    <rdf:RDF>
      <cc:Work
         rdf:about="">
        <dc:format>image/svg+xml</dc:format>
        <dc:type
           rdf:resource="http://purl.org/dc/dcmitype/StillImage" />
        <dc:title></dc:title>
      </cc:Work>
    </rdf:RDF>
  </metadata>
  <g
     inkscape:groupmode="layer"
     id="layer2"
     inkscape:label="colored circles"
     style="display:inline">
    <path
       sodipodi:type="arc"
       style="fill:#00d456;fill-opacity:1;fill-rule:evenodd;stroke:none;display:inline"
       id="path6231-1-6-3-8-7-6-1"
       sodipodi:cx="32.25"
       sodipodi:cy="32.375"
       sodipodi:rx="14.3125"
       sodipodi:ry="12.5"
       d="m 46.5625,32.375 a 14.3125,12.5 0 1 1 -28.625,0 14.3125,12.5 0 1 1 28.625,0 z"
       transform="matrix(2.2707424,0,0,2.6,-41.121345,-52.285094)" />
    <path
       sodipodi:type="arc"
       style="fill:#00c073;fill-opacity:1;fill-rule:evenodd;stroke:none;display:inline"
       id="path6231-1-6-3-8-7-6"
       sodipodi:cx="32.25"
       sodipodi:cy="32.375"
       sodipodi:rx="14.3125"
       sodipodi:ry="12.5"
       d="m 46.5625,32.375 a 14.3125,12.5 0 1 1 -28.625,0 14.3125,12.5 0 1 1 28.625,0 z"
       transform="matrix(2.0960699,0,0,2.4,-35.488156,-45.721707)" />
    <path
       sodipodi:type="arc"
       style="fill:#00af90;fill-opacity:1;fill-rule:evenodd;stroke:none;display:inline"
       id="path6231-1-6-3-8-7"
       sodipodi:cx="32.25"
       sodipodi:cy="32.375"
       sodipodi:rx="14.3125"
       sodipodi:ry="12.5"
       d="m 46.5625,32.375 a 14.3125,12.5 0 1 1 -28.625,0 14.3125,12.5 0 1 1 28.625,0 z"
       transform="matrix(1.9213974,0,0,2.2,-30.031745,-39.511871)" />
    <path
       sodipodi:type="arc"
       style="fill:#00a1ad;fill-opacity:1;fill-rule:evenodd;stroke:none;display:inline"
       id="path6231-1-6-3-8"
       sodipodi:cx="32.25"
       sodipodi:cy="32.375"
       sodipodi:rx="14.3125"
       sodipodi:ry="12.5"
       d="m 46.5625,32.375 a 14.3125,12.5 0 1 1 -28.625,0 14.3125,12.5 0 1 1 28.625,0 z"
       transform="matrix(1.7467249,0,0,2,-24.310169,-32.948485)" />
    <path
       sodipodi:type="arc"
       style="fill:#00c0b7;fill-opacity:1;fill-rule:evenodd;stroke:none;display:inline"
       id="path6231-1-6-3"
       sodipodi:cx="32.25"
       sodipodi:cy="32.375"
       sodipodi:rx="14.3125"
       sodipodi:ry="12.5"
       d="m 46.5625,32.375 a 14.3125,12.5 0 1 1 -28.625,0 14.3125,12.5 0 1 1 28.625,0 z"
       transform="matrix(1.5720524,0,0,1.8,-18.765369,-26.20832)" />
    <path
       sodipodi:type="arc"
       style="fill:#00a7ce;fill-opacity:1;fill-rule:evenodd;stroke:none;display:inline"
       id="path6231-1-6"
       sodipodi:cx="32.25"
       sodipodi:cy="32.375"
       sodipodi:rx="14.3125"
       sodipodi:ry="12.5"
       d="m 46.5625,32.375 a 14.3125,12.5 0 1 1 -28.625,0 14.3125,12.5 0 1 1 28.625,0 z"
       transform="matrix(1.3973799,0,0,1.6,-12.815502,-19.8)" />
    <path
       sodipodi:type="arc"
       style="fill:#0075ce;fill-opacity:1;fill-rule:evenodd;stroke:none;display:inline"
       id="path6231-1"
       sodipodi:cx="32.25"
       sodipodi:cy="32.375"
       sodipodi:rx="14.3125"
       sodipodi:ry="12.5"
       d="m 46.5625,32.375 a 14.3125,12.5 0 1 1 -28.625,0 14.3125,12.5 0 1 1 28.625,0 z"
       transform="matrix(1.2227074,0,0,1.4,-7.4323138,-13.2)" />
    <path
       sodipodi:type="arc"
       style="fill:#0000ce;fill-opacity:1;fill-rule:evenodd;stroke:none"
       id="path6231"
       sodipodi:cx="32.25"
       sodipodi:cy="32.375"
       sodipodi:rx="14.3125"
       sodipodi:ry="12.5"
       d="m 46.5625,32.375 a 14.3125,12.5 0 1 1 -28.625,0 14.3125,12.5 0 1 1 28.625,0 z"
       transform="matrix(1.0480349,0,0,1.2,-1.799126,-6.85)" />
  </g>
  <g
     id="layer1"
     inkscape:label="blackcirc"
     inkscape:groupmode="layer"
     style="display:inline">
    <path
       sodipodi:type="arc"
       style="fill:#000000;fill-opacity:1;fill-rule:evenodd;stroke:#000000;stroke-width:0.05;stroke-linecap:round;stroke-linejoin:round;stroke-miterlimit:4;stroke-opacity:1;stroke-dasharray:none;stroke-dashoffset:1.86339999"
       id="path5588"
       sodipodi:cx="32.570312"
       sodipodi:cy="26.548828"
       sodipodi:rx="1.2460938"
       sodipodi:ry="1.1464844"
       d="m 33.816406,26.548828 a 1.2460937,1.1464844 0 1 1 -2.492187,0 1.2460937,1.1464844 0 1 1 2.492187,0 z"
       transform="matrix(10.36301,0,0,11.19744,-305.47611,-265.36822)" />
  </g>
  <g
     inkscape:groupmode="layer"
     id="layer3"
     inkscape:label="petals"
     style="display:inline">
    <path
       style="fill:#712db3;fill-opacity:1;stroke:#000000;stroke-width:0.5;stroke-miterlimit:4;stroke-opacity:1;stroke-dasharray:none"
       d="m 29.243217,20.591768 c -0.676864,-4.191611 6.091766,-4.191611 5.414902,0 L 31.95067,31.890889 z"
       id="path4959"
       inkscape:connector-curvature="0"
       sodipodi:nodetypes="cccc" />
    <path
       style="fill:#712db3;fill-opacity:1;stroke:#000000;stroke-width:0.5;stroke-miterlimit:4;stroke-opacity:1;stroke-dasharray:none"
       d="m 35.512083,20.841111 c 1.604244,-3.934315 7.394721,-0.44988 4.632382,2.787547 l -8.20159,8.272487 z"
       id="path4959-4"
       inkscape:connector-curvature="0"
       sodipodi:nodetypes="cccc"
       inkscape:transform-center-y="-6.427113"
       inkscape:transform-center-x="-4.4823542" />
    <path
       style="fill:#712db3;fill-opacity:1;stroke:#000000;stroke-width:0.5;stroke-miterlimit:4;stroke-opacity:1;stroke-dasharray:none"
       d="m 23.970752,23.413542 c -2.66993,-3.313166 3.216563,-6.634795 4.709194,-2.657304 l 3.255815,11.155193 z"
       id="path4959-46"
       inkscape:connector-curvature="0"
       sodipodi:nodetypes="cccc"
       inkscape:transform-center-y="-6.515069"
       inkscape:transform-center-x="4.2848118" />
    <path
       style="fill:#712db3;fill-opacity:1;stroke:#000000;stroke-width:0.5;stroke-miterlimit:4;stroke-opacity:1;stroke-dasharray:none"
       d="m 29.248703,43.366166 c -0.676864,4.191611 6.091765,4.191611 5.414902,0 L 31.956153,32.067045 z"
       id="path4959-9"
       inkscape:connector-curvature="0"
       sodipodi:nodetypes="cccc" />
    <path
       style="fill:#712db3;fill-opacity:1;stroke:#000000;stroke-width:0.5;stroke-miterlimit:4;stroke-opacity:1;stroke-dasharray:none"
       d="m 35.279536,43.190108 c 1.519668,3.967361 7.383419,0.606215 4.691001,-2.688919 l -8.022661,-8.444115 z"
       id="path4959-4-8"
       inkscape:connector-curvature="0"
       sodipodi:nodetypes="cccc"
       inkscape:transform-center-y="6.489205"
       inkscape:transform-center-x="-4.3733325" />
    <path
       style="fill:#712db3;fill-opacity:1;stroke:#000000;stroke-width:0.5;stroke-miterlimit:4;stroke-opacity:1;stroke-dasharray:none"
       d="m 23.952964,40.522958 c -2.678973,3.305942 3.198419,6.643457 4.701916,2.67001 l 3.286287,-11.146355 z"
       id="path4959-46-5"
       inkscape:connector-curvature="0"
       sodipodi:nodetypes="cccc"
       inkscape:transform-center-y="6.5075118"
       inkscape:transform-center-x="4.2988878" />
    <path
       style="fill:#712db3;fill-opacity:1;stroke:#000000;stroke-width:0.5;stroke-miterlimit:4;stroke-opacity:1;stroke-dasharray:none"
       d="m 43.272396,34.883639 c 4.20482,0.740458 4.314054,-5.98767 0.08738,-5.382502 l -11.407872,2.508905 z"
       id="path4959-9-6"
       inkscape:connector-curvature="0"
       sodipodi:nodetypes="cccc"
       inkscape:transform-center-x="-6.860344"
       inkscape:transform-center-y="0.031167313" />
    <path
       style="fill:#712db3;fill-opacity:1;stroke:#000000;stroke-width:0.5;stroke-miterlimit:4;stroke-opacity:1;stroke-dasharray:none"
       d="m 43.197481,28.905744 c 4.017125,-1.439956 0.741035,-7.32825 -2.620872,-4.710638 l -8.635214,7.824222 z"
       id="path4959-4-8-6"
       inkscape:connector-curvature="0"
       sodipodi:nodetypes="cccc"
       inkscape:transform-center-y="-4.2560115"
       inkscape:transform-center-x="-6.5778273" />
    <path
       style="fill:#712db3;fill-opacity:1;stroke:#000000;stroke-width:0.5;stroke-miterlimit:4;stroke-opacity:1;stroke-dasharray:none"
       d="m 40.297699,40.133352 c 3.271816,2.728108 6.744481,-3.047779 2.778133,-4.620707 L 31.930978,32.025948 z"
       id="path4959-46-5-0"
       inkscape:connector-curvature="0"
       sodipodi:nodetypes="cccc"
       inkscape:transform-center-y="4.3748331"
       inkscape:transform-center-x="-6.4893704" />
    <path
       style="fill:#712db3;fill-opacity:1;stroke:#000000;stroke-width:0.5;stroke-miterlimit:4;stroke-opacity:1;stroke-dasharray:none"
       d="m 20.588065,29.376548 c -4.213928,-0.687371 -4.2373,6.041596 -0.0187,5.383174 L 31.944304,32.10715 z"
       id="path4959-9-6-7"
       inkscape:connector-curvature="0"
       sodipodi:nodetypes="cccc"
       inkscape:transform-center-x="7.1019538"
       inkscape:transform-center-y="-0.0062697335" />
    <path
       style="fill:#712db3;fill-opacity:1;stroke:#000000;stroke-width:0.5;stroke-miterlimit:4;stroke-opacity:1;stroke-dasharray:none"
       d="m 20.75976,35.417963 c -3.989067,1.515087 -0.601752,7.340852 2.709853,4.660614 l 8.485108,-7.984876 z"
       id="path4959-4-8-6-2"
       inkscape:connector-curvature="0"
       sodipodi:nodetypes="cccc"
       inkscape:transform-center-y="4.3533056"
       inkscape:transform-center-x="6.5242807" />
    <path
       style="fill:#712db3;fill-opacity:1;stroke:#000000;stroke-width:0.5;stroke-miterlimit:4;stroke-opacity:1;stroke-dasharray:none"
       d="m 23.611235,23.963872 c -3.266966,-2.733847 -6.749886,3.035934 -2.786336,4.615824 l 11.138643,3.506258 z"
       id="path4959-46-5-0-7"
       inkscape:connector-curvature="0"
       sodipodi:nodetypes="cccc"
       inkscape:transform-center-y="-4.3838046"
       inkscape:transform-center-x="6.4842291" />
  </g>
</svg>
