<?xml version="1.0" encoding="UTF-8" standalone="no"?>
<!-- Created with Inkscape (http://www.inkscape.org/) -->

<svg
   xmlns:dc="http://purl.org/dc/elements/1.1/"
   xmlns:cc="http://creativecommons.org/ns#"
   xmlns:rdf="http://www.w3.org/1999/02/22-rdf-syntax-ns#"
   xmlns:svg="http://www.w3.org/2000/svg"
   xmlns="http://www.w3.org/2000/svg"
   xmlns:sodipodi="http://sodipodi.sourceforge.net/DTD/sodipodi-0.dtd"
   xmlns:inkscape="http://www.inkscape.org/namespaces/inkscape"
   width="32"
   height="32"
   id="svg4662"
   version="1.1"
   inkscape:version="0.48.3.1 r9886"
   sodipodi:docname="New document 25">
  <defs
     id="defs4664" />
  <sodipodi:namedview
     id="base"
     pagecolor="#ffffff"
     bordercolor="#666666"
     borderopacity="1.0"
     inkscape:pageopacity="0.0"
     inkscape:pageshadow="2"
     inkscape:zoom="11.2"
     inkscape:cx="22.460775"
     inkscape:cy="16.753749"
     inkscape:document-units="px"
     inkscape:current-layer="layer1"
     showgrid="false"
     fit-margin-top="0"
     fit-margin-left="0"
     fit-margin-right="0"
     fit-margin-bottom="0"
     inkscape:window-width="1920"
     inkscape:window-height="1138"
     inkscape:window-x="-8"
     inkscape:window-y="-8"
     inkscape:window-maximized="1" />
  <metadata
     id="metadata4667">
    <rdf:RDF>
      <cc:Work
         rdf:about="">
        <dc:format>image/svg+xml</dc:format>
        <dc:type
           rdf:resource="http://purl.org/dc/dcmitype/StillImage" />
        <dc:title></dc:title>
      </cc:Work>
    </rdf:RDF>
  </metadata>
  <g
     inkscape:label="Layer 1"
     inkscape:groupmode="layer"
     id="layer1"
     transform="translate(-312.49608,-443.81815)">
    <path
       style="fill:#ffffff;fill-opacity:1;stroke:#000000;stroke-width:1.05992627px;stroke-linecap:butt;stroke-linejoin:round;stroke-opacity:1;display:inline"
       d="m 317.83863,462.41186 0.13249,10.33428 c -0.14353,3.17978 2.7271,2.38484 5.13401,2.4842 l 12.04011,0.0662 c 4.41689,0.15671 3.62406,-2.63751 3.7755,-3.93024 l -3.2621,-12.43237 -15.36893,0.26498"
       id="path3893-5-4"
       inkscape:connector-curvature="0"
       sodipodi:nodetypes="ccccccc" />
    <path
       style="fill:#000000;fill-opacity:1;stroke:#000000;stroke-width:1.05992627px;stroke-linecap:butt;stroke-linejoin:round;stroke-opacity:1;display:inline"
       d="m 318.1131,462.12769 -0.0468,3.09162 9.97746,-0.0469 c 0.93686,-0.0937 1.87371,0.46843 2.10792,1.26476 l 0.0272,4.88277 3.23214,0.005 -0.21464,-11.11828 -15.22383,0.3279"
       id="path3902-7-2"
       inkscape:connector-curvature="0"
       sodipodi:nodetypes="cccccccc" />
    <path
       style="fill:#4296ff;fill-opacity:1;stroke:#000000;stroke-width:1.05992627px;stroke-linecap:butt;stroke-linejoin:round;stroke-opacity:1;display:inline"
       d="m 341.55448,458.47026 0.23185,12.88473 -9.90368,-0.0331 -0.12784,-5.57417 c 0.20726,-4.39147 -2.10087,-3.55989 -1.85952,-3.70024 l -15.09591,0.0388 c 1.31504,-17.2096 24.85339,-14.1565 26.7551,-3.61604 z"
       id="path3090-6-3"
       inkscape:connector-curvature="0"
       sodipodi:nodetypes="ccccccc" />
    <path
       sodipodi:type="arc"
       style="opacity:0.9792;fill:#000000;fill-opacity:1;stroke:#000000;stroke-width:0.30000001;stroke-linecap:butt;stroke-linejoin:round;stroke-miterlimit:4;stroke-opacity:1;stroke-dasharray:none;display:inline"
       id="path3860-1-2"
       sodipodi:cx="69.6875"
       sodipodi:cy="507.29968"
       sodipodi:rx="1.8125"
       sodipodi:ry="1.8125"
       d="m 71.5,507.29968 a 1.8125,1.8125 0 1 1 -3.625,0 1.8125,1.8125 0 1 1 3.625,0 z"
       transform="matrix(1.0599262,0,0,1.0599262,263.11993,-73.996593)" />
    <path
       style="fill:#4296ff;fill-opacity:1;stroke:#000000;stroke-width:1.05992627px;stroke-linecap:butt;stroke-linejoin:round;stroke-opacity:1;display:inline"
       d="m 321.4982,451.33614 0.01,-6.52448 3.9416,-0.0331 0.0371,5.25063 c -1.92323,0.35498 -2.75461,0.82919 -3.98844,1.30692 z"
       id="path3866-8-2"
       inkscape:connector-curvature="0"
       sodipodi:nodetypes="cccccc" />
    <path
       style="fill:#4296ff;fill-opacity:1;stroke:#000000;stroke-width:1.05992627px;stroke-linecap:butt;stroke-linejoin:round;stroke-opacity:1;display:inline"
       d="m 330.86555,454.26013 0,-9.43291 3.9416,-0.0331 0.0469,9.50053"
       id="path3866-7-9-1"
       inkscape:connector-curvature="0"
       sodipodi:nodetypes="cccc" />
  </g>
</svg>
