<?xml version="1.0" encoding="UTF-8" standalone="no"?>
<!-- Created with Inkscape (http://www.inkscape.org/) -->

<svg
   xmlns:dc="http://purl.org/dc/elements/1.1/"
   xmlns:cc="http://creativecommons.org/ns#"
   xmlns:rdf="http://www.w3.org/1999/02/22-rdf-syntax-ns#"
   xmlns:svg="http://www.w3.org/2000/svg"
   xmlns="http://www.w3.org/2000/svg"
   xmlns:xlink="http://www.w3.org/1999/xlink"
   xmlns:sodipodi="http://sodipodi.sourceforge.net/DTD/sodipodi-0.dtd"
   xmlns:inkscape="http://www.inkscape.org/namespaces/inkscape"
   width="32"
   height="33.407097"
   id="svg5214"
   version="1.1"
   inkscape:version="0.48.3.1 r9886"
   sodipodi:docname="New document 32">
  <defs
     id="defs5216">
    <linearGradient
       y2="170.23512"
       x2="245.549"
       y1="172.29468"
       x1="250.87894"
       gradientTransform="matrix(-1.2616786,0,0,1.2616786,738.57538,332.21621)"
       gradientUnits="userSpaceOnUse"
       id="linearGradient4294-9-0-8-1-9"
       xlink:href="#linearGradient4213-1-8-2-9-9-3"
       inkscape:collect="always" />
    <linearGradient
       id="linearGradient4213-1-8-2-9-9-3">
      <stop
         style="stop-color:#ffffff;stop-opacity:0.09821428;"
         offset="0"
         id="stop4215-4-3-0-0-5-1" />
      <stop
         style="stop-color:#ffffff;stop-opacity:0;"
         offset="1"
         id="stop4217-9-8-8-0-5-1" />
    </linearGradient>
    <linearGradient
       inkscape:collect="always"
       xlink:href="#linearGradient4213-9-2-7-4-9"
       id="linearGradient4241-6-9-0-7-9"
       x1="254.375"
       y1="161.87781"
       x2="252.39062"
       y2="158.90906"
       gradientUnits="userSpaceOnUse"
       gradientTransform="matrix(-1.2616786,0,0,1.2616786,740.56649,348.81934)" />
    <linearGradient
       id="linearGradient4213-9-2-7-4-9">
      <stop
         style="stop-color:#ffffff;stop-opacity:0.09821428;"
         offset="0"
         id="stop4215-8-8-2-7-5" />
      <stop
         style="stop-color:#ffffff;stop-opacity:0;"
         offset="1"
         id="stop4217-6-2-5-3-5" />
    </linearGradient>
    <linearGradient
       inkscape:collect="always"
       xlink:href="#linearGradient4213-1-4-2-5-2-0-6"
       id="linearGradient4930-5"
       gradientUnits="userSpaceOnUse"
       gradientTransform="matrix(-1.2616786,0,0,1.2616786,728.37462,332.20301)"
       x1="250.87894"
       y1="172.29468"
       x2="245.549"
       y2="170.23512" />
    <linearGradient
       id="linearGradient4213-1-4-2-5-2-0-6">
      <stop
         style="stop-color:#000000;stop-opacity:0.09821428;"
         offset="0"
         id="stop4215-4-5-3-5-1-8-0" />
      <stop
         style="stop-color:#000000;stop-opacity:0;"
         offset="1"
         id="stop4217-9-2-8-2-4-8-5" />
    </linearGradient>
  </defs>
  <sodipodi:namedview
     id="base"
     pagecolor="#ffffff"
     bordercolor="#666666"
     borderopacity="1.0"
     inkscape:pageopacity="0.0"
     inkscape:pageshadow="2"
     inkscape:zoom="15.839192"
     inkscape:cx="26.714769"
     inkscape:cy="18.251147"
     inkscape:document-units="px"
     inkscape:current-layer="layer1"
     showgrid="false"
     fit-margin-top="0"
     fit-margin-left="0"
     fit-margin-right="0"
     fit-margin-bottom="0"
     inkscape:window-width="1920"
     inkscape:window-height="1138"
     inkscape:window-x="-8"
     inkscape:window-y="-8"
     inkscape:window-maximized="1" />
  <metadata
     id="metadata5219">
    <rdf:RDF>
      <cc:Work
         rdf:about="">
        <dc:format>image/svg+xml</dc:format>
        <dc:type
           rdf:resource="http://purl.org/dc/dcmitype/StillImage" />
        <dc:title></dc:title>
      </cc:Work>
    </rdf:RDF>
  </metadata>
  <g
     inkscape:label="Layer 1"
     inkscape:groupmode="layer"
     id="layer1"
     transform="translate(-398.60683,-544.2179)">
    <path
       style="fill:#ffe0c6;fill-opacity:1;stroke:#000000;stroke-width:1.15224028px;stroke-linecap:butt;stroke-linejoin:round;stroke-opacity:1;display:inline"
       d="m 405.43383,560.34215 c -0.037,1.07279 0.29678,5.93766 0.2415,6.74334 -1.43986,0.91819 -1.00696,2.21084 0.125,2.82813 l 0,2.99103 c -0.0567,3.18532 2.68783,4.0128 5.53975,4.125 l 6.9375,0.0312 c 7.04389,-0.0491 9.78485,-2.66179 8.625,-14.40625 z"
       id="path3893-5-45-2-2-7-8-1-9"
       inkscape:connector-curvature="0"
       sodipodi:nodetypes="cccccccc" />
    <path
       style="fill:#000000;fill-opacity:1;stroke:#000000;stroke-width:1.01604033px;stroke-linecap:butt;stroke-linejoin:round;stroke-opacity:1;display:inline"
       d="m 405.85752,560.3143 -0.33394,4.46166 12.14732,-0.18137 c -0.53205,6.21859 2.8119,8.70657 8.27722,7.9274 1.17834,-5.51636 -5.161,-7.96678 -5.66115,-11.63714"
       id="path3902-7-5-1-6-6-6-5-4"
       inkscape:connector-curvature="0"
       sodipodi:nodetypes="ccccc" />
    <path
       style="fill:#4296ff;fill-opacity:1;stroke:#000000;stroke-width:1.15224028px;stroke-linecap:butt;stroke-linejoin:round;stroke-opacity:1;display:inline"
       d="m 408.71384,554.92448 0,-10.11811 4.0303,0 0,10.11811"
       id="path3866-7-9-5-1-7-2-7-4-2-6"
       inkscape:connector-curvature="0"
       sodipodi:nodetypes="cccc" />
    <path
       style="fill:url(#linearGradient4930-5);fill-opacity:1;stroke:none;display:inline"
       d="m 410.97103,545.39668 c -1.07578,-0.32717 -3.93178,7.41626 1.45211,7.15888 l -0.30714,-7.16702 z"
       id="path4211-8-9-7-8-6-3-3"
       inkscape:connector-curvature="0"
       sodipodi:nodetypes="cccc" />
    <path
       style="fill:#4296ff;fill-opacity:1;stroke:#000000;stroke-width:1.15224028px;stroke-linecap:round;stroke-linejoin:round;stroke-opacity:1;display:inline"
       d="m 428.26345,558.08857 c 0.94878,2.35477 3.20308,13.73023 -3.41869,13.65974 -3.76033,-0.0138 -6.46814,-1.71322 -4.45666,-10.15978 l -21.22715,-0.0301 5.31222,-2.82261 c 3.05353,-13.23311 20.4468,-10.98706 23.79028,-0.64725 z"
       id="path3090-6-4-1-2-5-7-8-2-4"
       inkscape:connector-curvature="0"
       sodipodi:nodetypes="cccccc" />
    <path
       style="fill:url(#linearGradient4241-6-9-0-7-9);fill-opacity:1;stroke:none;display:inline"
       d="m 406.90241,554.60997 c 5.01635,-4.0587 13.75539,-5.12733 20.54638,3.12579 -3.97978,-10.4827 -16.95664,-9.03266 -20.54638,-3.12579 z"
       id="path4211-7-8-9-4-9"
       inkscape:connector-curvature="0"
       sodipodi:nodetypes="ccc" />
    <path
       style="fill:#4296ff;fill-opacity:1;stroke:#000000;stroke-width:1.15224028px;stroke-linecap:butt;stroke-linejoin:round;stroke-opacity:1;display:inline"
       d="m 418.72419,554.61171 0,-9.79405 4.18306,0.0509 0,9.79404"
       id="path3866-7-9-7-6-8-1-8-6-0"
       inkscape:connector-curvature="0"
       sodipodi:nodetypes="cccc" />
    <path
       sodipodi:type="arc"
       style="opacity:0.9792;fill:#000000;fill-opacity:1;stroke:#000000;stroke-width:0.30000001;stroke-linecap:butt;stroke-linejoin:round;stroke-miterlimit:4;stroke-opacity:1;stroke-dasharray:none;display:inline"
       id="path3860-1-1-4-2-6-3-6-5"
       sodipodi:cx="69.6875"
       sodipodi:cy="507.29968"
       sodipodi:rx="1.509469"
       sodipodi:ry="1.8125"
       d="m 71.196969,507.29968 a 1.509469,1.8125 0 1 1 -3.018938,0 1.509469,1.8125 0 1 1 3.018938,0 z"
       transform="matrix(-1.0249905,0,0,0.85362289,496.04907,133.93433)" />
    <path
       style="fill:url(#linearGradient4294-9-0-8-1-9);fill-opacity:1;stroke:none;display:inline"
       d="m 419.23273,545.40025 c 3.53487,0.01 2.07202,2.59857 3.08472,9.23895 l -7e-4,-9.23747 z"
       id="path4211-8-7-0-5-6-3"
       inkscape:connector-curvature="0"
       sodipodi:nodetypes="cccc" />
    <path
       style="fill:#000000;fill-opacity:0.23350256;stroke:none;display:inline"
       d="m 402.35968,561.02571 c 2.46577,-0.0548 13.94699,0.023 17.9692,-0.004 -1.18597,-0.76457 -13.73487,-1.44174 -17.9692,0.004 z"
       id="path4427-9-5-2-9"
       inkscape:connector-curvature="0"
       sodipodi:nodetypes="ccc" />
    <path
       style="fill:#000000;fill-opacity:0.26903549;stroke:none;display:inline"
       d="m 420.35235,565.11408 c -0.53119,4.15194 1.17339,5.79908 2.88648,5.92625 1.13401,0.20457 3.19412,0.38338 3.92322,-0.56933 -4.44918,0.60955 -6.02575,-0.8698 -6.8097,-5.35692 z"
       id="path4429-5-1-9-1"
       inkscape:connector-curvature="0"
       sodipodi:nodetypes="cccc" />
    <path
       style="fill:#ffffff;fill-opacity:0.3174603;stroke:none"
       d="m 407.46823,575.5739 c 2.01558,1.31061 10.21699,1.00106 13.66351,0.67667 2.51232,-0.49688 3.61925,-1.56228 4.27542,-2.66683 -1.4468,0.97143 -1.68114,1.19516 -4.48123,1.84572 -2.51694,0.64883 -8.85718,0.64539 -13.4577,0.14444 z"
       id="path4942-2"
       inkscape:connector-curvature="0"
       sodipodi:nodetypes="ccccc" />
  </g>
</svg>
