<?xml version="1.0" encoding="UTF-8" standalone="no"?>
<!-- Created with Inkscape (http://www.inkscape.org/) -->

<svg
   xmlns:dc="http://purl.org/dc/elements/1.1/"
   xmlns:cc="http://creativecommons.org/ns#"
   xmlns:rdf="http://www.w3.org/1999/02/22-rdf-syntax-ns#"
   xmlns:svg="http://www.w3.org/2000/svg"
   xmlns="http://www.w3.org/2000/svg"
   xmlns:sodipodi="http://sodipodi.sourceforge.net/DTD/sodipodi-0.dtd"
   xmlns:inkscape="http://www.inkscape.org/namespaces/inkscape"
   width="64px"
   height="64px"
   id="svg15601"
   version="1.1"
   inkscape:version="0.48.3.1 r9886"
   sodipodi:docname="jetpack-flames.svg">
  <defs
     id="defs15603" />
  <sodipodi:namedview
     id="base"
     pagecolor="#ffffff"
     bordercolor="#666666"
     borderopacity="1.0"
     inkscape:pageopacity="0.0"
     inkscape:pageshadow="2"
     inkscape:zoom="7.7781746"
     inkscape:cx="11.945671"
     inkscape:cy="56.935322"
     inkscape:current-layer="layer1"
     showgrid="true"
     inkscape:document-units="px"
     inkscape:grid-bbox="true"
     inkscape:window-width="1920"
     inkscape:window-height="1138"
     inkscape:window-x="-8"
     inkscape:window-y="-8"
     inkscape:window-maximized="1" />
  <metadata
     id="metadata15606">
    <rdf:RDF>
      <cc:Work
         rdf:about="">
        <dc:format>image/svg+xml</dc:format>
        <dc:type
           rdf:resource="http://purl.org/dc/dcmitype/StillImage" />
        <dc:title></dc:title>
      </cc:Work>
    </rdf:RDF>
  </metadata>
  <g
     id="layer1"
     inkscape:label="Layer 1"
     inkscape:groupmode="layer">
    <path
       style="fill:#ff0000;fill-opacity:1;stroke:none"
       d="m 3.8862403,1.188948 c -2.20177,0.39603 -2.88246,5.82654 -3.25,7.25 -0.22623,1.68095 0.81589,2.21557 1.3125,3.0625 0.67159,-1.8298 1.39813,-3.50391 2.5625,-3.9375 0.40311,3.42224 -0.49884,5.3763 -0.75,8.0625 1.80987,-2.30723 3.91923,-4.68313 5.80936,-7.15089 0.24798,1.91465 0.0834,3.81444 0.25314,5.65089 0.0791,1.29143 -0.34406,1.32735 -0.5625,1.875 2.5768307,-1.25902 2.7937407,-2.23822 3.8125007,-3.3125 0.83273,-1.85376 1.55852,-11.70991999 -1.34375,-11.81249999 z"
       id="path15080"
       inkscape:connector-curvature="0"
       sodipodi:nodetypes="ccccccccccc" />
    <path
       style="fill:#ff8800;fill-opacity:1;stroke:none"
       d="M 5.9847563,0.55066074 C 3.5148617,1.2212668 2.20655,4.5870058 3.0204701,6.9538691 3.4280686,5.8721811 5.0823274,4.7936785 5.711276,4.5736364 5.9320341,6.447783 6.1098238,8.0776755 5.9722792,9.5487394 6.9570408,8.3203637 8.8264615,6.4115532 9.9487399,4.5806631 10.715914,7.642675 11.150984,8.9031009 11.286714,11.445365 13.098024,10.130533 13.346751,0.32226069 10.280287,0.37952404 z"
       id="path15080-5"
       inkscape:connector-curvature="0"
       sodipodi:nodetypes="cccccccc" />
    <path
       style="fill:#ffd500;fill-opacity:1;stroke:none"
       d="M 6.9188396,0.40987259 C 5.3135545,0.8457267 3.6019194,2.877624 3.808148,4.5488504 4.3009016,3.6939251 6.1044758,3.1675821 6.5132547,3.0245678 6.9032764,3.8669446 6.8977116,5.188066 6.8652751,6.2580893 7.7141639,5.3268123 9.3106891,4.0905397 10.040103,2.9005699 c 0.64617,1.1751957 1.423452,3.513556 1.511669,5.165877 1.328003,-1.8919704 0.151927,-7.80502074 -1.8410935,-7.767803 z"
       id="path15080-5-2"
       inkscape:connector-curvature="0"
       sodipodi:nodetypes="cccccccc" />
    <path
       style="fill:none;stroke:#000000;stroke-width:0.775;stroke-linecap:butt;stroke-linejoin:miter;stroke-opacity:1;stroke-miterlimit:4;stroke-dasharray:none"
       d="m 3.9095697,1.0171291 c -2.20177,0.39603 -2.88246,5.82654 -3.24999997,7.25 -0.22623,1.68095 0.81588997,2.2155699 1.31249997,3.0624999 0.67159,-1.8297999 1.39813,-3.5039099 2.5625,-3.9374999 0.40311,3.4222399 -0.49884,5.3762999 -0.75,8.0624999 1.80987,-2.30723 3.91923,-4.68313 5.80936,-7.1508899 -0.023297,2.5449309 0.8396423,5.4696059 -0.30936,7.5258899 2.5768303,-1.25902 3.0437403,-1.897311 3.8125003,-3.3125 0.832729,-1.85376 1.558519,-11.70991995 -1.34375,-11.81249995 z"
       id="path15080-3"
       inkscape:connector-curvature="0"
       sodipodi:nodetypes="cccccccccc" />
  </g>
</svg>
