<?xml version="1.0" encoding="UTF-8" standalone="no"?>
<!-- Created with Inkscape (http://www.inkscape.org/) -->

<svg
   xmlns:dc="http://purl.org/dc/elements/1.1/"
   xmlns:cc="http://creativecommons.org/ns#"
   xmlns:rdf="http://www.w3.org/1999/02/22-rdf-syntax-ns#"
   xmlns:svg="http://www.w3.org/2000/svg"
   xmlns="http://www.w3.org/2000/svg"
   xmlns:sodipodi="http://sodipodi.sourceforge.net/DTD/sodipodi-0.dtd"
   xmlns:inkscape="http://www.inkscape.org/namespaces/inkscape"
   width="744.09448819"
   height="1052.3622047"
   id="svg9514"
   version="1.1"
   inkscape:version="0.48.3.1 r9886"
   sodipodi:docname="New document 20">
  <defs
     id="defs9516" />
  <sodipodi:namedview
     id="base"
     pagecolor="#ffffff"
     bordercolor="#666666"
     borderopacity="1.0"
     inkscape:pageopacity="0.0"
     inkscape:pageshadow="2"
     inkscape:zoom="3.959798"
     inkscape:cx="202.48874"
     inkscape:cy="929.84495"
     inkscape:document-units="px"
     inkscape:current-layer="layer1"
     showgrid="false"
     inkscape:window-width="1920"
     inkscape:window-height="1138"
     inkscape:window-x="-8"
     inkscape:window-y="-8"
     inkscape:window-maximized="1" />
  <metadata
     id="metadata9519">
    <rdf:RDF>
      <cc:Work
         rdf:about="">
        <dc:format>image/svg+xml</dc:format>
        <dc:type
           rdf:resource="http://purl.org/dc/dcmitype/StillImage" />
        <dc:title></dc:title>
      </cc:Work>
    </rdf:RDF>
  </metadata>
  <g
     inkscape:label="Layer 1"
     inkscape:groupmode="layer"
     id="layer1">
    <g
       transform="translate(-694.64701,-189.79181)"
       id="g9465">
      <path
         sodipodi:nodetypes="ccccccccc"
         inkscape:connector-curvature="0"
         id="path5786-3"
         d="m 763.19501,195.21683 27.63969,43.76284 0,34.5496 -33.39796,11.51654 -40.30787,-14.9715 -9.21323,-27.63968 12.66819,-20.72976 10.36488,-17.27481 z"
         style="fill:#777777;fill-opacity:1;stroke:#000000;stroke-width:1px;stroke-linecap:butt;stroke-linejoin:miter;stroke-opacity:1" />
      <path
         sodipodi:nodetypes="ccc"
         inkscape:connector-curvature="0"
         id="path4003"
         d="m 721.59196,259.01534 35.75,15.625 23.75,-9.25"
         style="fill:none;stroke:#000000;stroke-width:1px;stroke-linecap:butt;stroke-linejoin:miter;stroke-opacity:0.48677248" />
      <path
         sodipodi:nodetypes="ccccccc"
         inkscape:connector-curvature="0"
         id="path4144"
         d="m 717.52991,269.70015 -0.91565,-2.72288 40.94998,15.10892 32.8572,-10.86827 -0.076,1.97853 -32.73831,11.37825 z"
         style="fill:#000000;fill-opacity:0.42857145;stroke:none" />
    </g>
    <g
       transform="matrix(-0.26927968,1.2566725,-1.3563835,-0.24948429,773.99455,-917.0676)"
       id="g9470">
      <path
         sodipodi:nodetypes="cccccccccc"
         inkscape:connector-curvature="0"
         id="path5788-2"
         d="m 900.2022,347.176 3.37025,19.76787 19.54338,1.34713 21.56517,2.69487 13.92722,-6.29031 7.41193,-30.1015 -17.74702,-21.56445 -24.26055,4.26895 -11.00664,15.05101 z"
         style="fill:#b6b5b9;fill-opacity:1;stroke:#000000;stroke-width:0.703282px;stroke-linecap:butt;stroke-linejoin:miter;stroke-opacity:1" />
      <path
         inkscape:connector-curvature="0"
         id="path4124"
         d="m 906.52963,346.55089 19.26866,-25.27906 20.50609,-3.88909 10.78338,12.9047"
         style="fill:none;stroke:#000000;stroke-width:1px;stroke-linecap:butt;stroke-linejoin:miter;stroke-opacity:0.47619048" />
      <path
         sodipodi:nodetypes="ccccccccc"
         inkscape:connector-curvature="0"
         id="path4146"
         d="m 948.13846,313.27267 -2.55882,0.53413 17.22722,21.50738 -6.71919,27.63116 -16.16933,7.22732 4.70669,0.95018 13.72229,-6.62912 7.31413,-29.96365 z"
         style="fill:#000000;fill-opacity:0.50264551;stroke:none" />
    </g>
    <g
       transform="matrix(0.66809267,0.2445317,-0.23164067,0.70527269,-25.663251,-282.87677)"
       id="g9446">
      <path
         inkscape:export-ydpi="370.55069"
         inkscape:export-xdpi="370.55069"
         inkscape:export-filename="C:\Users\Nate\Documents\Java\workspace\offworld-android\raw\tut-progress\path3973.png"
         sodipodi:nodetypes="cccccccccc"
         inkscape:connector-curvature="0"
         id="path5927-5"
         d="m 427.62259,327.07564 1.5258,18.93216 6.2057,3.98341 11.8393,0.86727 9.0846,-5.49598 9.078,-7.31687 -4.6022,-13.64023 -9.1245,-5.4295 -13.0946,4.41804 z"
         style="fill:#777777;fill-opacity:1;stroke:#000000;stroke-width:1px;stroke-linecap:butt;stroke-linejoin:miter;stroke-opacity:1" />
      <path
         inkscape:export-ydpi="370.55069"
         inkscape:export-xdpi="370.55069"
         inkscape:export-filename="C:\Users\Nate\Documents\Java\workspace\offworld-android\raw\tut-progress\path3973.png"
         inkscape:connector-curvature="0"
         id="path4001"
         d="m 433.38689,342.04308 -1.0607,-7.86657 1.591,-5.03813 10.1646,-3.35876"
         style="fill:none;stroke:#000000;stroke-width:1px;stroke-linecap:butt;stroke-linejoin:miter;stroke-opacity:0.43915345" />
      <path
         inkscape:export-ydpi="370.55069"
         inkscape:export-xdpi="370.55069"
         inkscape:export-filename="C:\Users\Nate\Documents\Java\workspace\offworld-android\raw\tut-progress\path3973.png"
         sodipodi:nodetypes="ccccccccc"
         inkscape:connector-curvature="0"
         id="path4928"
         d="m 435.57449,349.51188 11.1148,-0.59662 8.563,-4.7799 7.6563,-6.5559 -2.5633,-12.8826 4.5078,13.19196 -8.4411,6.98267 -9.2365,5.61266 z"
         style="fill:#000000;fill-opacity:0.50264551;stroke:none" />
    </g>
    <g
       id="g9619"
       transform="matrix(0.482881,0.87568598,-0.87568598,0.482881,115.66357,-132.08781)">
      <path
         sodipodi:nodetypes="cccccccccc"
         inkscape:connector-curvature="0"
         id="path5786-3-7"
         d="m 192.39026,53.285473 11.85177,14.204558 0.35714,20.875772 -19.28369,6.839547 -12.07395,0.792573 -11.19946,-9.683983 -5.31963,-16.414903 7.3145,-12.311178 15.2703,-5.437892 z"
         style="fill:#777777;fill-opacity:1;stroke:#000000;stroke-width:0.58558202px;stroke-linecap:butt;stroke-linejoin:miter;stroke-opacity:1" />
      <path
         sodipodi:nodetypes="cccc"
         inkscape:connector-curvature="0"
         id="path4003-6"
         d="m 180.69045,55.460425 -7.75112,2.31523 -6.80419,3.592549 -4.12563,6.806834"
         style="fill:none;stroke:#000000;stroke-width:0.58558202px;stroke-linecap:butt;stroke-linejoin:miter;stroke-opacity:0.48677248" />
      <path
         sodipodi:nodetypes="ccccccc"
         inkscape:connector-curvature="0"
         id="path4144-9"
         d="m 204.55454,88.530797 -1.99905,0.469615 -0.0473,-20.85576 -12.41032,-15.031011 2.32025,0.180485 11.63515,14.00722 z"
         style="fill:#000000;fill-opacity:0.42857145;stroke:none" />
    </g>
  </g>
</svg>
