<?xml version="1.0" encoding="UTF-8" standalone="no"?>
<!-- Created with Inkscape (http://www.inkscape.org/) -->

<svg
   xmlns:dc="http://purl.org/dc/elements/1.1/"
   xmlns:cc="http://creativecommons.org/ns#"
   xmlns:rdf="http://www.w3.org/1999/02/22-rdf-syntax-ns#"
   xmlns:svg="http://www.w3.org/2000/svg"
   xmlns="http://www.w3.org/2000/svg"
   xmlns:xlink="http://www.w3.org/1999/xlink"
   xmlns:sodipodi="http://sodipodi.sourceforge.net/DTD/sodipodi-0.dtd"
   xmlns:inkscape="http://www.inkscape.org/namespaces/inkscape"
   width="744.09448819"
   height="1052.3622047"
   id="svg3625"
   version="1.1"
   inkscape:version="0.48.3.1 r9886"
   sodipodi:docname="tulip-touchup2.svg"
   inkscape:export-filename="C:\Users\Nate\Documents\Java\workspace\offworld-android\raw\tulip-touchup.png"
   inkscape:export-xdpi="320"
   inkscape:export-ydpi="320">
  <defs
     id="defs3627">
    <linearGradient
       id="linearGradient3954">
      <stop
         style="stop-color:#ffffff;stop-opacity:1;"
         offset="0"
         id="stop3956" />
      <stop
         style="stop-color:#ffffff;stop-opacity:0;"
         offset="1"
         id="stop3958" />
    </linearGradient>
    <radialGradient
       inkscape:collect="always"
       xlink:href="#linearGradient3954"
       id="radialGradient7322"
       gradientUnits="userSpaceOnUse"
       gradientTransform="matrix(0.58686083,0.37379258,-0.80670522,1.2665412,911.39314,-379.50331)"
       cx="331.27917"
       cy="960.11371"
       fx="331.27917"
       fy="960.11371"
       r="8.9856179" />
    <radialGradient
       inkscape:collect="always"
       xlink:href="#linearGradient3954"
       id="radialGradient7586"
       gradientUnits="userSpaceOnUse"
       gradientTransform="matrix(0.89238234,0.56839012,-1.2266784,1.9259063,1219.9041,-1266.0143)"
       cx="331.27917"
       cy="960.11371"
       fx="331.27917"
       fy="960.11371"
       r="8.9856179" />
  </defs>
  <sodipodi:namedview
     id="base"
     pagecolor="#ffffff"
     bordercolor="#666666"
     borderopacity="1.0"
     inkscape:pageopacity="0.0"
     inkscape:pageshadow="2"
     inkscape:zoom="5.6568543"
     inkscape:cx="393.75"
     inkscape:cy="232.13961"
     inkscape:document-units="px"
     inkscape:current-layer="layer3"
     showgrid="false"
     inkscape:window-width="1920"
     inkscape:window-height="1138"
     inkscape:window-x="-8"
     inkscape:window-y="-8"
     inkscape:window-maximized="1"
     showguides="false"
     inkscape:snap-global="true"
     inkscape:guide-bbox="true">
    <inkscape:grid
       type="xygrid"
       id="grid5317" />
  </sodipodi:namedview>
  <metadata
     id="metadata3630">
    <rdf:RDF>
      <cc:Work
         rdf:about="">
        <dc:format>image/svg+xml</dc:format>
        <dc:type
           rdf:resource="http://purl.org/dc/dcmitype/StillImage" />
        <dc:title></dc:title>
      </cc:Work>
    </rdf:RDF>
  </metadata>
  <g
     inkscape:label="image"
     inkscape:groupmode="layer"
     id="layer1"
     style="display:none" />
  <g
     inkscape:groupmode="layer"
     id="layer2"
     inkscape:label="tulip"
     style="display:inline">
    <g
       id="g3945"
       transform="matrix(0.67185446,0,0,0.67185446,136.96859,115.73422)">
      <path
         sodipodi:nodetypes="ccccccc"
         inkscape:connector-curvature="0"
         id="path5115"
         d="m 368.83104,1087.7815 0.34327,-548.03966 c 1.72141,-2.15175 2.42356,-4.43941 2.71801,-8.56172 0.3624,-8.78822 -7.86456,-19.82794 -10.35606,-28.82002 l -5.3422,7.07488 2.56133,581.02142 c 3.94128,0.3682 8.58724,3.2787 10.07565,-2.6749 z"
         style="fill:#269300;fill-opacity:1;stroke:#000000;stroke-width:0.76876861px;stroke-linecap:butt;stroke-linejoin:miter;stroke-opacity:1" />
      <path
         sodipodi:nodetypes="ccccc"
         inkscape:connector-curvature="0"
         id="path5315"
         d="m 350.97003,1090.7583 c 0,5.9537 16.3726,5.9537 16.3726,0 l -5.51217,-7.5774 -9.24123,-0.1359 z"
         style="fill:#268200;fill-opacity:1;stroke:#000000;stroke-width:1.1163132;stroke-linecap:butt;stroke-linejoin:miter;stroke-opacity:1;stroke-miterlimit:4;stroke-dasharray:none" />
      <path
         sodipodi:nodetypes="cccccccccc"
         inkscape:connector-curvature="0"
         id="path4603"
         d="m 367.6859,538.25342 c 2.32564,-2.1396 3.30697,-9.67673 1.09374,-15.02348 -3.54775,-8.94034 -6.58676,-13.2795 -9.11676,-16.70307 -4.89241,-12.27633 -6.45862,-13.62644 -13.11774,-23.86426 -2.55215,-3.56435 -7.15773,-12.73878 -9.775,-14.55053 8.16168,20.31992 11.66101,43.17134 12.1031,62.65404 -0.004,4.62425 1.19837,7.13094 2.44006,7.4873 l -0.34327,552.50488 c 2.3103,-0.6795 13.38279,-1.0872 16.3726,0 z"
         style="fill:#269300;fill-opacity:1;stroke:#000000;stroke-width:1.1163132;stroke-linecap:round;stroke-linejoin:round;stroke-opacity:1;stroke-miterlimit:4;stroke-dasharray:none" />
    </g>
    <path
       style="fill:#269300;fill-opacity:1;stroke:#000000;stroke-width:0.51650059px;stroke-linecap:round;stroke-linejoin:round;stroke-opacity:1"
       d="m 268.71355,309.58639 c -0.14353,4.75548 0.58035,8.87182 3.17598,13.6273 6.45395,11.44349 15.00791,20.69568 25.38798,30.31308 -0.21394,3.43162 -0.33714,7.0218 1.00111,7.34905 0.33992,4.17474 23.55102,14.59115 30.71288,25.96982 l 6.06888,-11.16932 c -19.51341,-16.97775 -52.67697,-41.71645 -66.34683,-66.08993 z"
       id="path5139"
       inkscape:connector-curvature="0"
       sodipodi:nodetypes="ccccccc" />
    <path
       style="fill:#26a900;fill-opacity:1;stroke:#000000;stroke-width:0.75;stroke-linecap:round;stroke-linejoin:round;stroke-opacity:1;stroke-miterlimit:4;stroke-dasharray:none"
       d="M 376.01811,452.46185 364.79219,434.5466 c -8.64357,-6.3305 -18.4003,-15.95966 -23.93948,-23.38583 -6.3305,-8.27834 -10.10446,-24.40894 -18.99151,-35.79166 -5.53918,-5.05223 -14.46086,-6.39227 -22.32833,-12.67712 -6.13301,-5.18616 -4.08933,-17.45363 -10.35895,-24.94066 -4.7991,-6.7801 -8.83311,-12.48137 -15.08764,-19.00459 -2.73961,-2.96809 -4.47149,-5.39417 -5.36474,-9.30005 9.51378,15.46406 27.41136,18.60257 42.69187,29.11642 14.38732,9.26611 23.3811,17.02102 34.22889,27.65708 21.32752,20.5025 22.59767,34.75008 31.73252,56.44505 l 2.37394,31.77424 z"
       id="path5137"
       inkscape:connector-curvature="0"
       sodipodi:nodetypes="ccccccccccccc" />
    <path
       style="fill:#26a900;fill-opacity:1;stroke:#000000;stroke-width:0.75;stroke-linecap:round;stroke-linejoin:round;stroke-miterlimit:4;stroke-opacity:1;stroke-dasharray:none"
       d="m 372.01697,380.79112 c 7.01331,-66.91852 28.5102,-63.56071 43.29149,-100.79289 2.78103,-14.25314 14.39339,-10.90427 16.20427,-15.40867 0.51616,2.72228 -0.43368,3.31831 -2.28716,5.2165 -7.96115,13.53079 -10.17203,30.37228 -11.08779,40.9844 -2.31343,22.64171 -8.12168,34.40286 -12.97425,52.80608 -6.00427,22.08882 -11.87223,48.26689 -21.18407,63.90516 l -1.32053,35.04617 c -1.69215,-3.78829 -5.09104,-7.70222 -6.74926,-10.2405 l 0.82317,-26.09326 c -2.11375,-4.88843 -7.34745,-29.97873 -4.71587,-45.42299 z"
       id="path4581"
       inkscape:connector-curvature="0"
       sodipodi:nodetypes="ccccccccccc" />
    <path
       style="fill:#26a900;fill-opacity:1;stroke:#000000;stroke-width:0.95;stroke-linecap:butt;stroke-linejoin:miter;stroke-opacity:1;display:inline;stroke-miterlimit:4;stroke-dasharray:none"
       d="m 333.47406,274.39898 c 7.77362,4.84546 13.99813,0.30607 18.98288,-0.44099 11.8282,36.60227 17.17367,50.78723 25.07694,149.72937 l 5.54049,0.11053 c -6.01009,-119.06467 -15.39359,-122.09752 -22.92681,-152.38162 3.41534,-2.90869 10.11859,-1.26366 14.44998,-10.24855 z"
       id="path4530"
       inkscape:connector-curvature="0"
       sodipodi:nodetypes="ccccccc" />
    <path
       style="fill:#26a900;fill-opacity:1;stroke:#000000;stroke-width:0.75;stroke-linecap:round;stroke-linejoin:round;stroke-opacity:1;display:inline;stroke-miterlimit:4;stroke-dasharray:none"
       d="m 377.73344,425.53713 c -3.41257,-11.2496 -2.80076,-21.24127 -2.41847,-34.74189 -0.0492,-45.18506 19.84372,-65.69729 18.24501,-97.09707 -0.21993,-3.56829 -0.37653,-6.06207 -1.39219,-8.6716 10.12184,8.54019 10.09793,37.90754 10.92601,49.68963 1.73629,37.0248 -9.77175,62.62759 -20.26109,90.44327"
       id="path4550"
       inkscape:connector-curvature="0"
       sodipodi:nodetypes="cccccc" />
    <path
       style="fill:none;stroke:#000000;stroke-width:0.51650059px;stroke-linecap:round;stroke-linejoin:round;stroke-opacity:1"
       d="m 308.70313,346.77948 c 0.17934,4.77926 3.56128,11.3059 15.13737,17.14625 19.49138,9.81577 44.69903,58.67058 51.68539,87.11262"
       id="path5141"
       inkscape:connector-curvature="0"
       sodipodi:nodetypes="ccc" />
    <path
       style="fill:none;stroke:#000000;stroke-width:0.51650059px;stroke-linecap:round;stroke-linejoin:round;stroke-opacity:1"
       d="m 319.48727,355.28195 c 35.85254,23.52632 50.63933,61.79242 56.04379,95.9994"
       id="path5143"
       inkscape:connector-curvature="0"
       sodipodi:nodetypes="cc" />
    <path
       style="fill:none;stroke:#000000;stroke-width:0.51650059px;stroke-linecap:round;stroke-linejoin:round;stroke-opacity:1"
       d="m 343.59187,393.99538 c -2.23317,12.60827 16.1769,17.30195 22.9328,31.16693"
       id="path5145"
       inkscape:connector-curvature="0"
       sodipodi:nodetypes="cc" />
    <path
       style="fill:none;stroke:#000000;stroke-width:0.51650059px;stroke-linecap:round;stroke-linejoin:round;stroke-opacity:1"
       d="m 340.85271,396.64324 c -0.57827,12.84361 21.80709,16.91782 27.44967,32.7673"
       id="path5147"
       inkscape:connector-curvature="0"
       sodipodi:nodetypes="cc" />
    <path
       style="fill:none;stroke:#000000;stroke-width:0.51650059px;stroke-linecap:round;stroke-linejoin:round;stroke-opacity:1"
       d="m 353.90936,382.94744 c 10.70682,14.55637 19.65639,36.37615 21.44046,67.48758"
       id="path5149"
       inkscape:connector-curvature="0"
       sodipodi:nodetypes="cc" />
    <path
       style="fill:none;stroke:#000000;stroke-width:0.51650059px;stroke-linecap:round;stroke-linejoin:miter;stroke-opacity:1"
       d="m 371.29977,414.73275 c 3.94017,1.77995 2.95606,21.33343 5.14137,22.69774"
       id="path5151"
       inkscape:connector-curvature="0"
       sodipodi:nodetypes="cc" />
    <path
       style="fill:none;stroke:#000000;stroke-width:0.51650059px;stroke-linecap:round;stroke-linejoin:round;stroke-opacity:1"
       d="m 320.74625,374.43078 c 5.5381,4.18999 9.73023,12.26712 15.66003,12.59866"
       id="path5153"
       inkscape:connector-curvature="0"
       sodipodi:nodetypes="cc" />
    <path
       style="fill:none;stroke:#000000;stroke-width:0.51650059px;stroke-linecap:round;stroke-linejoin:miter;stroke-opacity:1"
       d="m 285.83345,333.06248 c 7.38923,11.81027 20.45618,20.3185 19.66868,29.35773"
       id="path5155"
       inkscape:connector-curvature="0"
       sodipodi:nodetypes="cc" />
    <path
       style="fill:none;stroke:#000000;stroke-width:0.51650059px;stroke-linecap:round;stroke-linejoin:miter;stroke-opacity:1"
       d="m 379.77205,425.14584 c 4.04206,-22.86674 15.60369,-68.45151 11.12067,-88.22178"
       id="path5157"
       inkscape:connector-curvature="0"
       sodipodi:nodetypes="cc" />
    <path
       style="fill:none;stroke:#000000;stroke-width:0.51650059px;stroke-linecap:round;stroke-linejoin:round;stroke-opacity:1"
       d="m 397.36236,309.60491 c 6.19014,31.95424 -5.54156,82.94454 -17.63462,115.41981"
       id="path5159"
       inkscape:connector-curvature="0"
       sodipodi:nodetypes="cc" />
    <path
       style="fill:none;stroke:#000000;stroke-width:0.51650059px;stroke-linecap:round;stroke-linejoin:round;stroke-opacity:1"
       d="m 403.01567,332.50794 c 13.61519,-25.07302 9.03211,-44.89726 25.43582,-61.81709"
       id="path5161"
       inkscape:connector-curvature="0"
       sodipodi:nodetypes="cc" />
    <path
       style="fill:none;stroke:#000000;stroke-width:0.75;stroke-linecap:round;stroke-linejoin:round;stroke-opacity:1;stroke-miterlimit:4;stroke-dasharray:none"
       d="m 413.89476,283.30488 c 3.31257,-9.10783 12.07244,-10.22909 15.42504,-13.60401"
       id="path5163"
       inkscape:connector-curvature="0"
       sodipodi:nodetypes="cc" />
    <path
       style="fill:none;stroke:#000000;stroke-width:0.51650059px;stroke-linecap:round;stroke-linejoin:round;stroke-opacity:1"
       d="m 378.29335,426.42752 c 0.57161,1.04652 -0.0995,1.3401 0.60893,2.38125"
       id="path5165"
       inkscape:connector-curvature="0"
       sodipodi:nodetypes="cc" />
    <path
       style="fill:none;stroke:#000000;stroke-width:0.51650059px;stroke-linecap:round;stroke-linejoin:round;stroke-opacity:1"
       d="m 380.55783,426.66293 -0.2417,4.33915"
       id="path5167"
       inkscape:connector-curvature="0"
       sodipodi:nodetypes="cc" />
    <path
       style="fill:none;stroke:#000000;stroke-width:0.51650059px;stroke-linecap:round;stroke-linejoin:round;stroke-opacity:1"
       d="m 382.29132,426.58649 c -0.59547,1.12185 0.0525,1.18813 -0.49908,2.26258"
       id="path5169"
       inkscape:connector-curvature="0"
       sodipodi:nodetypes="cc" />
    <path
       style="fill:none;stroke:#000000;stroke-width:0.51650059px;stroke-linecap:round;stroke-linejoin:miter;stroke-opacity:1"
       d="m 374.16884,478.10554 0,1.96307"
       id="path5171"
       inkscape:connector-curvature="0"
       sodipodi:nodetypes="cc" />
    <path
       style="fill:none;stroke:#000000;stroke-width:0.51650059px;stroke-linecap:round;stroke-linejoin:miter;stroke-opacity:1"
       d="m 375.74369,478.23349 -0.005,5.72025"
       id="path5173"
       inkscape:connector-curvature="0"
       sodipodi:nodetypes="cc" />
    <path
       style="fill:none;stroke:#000000;stroke-width:0.51650059px;stroke-linecap:round;stroke-linejoin:miter;stroke-opacity:1"
       d="m 377.45582,478.31548 0,3.60656"
       id="path5175"
       inkscape:connector-curvature="0"
       sodipodi:nodetypes="cc" />
    <path
       style="fill:#d10000;fill-opacity:1;stroke:#000000;stroke-width:0.81596887px;stroke-linecap:butt;stroke-linejoin:miter;stroke-opacity:1;display:inline"
       d="m 338.81169,170.64761 c 1.35744,-7.20459 9.05581,-12.00969 12.60375,-12.04043 -1.48709,7.22461 10.8485,20.69231 11.99506,28.01706 l 18.03191,3.2925 c 3.46813,5.33622 4.719,14.38594 5.22967,22.03676 0.61534,9.31468 0.3776,17.68628 -1.18354,26.15057 -1.06208,5.91679 -5.08117,16.69774 -9.32909,20.94898 z"
       id="path4465"
       inkscape:connector-curvature="0"
       sodipodi:nodetypes="cccccccc" />
    <path
       style="fill:#d10000;fill-opacity:1;stroke:#000000;stroke-width:0.81596887px;stroke-linecap:butt;stroke-linejoin:miter;stroke-opacity:1;display:inline"
       d="m 327.54753,163.26121 c 6.15189,0.1488 11.83244,8.63048 19.01581,13.29129 2.87569,1.23105 12.83325,16.5829 14.83004,27.56462 l -39.05565,4.7428 c 1.98117,-15.25156 0.76174,-30.51726 5.2098,-45.59871 z"
       id="path4463"
       inkscape:connector-curvature="0"
       sodipodi:nodetypes="ccccc" />
    <path
       style="fill:#d10000;fill-opacity:1;stroke:#000000;stroke-width:0.81596887px;stroke-linecap:butt;stroke-linejoin:miter;stroke-opacity:1;display:inline"
       d="m 358.36642,200.08717 c 3.00778,-22.65109 17.25491,-36.0585 36.04265,-29.94345 -2.59567,1.19805 -7.59444,1.30088 -10.16878,8.18058 -7.72656,22.18801 -1.33469,41.94491 -3.28554,66.73391 -1.33342,16.26004 -13.04273,22.29825 -21.36125,24.10213 -0.9336,-23.40482 -11.1606,-46.83082 -1.22708,-69.07317 z"
       id="path4461"
       inkscape:connector-curvature="0"
       sodipodi:nodetypes="cccccc" />
    <path
       style="fill:#d10000;fill-opacity:1;stroke:#000000;stroke-width:0.81596887px;stroke-linecap:butt;stroke-linejoin:miter;stroke-opacity:1;display:inline"
       d="m 322.65777,173.8636 c -1.71764,-0.50792 -6.61826,-3.57219 -7.23819,-9.40845 -3.34997,6.92567 1.28498,10.31244 -0.44095,14.86717 z"
       id="path4459"
       inkscape:connector-curvature="0"
       sodipodi:nodetypes="cccc" />
    <path
       style="fill:#d10000;fill-opacity:1;stroke:#000000;stroke-width:0.81596887px;stroke-linecap:round;stroke-linejoin:miter;stroke-opacity:1;display:inline"
       d="m 320.19779,166.93331 c 3.52374,3.58101 8.39349,4.56608 12.79079,5.24174 12.47893,2.2982 18.19583,16.55878 25.45243,27.81853 -4.82234,20.1502 3.66163,37.87739 5.32387,54.11525 0.67008,6.52129 -0.82084,11.12632 -3.46902,14.93587 l -12.0145,4.15201 c -18.82703,3.32685 -33.40373,-21.09572 -38.54177,-40.48582 -2.49637,-11.1019 5.7372,-40.9195 6.23565,-52.56963 0.28854,-6.74367 2.30811,-4.33081 4.22255,-13.20795 z"
       id="path4457"
       inkscape:connector-curvature="0"
       sodipodi:nodetypes="cccccccsc" />
    <path
       style="fill:#b70000;fill-opacity:1;stroke:#000000;stroke-width:0.81596887px;stroke-linecap:butt;stroke-linejoin:miter;stroke-opacity:1"
       d="m 257.84557,212.99211 c 8.7234,-6.6226 15.93603,-11.96134 21.91319,-13.32027 15.84685,-2.72662 26.23366,6.25483 28.00928,18.64337"
       id="path4435"
       inkscape:connector-curvature="0"
       sodipodi:nodetypes="ccc" />
    <path
       style="fill:#d10000;fill-opacity:1;stroke:#000000;stroke-width:0.81596887px;stroke-linecap:butt;stroke-linejoin:round;stroke-opacity:1;display:inline"
       d="m 305.6087,226.32828 c -0.75368,-12.36926 -4.29452,-43.62571 9.63343,-63.45377 -1.08818,8.19583 -0.0119,13.81944 2.62482,21.56411 4.04064,13.36529 -6.90483,26.75376 -8.34853,36.02494 l -0.32571,11.07771 z"
       id="path4437"
       inkscape:connector-curvature="0"
       sodipodi:nodetypes="cccccc" />
    <path
       style="fill:#d10000;fill-opacity:1;stroke:#000000;stroke-width:0.81596887px;stroke-linecap:round;stroke-linejoin:round;stroke-opacity:1"
       d="m 257.54633,213.15074 c 48.91879,3.79061 33.44015,50.95319 76.23435,61.30416 6.97094,1.01004 9.6864,0.70862 14.88408,-1.37273 -29.11226,0.14453 -24.95302,-48.26225 -53.51382,-64.78892 -16.08054,-11.33104 -24.3417,2.19292 -37.60461,4.85749 z"
       id="path4414"
       inkscape:connector-curvature="0"
       sodipodi:nodetypes="ccccc" />
    <path
       style="fill:none;stroke:#000000;stroke-width:0.81596887px;stroke-linecap:round;stroke-linejoin:miter;stroke-opacity:1"
       d="m 290.30837,229.32521 c 12.99789,16.61242 20.65999,34.72513 40.03723,44.17407"
       id="path5238"
       inkscape:connector-curvature="0"
       sodipodi:nodetypes="cc" />
    <path
       style="fill:none;stroke:#000000;stroke-width:0.75;stroke-linecap:round;stroke-linejoin:miter;stroke-opacity:1;stroke-miterlimit:4;stroke-dasharray:none"
       d="m 364.05115,267.8037 c 3.78088,-3.52666 4.93113,-6.41129 5.14115,-11.55375"
       id="path5177"
       inkscape:connector-curvature="0"
       sodipodi:nodetypes="cc" />
    <path
       style="fill:none;stroke:#000000;stroke-width:0.75;stroke-linecap:round;stroke-linejoin:miter;stroke-opacity:1;stroke-miterlimit:4;stroke-dasharray:none"
       d="m 368.7185,265.54223 c 3.76077,-4.62913 8.25777,-8.24947 8.78782,-15.58685"
       id="path5179"
       inkscape:connector-curvature="0"
       sodipodi:nodetypes="cc" />
    <path
       style="fill:none;stroke:#000000;stroke-width:0.75;stroke-linecap:round;stroke-linejoin:miter;stroke-opacity:1;stroke-miterlimit:4;stroke-dasharray:none"
       d="m 293.47644,207.49876 c -1.96828,5.15793 1.96721,7.40316 -0.6281,11.81329"
       id="path5240"
       inkscape:connector-curvature="0"
       sodipodi:nodetypes="cc" />
    <path
       style="fill:none;stroke:#000000;stroke-width:0.75;stroke-linecap:round;stroke-linejoin:miter;stroke-opacity:1;stroke-miterlimit:4;stroke-dasharray:none"
       d="m 309.8217,181.86769 c 2.24222,-0.58068 3.47299,-4.65609 5.59414,-4.96396"
       id="path5248"
       inkscape:connector-curvature="0"
       sodipodi:nodetypes="cc" />
    <path
       style="fill:none;stroke:#000000;stroke-width:0.75;stroke-linecap:round;stroke-linejoin:miter;stroke-opacity:1;stroke-miterlimit:4;stroke-dasharray:none"
       d="m 309.97707,178.62973 c 1.74656,-0.18489 2.05209,-3.06511 4.96304,-4.42038"
       id="path5250"
       inkscape:connector-curvature="0"
       sodipodi:nodetypes="cc" />
    <path
       style="fill:none;stroke:#000000;stroke-width:0.75;stroke-linecap:round;stroke-linejoin:round;stroke-opacity:1;stroke-miterlimit:4;stroke-dasharray:none"
       d="m 310.36378,175.36298 c 1.17792,-0.20357 1.81467,-2.63006 4.22288,-3.24136"
       id="path5252"
       inkscape:connector-curvature="0"
       sodipodi:nodetypes="cc" />
    <path
       style="fill:none;stroke:#000000;stroke-width:0.81596887px;stroke-linecap:round;stroke-linejoin:miter;stroke-opacity:1"
       d="m 321.51552,182.52114 c -1.24469,1.12209 0.0141,3.74589 -1.34458,4.29781"
       id="path5254"
       inkscape:connector-curvature="0"
       sodipodi:nodetypes="cc" />
    <path
       style="fill:none;stroke:#000000;stroke-width:0.81596887px;stroke-linecap:round;stroke-linejoin:miter;stroke-opacity:1"
       d="m 320.02933,177.09857 c 0.92636,2.55643 -1.80867,4.09362 -1.11565,6.32724"
       id="path5256"
       inkscape:connector-curvature="0"
       sodipodi:nodetypes="cc" />
    <path
       style="fill:none;stroke:#000000;stroke-width:0.81596887px;stroke-linecap:round;stroke-linejoin:miter;stroke-opacity:1"
       d="m 324.26723,176.05318 c 0.22793,2.42066 3.28038,2.42899 3.96795,4.11456"
       id="path5258"
       inkscape:connector-curvature="0"
       sodipodi:nodetypes="cc" />
    <path
       style="fill:none;stroke:#000000;stroke-width:0.81596887px;stroke-linecap:round;stroke-linejoin:miter;stroke-opacity:1"
       d="m 329.56494,185.38738 c -0.54605,-1.99079 -3.66747,-0.73417 -4.42227,-3.4039"
       id="path5260"
       inkscape:connector-curvature="0"
       sodipodi:nodetypes="cc" />
    <path
       style="fill:none;stroke:#000000;stroke-width:0.75;stroke-linecap:round;stroke-linejoin:miter;stroke-opacity:1;stroke-miterlimit:4;stroke-dasharray:none"
       d="m 325.19448,172.48243 c 1.88458,1.06375 11.04555,0.6593 14.18376,5.29757"
       id="path5262"
       inkscape:connector-curvature="0"
       sodipodi:nodetypes="cc" />
    <path
       style="fill:none;stroke:#000000;stroke-width:0.75;stroke-linecap:round;stroke-linejoin:miter;stroke-opacity:1;stroke-miterlimit:4;stroke-dasharray:none"
       d="m 342.04745,197.51943 c 1.08214,-2.93761 4.23347,-7.57602 8.87596,-9.72592"
       id="path5264"
       inkscape:connector-curvature="0"
       sodipodi:nodetypes="cc" />
    <path
       style="fill:none;stroke:#000000;stroke-width:0.75;stroke-linecap:round;stroke-linejoin:miter;stroke-opacity:1;stroke-miterlimit:4;stroke-dasharray:none"
       d="m 342.78564,203.06462 c 0.81705,-4.16077 2.79772,-9.4703 9.22946,-13.28006"
       id="path5266"
       inkscape:connector-curvature="0"
       sodipodi:nodetypes="cc" />
    <path
       style="fill:none;stroke:#000000;stroke-width:0.75;stroke-linecap:round;stroke-linejoin:miter;stroke-opacity:1;stroke-miterlimit:4;stroke-dasharray:none"
       d="m 345.40443,204.40191 c 1.08044,-5.35957 3.80585,-10.46109 7.84006,-13.05055"
       id="path5268"
       inkscape:connector-curvature="0"
       sodipodi:nodetypes="cc" />
    <path
       style="fill:none;stroke:#000000;stroke-width:0.75;stroke-linecap:round;stroke-linejoin:miter;stroke-opacity:1;stroke-miterlimit:4;stroke-dasharray:none"
       d="m 349.36173,203.62652 c 0.13638,-2.32808 2.02697,-7.02932 5.05014,-9.809"
       id="path5270"
       inkscape:connector-curvature="0"
       sodipodi:nodetypes="cc" />
    <path
       style="fill:none;stroke:#000000;stroke-width:0.75;stroke-linecap:round;stroke-linejoin:miter;stroke-opacity:1;stroke-miterlimit:4;stroke-dasharray:none"
       d="m 352.65536,203.56446 c 0.48541,-2.35221 0.94054,-4.70651 3.59005,-6.98178"
       id="path5272"
       inkscape:connector-curvature="0"
       sodipodi:nodetypes="cc" />
    <path
       style="fill:none;stroke:#000000;stroke-width:0.75;stroke-linecap:round;stroke-linejoin:miter;stroke-opacity:1;stroke-miterlimit:4;stroke-dasharray:none"
       d="m 363.37053,184.0484 c 3.33196,1.62651 3.92385,8.04333 6.79261,8.24524"
       id="path5274"
       inkscape:connector-curvature="0"
       sodipodi:nodetypes="cc" />
    <path
       style="fill:none;stroke:#000000;stroke-width:0.75;stroke-linecap:round;stroke-linejoin:miter;stroke-opacity:1;stroke-miterlimit:4;stroke-dasharray:none"
       d="m 362.17869,186.18074 c 2.86605,0.59621 2.39802,7.76502 7.88449,8.2951"
       id="path5276"
       inkscape:connector-curvature="0"
       sodipodi:nodetypes="cc" />
    <path
       style="fill:none;stroke:#000000;stroke-width:0.75;stroke-linecap:round;stroke-linejoin:miter;stroke-opacity:1;stroke-miterlimit:4;stroke-dasharray:none"
       d="m 358.36839,200.08526 c 0.41332,5.24169 9.85389,6.3628 8.85964,10.88021"
       id="path5278"
       inkscape:connector-curvature="0"
       sodipodi:nodetypes="cc" />
    <path
       style="fill:none;stroke:#000000;stroke-width:0.75;stroke-linecap:round;stroke-linejoin:miter;stroke-opacity:1;stroke-miterlimit:4;stroke-dasharray:none"
       d="m 357.90696,202.64722 c 0.93127,5.36574 7.14308,4.63955 6.8884,8.33305"
       id="path5280"
       inkscape:connector-curvature="0"
       sodipodi:nodetypes="cc" />
    <path
       style="fill:none;stroke:#000000;stroke-width:0.75;stroke-linecap:round;stroke-linejoin:miter;stroke-opacity:1;stroke-miterlimit:4;stroke-dasharray:none"
       d="m 357.44882,205.34086 c 0.51456,3.22521 4.86492,3.38124 4.8879,6.21035"
       id="path5282"
       inkscape:connector-curvature="0"
       sodipodi:nodetypes="cc" />
    <path
       style="fill:none;stroke:#000000;stroke-width:0.81596887px;stroke-linecap:butt;stroke-linejoin:miter;stroke-opacity:1"
       d="m 351.2922,158.74777 c -7.8951,6.38299 0.64371,13.76152 -1.28648,21.71485"
       id="path5284"
       inkscape:connector-curvature="0"
       sodipodi:nodetypes="cc" />
    <path
       style="fill:none;stroke:#000000;stroke-width:0.81596887px;stroke-linecap:butt;stroke-linejoin:miter;stroke-opacity:1"
       d="m 327.68539,163.0934 c 1.54159,2.80524 6.23984,5.80316 6.22991,8.83808"
       id="path5286"
       inkscape:connector-curvature="0"
       sodipodi:nodetypes="cc" />
    <path
       style="fill:none;stroke:#000000;stroke-width:0.81596887px;stroke-linecap:round;stroke-linejoin:miter;stroke-opacity:1"
       d="m 321.43068,173.07234 c 5.33799,33.71945 14.18422,68.98208 33.17799,97.5705"
       id="path5288"
       inkscape:connector-curvature="0"
       sodipodi:nodetypes="cc" />
    <path
       style="fill:none;stroke:#000000;stroke-width:0.75;stroke-linecap:round;stroke-linejoin:miter;stroke-opacity:1;stroke-miterlimit:4;stroke-dasharray:none"
       d="m 295.46349,208.81739 c -1.46469,5.17508 2.73888,8.75076 -0.84023,14.18007"
       id="path5242"
       inkscape:connector-curvature="0"
       sodipodi:nodetypes="cc" />
    <path
       style="fill:none;stroke:#000000;stroke-width:0.75;stroke-linecap:round;stroke-linejoin:miter;stroke-opacity:1;stroke-miterlimit:4;stroke-dasharray:none"
       d="m 337.77691,256.83086 c 4.15084,9.38367 7.47162,12.583 13.78324,15.08998"
       id="path5290"
       inkscape:connector-curvature="0"
       sodipodi:nodetypes="cc" />
    <path
       style="fill:none;stroke:#000000;stroke-width:0.75;stroke-linecap:round;stroke-linejoin:miter;stroke-opacity:1;stroke-miterlimit:4;stroke-dasharray:none"
       d="m 297.87534,210.04162 c -1.78237,6.101 3.42752,8.50314 -1.3324,16.30213"
       id="path5244"
       inkscape:connector-curvature="0"
       sodipodi:nodetypes="cc" />
    <path
       style="fill:none;stroke:#000000;stroke-width:0.75;stroke-linecap:round;stroke-linejoin:miter;stroke-opacity:1;stroke-miterlimit:4;stroke-dasharray:none"
       d="m 354.66301,246.78977 c 4.61075,7.57136 4.78779,16.48371 2.52098,23.14708"
       id="path5292"
       inkscape:connector-curvature="0"
       sodipodi:nodetypes="cc" />
    <path
       style="fill:none;stroke:#000000;stroke-width:0.75;stroke-linecap:round;stroke-linejoin:miter;stroke-opacity:1;stroke-miterlimit:4;stroke-dasharray:none"
       d="m 300.18451,212.20085 c -1.17544,3.07291 2.47419,9.2496 -0.36165,13.10014"
       id="path5246"
       inkscape:connector-curvature="0"
       sodipodi:nodetypes="cc" />
    <path
       style="fill:none;stroke:#000000;stroke-width:0.75;stroke-linecap:round;stroke-linejoin:miter;stroke-opacity:1;stroke-miterlimit:4;stroke-dasharray:none"
       d="m 385.3,201.10657 c -0.3337,1.55676 -2.9297,-0.1495 -3.51174,1.33908"
       id="path5294"
       inkscape:connector-curvature="0"
       sodipodi:nodetypes="cc" />
    <path
       style="fill:none;stroke:#000000;stroke-width:0.75;stroke-linecap:round;stroke-linejoin:miter;stroke-opacity:1;stroke-miterlimit:4;stroke-dasharray:none"
       d="m 385.71542,203.05054 c -0.31292,1.3751 -2.87196,0.0843 -3.48137,2.05234"
       id="path5296"
       inkscape:connector-curvature="0"
       sodipodi:nodetypes="cc" />
    <path
       style="fill:none;stroke:#000000;stroke-width:0.75;stroke-linecap:round;stroke-linejoin:miter;stroke-opacity:1;stroke-miterlimit:4;stroke-dasharray:none"
       d="m 385.96768,205.24206 c -0.40681,1.22572 -1.90963,0.15148 -2.63954,1.74272"
       id="path5298"
       inkscape:connector-curvature="0"
       sodipodi:nodetypes="cc" />
    <path
       style="fill:none;stroke:#000000;stroke-width:0.51650059px;stroke-linecap:round;stroke-linejoin:miter;stroke-opacity:1;display:inline"
       d="m 379.71339,425.16329 c 1.53527,-28.91034 7.26266,-44.57757 3.91389,-65.60924"
       id="path5157-7"
       inkscape:connector-curvature="0"
       sodipodi:nodetypes="cc" />
  </g>
  <g
     inkscape:groupmode="layer"
     id="layer3"
     inkscape:label="vase"
     style="display:inline">
    <path
       style="fill:#00e9b7;fill-opacity:0.23280424;stroke:#000000;stroke-width:1;stroke-linecap:round;stroke-linejoin:round;stroke-miterlimit:4;stroke-opacity:1;stroke-dasharray:none"
       d="m 366.22542,489.09311 0,206.73632 c 0,40.91471 -58.44959,75.98453 -64.29454,122.74414 -5.84497,40.91471 5.84495,70.13963 29.22478,75.98453 23.37984,5.84489 68.80899,4.32429 87.6744,0 35.06976,-5.8449 40.91471,-35.06982 35.06976,-75.98453 -4.43077,-46.93638 -64.29456,-81.82943 -64.29456,-122.74414 l 0,-206.73632 z"
       id="path3859"
       inkscape:connector-curvature="0"
       sodipodi:nodetypes="ccccccccc" />
    <path
       style="fill:none;stroke:#000000;stroke-width:0.5;stroke-linecap:round;stroke-linejoin:miter;stroke-miterlimit:4;stroke-opacity:1;stroke-dasharray:none"
       d="m 319.46574,888.7132 c 29.2248,-11.68994 75.64848,-11.79075 116.56319,-0.10036"
       id="path3863"
       inkscape:connector-curvature="0"
       sodipodi:nodetypes="cc" />
    <path
       style="fill:#00afe8;fill-opacity:0.42328042;stroke:none"
       d="m 343.69533,809.13799 c 13.89965,-4.25251 26.13575,4.02235 36.09728,0.167 13.48516,-4.74892 21.63797,-5.89202 38.08,-1.09829 13.56488,6.40498 25.7406,-3.37268 32.89274,-2.23451 4.06986,14.24813 4.94463,29.32436 4.27217,44.42775 -1.14781,15.9683 -5.53448,29.79606 -19.70823,38.05947 -10.43067,9.54346 -99.6127,15.58573 -115.44783,0.0852 -14.51887,-9.57098 -25.31406,-41.85019 -15.43196,-79.4069 14.36676,-9.49031 27.95634,2.35543 39.24583,3.2e-4 z"
       id="path3950"
       inkscape:connector-curvature="0"
       sodipodi:nodetypes="cccccccccc" />
    <path
       style="fill:url(#radialGradient7586);fill-opacity:1;stroke:none"
       d="m 322.6877,787.14278 c -0.16841,-6.90181 20.1097,-28.21259 24.15139,-36.91428 l 2.27309,11.80269 C 343.19904,765.74392 337.97411,773.63625 332,790.36218 z"
       id="path3952"
       inkscape:connector-curvature="0"
       sodipodi:nodetypes="ccccc" />
  </g>
</svg>
