<?xml version="1.0" encoding="UTF-8" standalone="no"?>
<!-- Created with Inkscape (http://www.inkscape.org/) -->

<svg
   xmlns:dc="http://purl.org/dc/elements/1.1/"
   xmlns:cc="http://creativecommons.org/ns#"
   xmlns:rdf="http://www.w3.org/1999/02/22-rdf-syntax-ns#"
   xmlns:svg="http://www.w3.org/2000/svg"
   xmlns="http://www.w3.org/2000/svg"
   xmlns:sodipodi="http://sodipodi.sourceforge.net/DTD/sodipodi-0.dtd"
   xmlns:inkscape="http://www.inkscape.org/namespaces/inkscape"
   width="744.09448819"
   height="1052.3622047"
   id="svg3082"
   version="1.1"
   inkscape:version="0.48.3.1 r9886"
   sodipodi:docname="pistol.svg"
   inkscape:export-filename="C:\Users\Nate\Documents\Java\workspace\offworld\raw\pistol.png"
   inkscape:export-xdpi="320"
   inkscape:export-ydpi="320">
  <defs
     id="defs3084" />
  <sodipodi:namedview
     id="base"
     pagecolor="#ffffff"
     bordercolor="#666666"
     borderopacity="1.0"
     inkscape:pageopacity="0.0"
     inkscape:pageshadow="2"
     inkscape:zoom="1.4142136"
     inkscape:cx="315.69552"
     inkscape:cy="617.02044"
     inkscape:document-units="px"
     inkscape:current-layer="layer3"
     showgrid="false"
     inkscape:window-width="1680"
     inkscape:window-height="988"
     inkscape:window-x="-8"
     inkscape:window-y="-8"
     inkscape:window-maximized="1"
     showguides="true"
     inkscape:guide-bbox="true">
    <inkscape:grid
       type="xygrid"
       id="grid3092" />
  </sodipodi:namedview>
  <metadata
     id="metadata3087">
    <rdf:RDF>
      <cc:Work
         rdf:about="">
        <dc:format>image/svg+xml</dc:format>
        <dc:type
           rdf:resource="http://purl.org/dc/dcmitype/StillImage" />
        <dc:title></dc:title>
      </cc:Work>
    </rdf:RDF>
  </metadata>
  <g
     inkscape:label="Outlline"
     inkscape:groupmode="layer"
     id="layer1"
     style="display:inline">
    <path
       style="fill:#7c8384;fill-opacity:1;stroke:#000000;stroke-width:1px;stroke-linecap:round;stroke-linejoin:round;stroke-opacity:1"
       d="m 208,429.18361 0.25254,62.19888 c -0.13709,3.53685 2.3795,3.94004 5,4 l 25,0 c 2.99383,0.0108 3.04464,-1.59821 3,-4 L 241,453.36218 c 0.0644,-2.68929 1.94677,-2.99458 4,-3 l 83,0 0,-33 -105,0 -11.21429,-10.53568 -12.5,12.14286 z"
       id="path3090"
       inkscape:connector-curvature="0"
       sodipodi:nodetypes="ccccccccccccc" />
    <path
       style="fill:#7c8384;fill-opacity:1;stroke:#000000;stroke-width:1px;stroke-linecap:round;stroke-linejoin:round;stroke-opacity:1"
       d="m 328.21429,417.2898 1.7749,-1.16541 0.0108,33.23779 -1.90531,0.96842 z"
       id="path3103"
       inkscape:connector-curvature="0"
       sodipodi:nodetypes="ccccc" />
    <path
       style="fill:#737470;fill-opacity:1;stroke:#000000;stroke-width:1px;stroke-linecap:round;stroke-linejoin:round;stroke-opacity:1"
       d="m 329.91208,416.0486 -106.50242,-0.14013 -10.52497,-10.08857 -1.05582,0.99117 10.99931,10.59511 105.45184,-0.0674 z"
       id="path3873"
       inkscape:connector-curvature="0"
       sodipodi:nodetypes="ccccccc" />
    <path
       style="fill:#ff1e1f;fill-opacity:1;stroke:none"
       d="m 195,623.36218 15,4 -15,4 c -9.40338,2.14342 -8.60788,-10.44173 0,-8 z"
       id="path3919"
       inkscape:connector-curvature="0"
       sodipodi:nodetypes="cccc" />
    <path
       style="fill:#ffd71f;fill-opacity:1;stroke:none"
       d="m 199.80397,614.27586 11.42982,10.5052 -15.14297,-3.41912 c -9.32399,-2.46596 -2.77805,-13.24416 3.71315,-7.08608 z"
       id="path3919-1"
       inkscape:connector-curvature="0"
       sodipodi:nodetypes="cccc" />
    <path
       style="fill:none;stroke:#ffff00;stroke-width:1px;stroke-linecap:round;stroke-linejoin:miter;stroke-opacity:1"
       d="m 214.09765,664.66848 19.93361,-0.0436 0,0"
       id="path3939"
       inkscape:connector-curvature="0" />
    <path
       style="fill:none;stroke:#ff0000;stroke-width:1px;stroke-linecap:round;stroke-linejoin:miter;stroke-opacity:1"
       d="m 215.80771,676.12061 18.98839,-6.06564 0,0"
       id="path3939-7"
       inkscape:connector-curvature="0" />
    <path
       style="fill:none;stroke:#ff8400;stroke-width:1px;stroke-linecap:round;stroke-linejoin:miter;stroke-opacity:1"
       d="m 214.64992,670.914 19.53617,-3.96094 0,0"
       id="path3939-4"
       inkscape:connector-curvature="0" />
    <path
       style="fill:none;stroke:#ff0000;stroke-width:1px;stroke-linecap:round;stroke-linejoin:miter;stroke-opacity:1"
       d="m 215.84472,651.50771 17.85369,8.86548 0,0"
       id="path3939-7-0"
       inkscape:connector-curvature="0" />
    <path
       style="fill:none;stroke:#ff8400;stroke-width:1px;stroke-linecap:round;stroke-linejoin:miter;stroke-opacity:1"
       d="m 214.21469,656.91904 19.16921,5.46742 0,0"
       id="path3939-4-9"
       inkscape:connector-curvature="0" />
  </g>
  <g
     inkscape:groupmode="layer"
     id="layer3"
     inkscape:label="fire1"
     style="display:inline">
    <path
       style="fill:#ff0000;fill-opacity:1;stroke:none"
       d="m 409.37768,484.43693 28,-24.375 -1.5,17 26.5,-13.875 -5,18 25.375,-2.375 -19.5,18.625 22.75,20.875 -30.875,-7 9.25,20.25 -27.25,-14.25 6.625,20.375 -34.375,-27 z"
       id="path4014"
       inkscape:connector-curvature="0"
       inkscape:export-xdpi="320"
       inkscape:export-ydpi="320" />
    <path
       style="fill:#ff7500;fill-opacity:1;stroke:none"
       d="m 409.38905,487.69613 24.80562,-20.54764 -0.42435,13.84095 24.70514,-12.8224 -7.70615,17.19189 26.73062,-4.2241 -21.64152,16.02059 23.70677,17.90396 -30.74489,-7.83156 10.63763,18.32524 -26.22981,-13.96961 6.11378,19.16598 -29.97493,-23.97533 z"
       id="path4014-4"
       inkscape:connector-curvature="0"
       sodipodi:nodetypes="cccccccccccccc"
       inkscape:export-xdpi="320"
       inkscape:export-ydpi="320" />
    <path
       style="fill:#ffff00;fill-opacity:1;stroke:none"
       d="m 409.38212,489.62511 21.91443,-17.10776 0.47237,12.01824 21.29376,-11.5207 -5.53721,14.27411 18.20717,-1.28494 -15.01451,10.95657 13.22205,10.72298 -21.14915,-3.59038 6.03308,10.91481 -19.60702,-7.25338 3.6385,13.48274 -23.49557,-19.38377 z"
       id="path4014-4-8"
       inkscape:connector-curvature="0"
       sodipodi:nodetypes="cccccccccccccc"
       inkscape:export-xdpi="320"
       inkscape:export-ydpi="320" />
    <path
       style="fill:#ffffb5;fill-opacity:1;stroke:none"
       d="m 409.37669,490.83437 19.57387,-13.32342 1.71527,10.65723 18.46377,-10.29884 -5.61368,11.03223 13.49037,0.44941 -11.56557,7.64247 9.02439,6.9742 -16.73461,-1.2113 4.97089,6.61239 -16.74875,-3.47491 2.12096,8.71217 -18.67481,-14.92491 z"
       id="path4014-4-8-8"
       inkscape:connector-curvature="0"
       sodipodi:nodetypes="cccccccccccccc"
       inkscape:export-xdpi="320"
       inkscape:export-ydpi="320" />
  </g>
  <g
     inkscape:groupmode="layer"
     id="layer2"
     inkscape:label="Layer"
     style="display:inline">
    <path
       style="fill:#abaeae;fill-opacity:1;stroke:#000000;stroke-width:1px;stroke-linecap:butt;stroke-linejoin:miter;stroke-opacity:1"
       d="m 237,417.36218 3,6 80,0 3,-6 z"
       id="path3095"
       inkscape:connector-curvature="0"
       sodipodi:nodetypes="ccccc" />
    <path
       style="fill:#abaeae;fill-opacity:1;stroke:#000000;stroke-width:0.83864379px;stroke-linecap:butt;stroke-linejoin:miter;stroke-opacity:1"
       d="m 202.99247,418.7357 7.93846,9.61854 -0.18174,5.21777 16.07328,-14.05318 -4.86519,-0.19993 -9.99938,-9.12813 z"
       id="path3097"
       inkscape:connector-curvature="0"
       sodipodi:nodetypes="ccccccc" />
    <path
       style="fill:#b3711e;fill-opacity:1;stroke:#000000;stroke-width:1.14581418px;stroke-linecap:butt;stroke-linejoin:miter;stroke-opacity:1"
       d="m 211.21429,440.78839 0,48.51679 c 0.007,3.52904 2.9458,3.09184 6.22392,3.16414 l 13.69263,0 c 4.31544,0.0419 6.15882,-0.6082 6.22391,-3.16414 l 0,-44.29794 c 0.29545,-6.14172 -10.80505,-10.6274 -19.31638,-10.75431 -5.10584,-0.19215 -6.6669,2.81602 -6.82408,6.53546 z"
       id="path3099"
       inkscape:connector-curvature="0"
       sodipodi:nodetypes="cccccccc" />
    <path
       style="fill:#abaeae;fill-opacity:1;stroke:#000000;stroke-width:1px;stroke-linecap:butt;stroke-linejoin:miter;stroke-opacity:1"
       d="m 245,450.36218 0,-5 75,0 0,5 z"
       id="path3101"
       inkscape:connector-curvature="0"
       sodipodi:nodetypes="ccccc" />
  </g>
</svg>
