<?xml version="1.0" encoding="UTF-8" standalone="no"?>
<!-- Created with Inkscape (http://www.inkscape.org/) -->

<svg
   xmlns:dc="http://purl.org/dc/elements/1.1/"
   xmlns:cc="http://creativecommons.org/ns#"
   xmlns:rdf="http://www.w3.org/1999/02/22-rdf-syntax-ns#"
   xmlns:svg="http://www.w3.org/2000/svg"
   xmlns="http://www.w3.org/2000/svg"
   xmlns:sodipodi="http://sodipodi.sourceforge.net/DTD/sodipodi-0.dtd"
   xmlns:inkscape="http://www.inkscape.org/namespaces/inkscape"
   width="744.09448819"
   height="1052.3622047"
   id="svg3082"
   version="1.1"
   inkscape:version="0.48.3.1 r9886"
   sodipodi:docname="pistol.svg">
  <defs
     id="defs3084" />
  <sodipodi:namedview
     id="base"
     pagecolor="#ffffff"
     bordercolor="#666666"
     borderopacity="1.0"
     inkscape:pageopacity="0.0"
     inkscape:pageshadow="2"
     inkscape:zoom="4"
     inkscape:cx="268.91126"
     inkscape:cy="622.97159"
     inkscape:document-units="px"
     inkscape:current-layer="layer1"
     showgrid="false"
     inkscape:window-width="1680"
     inkscape:window-height="988"
     inkscape:window-x="-8"
     inkscape:window-y="-8"
     inkscape:window-maximized="1"
     showguides="true"
     inkscape:guide-bbox="true">
    <inkscape:grid
       type="xygrid"
       id="grid3092" />
  </sodipodi:namedview>
  <metadata
     id="metadata3087">
    <rdf:RDF>
      <cc:Work
         rdf:about="">
        <dc:format>image/svg+xml</dc:format>
        <dc:type
           rdf:resource="http://purl.org/dc/dcmitype/StillImage" />
      </cc:Work>
    </rdf:RDF>
  </metadata>
  <g
     inkscape:label="Outlline"
     inkscape:groupmode="layer"
     id="layer1">
    <path
       style="fill:#7c8384;stroke:#000000;stroke-width:1px;stroke-linecap:round;stroke-linejoin:round;stroke-opacity:1;fill-opacity:1"
       d="m 208,429.18361 0.25254,62.19888 c -0.13709,3.53685 2.3795,3.94004 5,4 l 25,0 c 2.99383,0.0108 3.04464,-1.59821 3,-4 L 241,453.36218 c 0.0644,-2.68929 1.94677,-2.99458 4,-3 l 83,0 0,-33 -105,0 -11.21429,-10.53568 -12.5,12.14286 z"
       id="path3090"
       inkscape:connector-curvature="0"
       sodipodi:nodetypes="ccccccccccccc" />
    <path
       style="fill:#7c8384;stroke:#000000;stroke-width:1px;stroke-linecap:round;stroke-linejoin:round;stroke-opacity:1;fill-opacity:1"
       d="m 328.21429,417.2898 1.7749,-1.16541 0.0108,33.23779 -1.90531,0.96842 z"
       id="path3103"
       inkscape:connector-curvature="0"
       sodipodi:nodetypes="ccccc" />
    <path
       style="fill:#737470;fill-opacity:1;stroke:#000000;stroke-width:1px;stroke-linecap:round;stroke-linejoin:round;stroke-opacity:1"
       d="m 329.91208,416.0486 -106.50242,-0.14013 -10.52497,-10.08857 -1.05582,0.99117 10.99931,10.59511 105.45184,-0.0674 z"
       id="path3873"
       inkscape:connector-curvature="0"
       sodipodi:nodetypes="ccccccc" />
  </g>
  <g
     inkscape:groupmode="layer"
     id="layer2"
     inkscape:label="Layer">
    <path
       style="fill:#abaeae;stroke:#000000;stroke-width:1px;stroke-linecap:butt;stroke-linejoin:miter;stroke-opacity:1;fill-opacity:1"
       d="m 237,417.36218 3,6 80,0 3,-6 z"
       id="path3095"
       inkscape:connector-curvature="0"
       sodipodi:nodetypes="ccccc" />
    <path
       style="fill:#abaeae;stroke:#000000;stroke-width:0.83864379000000000px;stroke-linecap:butt;stroke-linejoin:miter;stroke-opacity:1;fill-opacity:1"
       d="m 202.99247,418.7357 7.93846,9.61854 -0.18174,5.21777 16.07328,-14.05318 -4.86519,-0.19993 -9.99938,-9.12813 z"
       id="path3097"
       inkscape:connector-curvature="0"
       sodipodi:nodetypes="ccccccc" />
    <path
       style="fill:#b3711e;stroke:#000000;stroke-width:1.14581417999999990px;stroke-linecap:butt;stroke-linejoin:miter;stroke-opacity:1;fill-opacity:1"
       d="m 211.21429,440.78839 0,48.51679 c 0.007,3.52904 2.9458,3.09184 6.22392,3.16414 l 13.69263,0 c 4.31544,0.0419 6.15882,-0.6082 6.22391,-3.16414 l 0,-44.29794 c 0.29545,-6.14172 -10.80505,-10.6274 -19.31638,-10.75431 -5.10584,-0.19215 -6.6669,2.81602 -6.82408,6.53546 z"
       id="path3099"
       inkscape:connector-curvature="0"
       sodipodi:nodetypes="cccccccc" />
    <path
       style="fill:#abaeae;stroke:#000000;stroke-width:1px;stroke-linecap:butt;stroke-linejoin:miter;stroke-opacity:1;fill-opacity:1"
       d="m 245,450.36218 0,-5 75,0 0,5 z"
       id="path3101"
       inkscape:connector-curvature="0"
       sodipodi:nodetypes="ccccc" />
  </g>
</svg>
