<?xml version="1.0" encoding="UTF-8" standalone="no"?>
<!-- Created with Inkscape (http://www.inkscape.org/) -->

<svg
   xmlns:dc="http://purl.org/dc/elements/1.1/"
   xmlns:cc="http://creativecommons.org/ns#"
   xmlns:rdf="http://www.w3.org/1999/02/22-rdf-syntax-ns#"
   xmlns:svg="http://www.w3.org/2000/svg"
   xmlns="http://www.w3.org/2000/svg"
   xmlns:xlink="http://www.w3.org/1999/xlink"
   xmlns:sodipodi="http://sodipodi.sourceforge.net/DTD/sodipodi-0.dtd"
   xmlns:inkscape="http://www.inkscape.org/namespaces/inkscape"
   width="744.09448819"
   height="1052.3622047"
   id="svg3625"
   version="1.1"
   inkscape:version="0.48.3.1 r9886"
   sodipodi:docname="tulip-touchup.svg"
   inkscape:export-filename="C:\Users\Nate\Documents\Java\workspace\offworld-android\raw\tulip-touchup.png"
   inkscape:export-xdpi="320"
   inkscape:export-ydpi="320">
  <defs
     id="defs3627">
    <linearGradient
       id="linearGradient3954">
      <stop
         style="stop-color:#ffffff;stop-opacity:1;"
         offset="0"
         id="stop3956" />
      <stop
         style="stop-color:#ffffff;stop-opacity:0;"
         offset="1"
         id="stop3958" />
    </linearGradient>
    <radialGradient
       inkscape:collect="always"
       xlink:href="#linearGradient3954"
       id="radialGradient3960"
       cx="331.27917"
       cy="960.11371"
       fx="331.27917"
       fy="960.11371"
       r="8.9856179"
       gradientTransform="matrix(0.58686083,0.37379258,-0.80670522,1.2665412,911.39314,-379.50331)"
       gradientUnits="userSpaceOnUse" />
  </defs>
  <sodipodi:namedview
     id="base"
     pagecolor="#ffffff"
     bordercolor="#666666"
     borderopacity="1.0"
     inkscape:pageopacity="0.0"
     inkscape:pageshadow="2"
     inkscape:zoom="0.70710678"
     inkscape:cx="336.2167"
     inkscape:cy="810.58817"
     inkscape:document-units="px"
     inkscape:current-layer="layer1"
     showgrid="false"
     inkscape:window-width="1920"
     inkscape:window-height="1138"
     inkscape:window-x="-8"
     inkscape:window-y="-8"
     inkscape:window-maximized="1"
     showguides="false"
     inkscape:snap-global="true"
     inkscape:guide-bbox="true">
    <inkscape:grid
       type="xygrid"
       id="grid5317" />
  </sodipodi:namedview>
  <metadata
     id="metadata3630">
    <rdf:RDF>
      <cc:Work
         rdf:about="">
        <dc:format>image/svg+xml</dc:format>
        <dc:type
           rdf:resource="http://purl.org/dc/dcmitype/StillImage" />
        <dc:title></dc:title>
      </cc:Work>
    </rdf:RDF>
  </metadata>
  <g
     inkscape:label="image"
     inkscape:groupmode="layer"
     id="layer1"
     style="display:inline" />
  <g
     inkscape:groupmode="layer"
     id="layer2"
     inkscape:label="tulip"
     style="opacity:1;display:inline">
    <g
       id="g3936">
      <g
         id="g3945">
        <path
           style="fill:#269300;fill-opacity:1;stroke:#000000;stroke-width:0.76876861px;stroke-linecap:butt;stroke-linejoin:miter;stroke-opacity:1"
           d="m 364.00356,986.63423 -0.47088,-446.75757 c 1.72141,-2.15175 2.42356,-4.43941 2.71801,-8.56172 0.3624,-8.78822 -0.36241,-17.91619 -2.85391,-26.90827 l -7.20272,5.02831 2.9046,480.99545 c 3.94128,0.3682 4.1348,0.8326 4.9049,-3.7962 z"
           id="path5115"
           inkscape:connector-curvature="0"
           sodipodi:nodetypes="ccccccc" />
        <path
           style="fill:#268200;fill-opacity:1;stroke:#000000;stroke-width:0.76876861px;stroke-linecap:butt;stroke-linejoin:miter;stroke-opacity:1"
           d="m 352.66071,991.98843 c 4.07701,3.5335 7.74632,1.7667 9.78482,-0.2718 l -0.2718,-8.5617 -9.24123,-0.1359 z"
           id="path5315"
           inkscape:connector-curvature="0"
           sodipodi:nodetypes="ccccc" />
        <path
           style="fill:#269300;fill-opacity:1;stroke:#000000;stroke-width:0.76876861px;stroke-linecap:round;stroke-linejoin:round;stroke-opacity:1"
           d="m 361.08648,540.62413 c 0.0334,-2.78375 2.12605,-2.4132 2.24235,-6.86298 0.1359,-3.94111 0.47565,-11.27973 -0.47565,-15.49265 -4.89241,-12.27633 -9.64892,-25.36807 -16.30804,-35.60589 -2.55215,-3.56435 -4.04136,-5.80833 -6.65863,-7.62008 4.39412,19.34315 8.31208,40.05496 9.17278,59.39812 0.13591,4.48471 2.71801,2.78595 2.37826,5.97961 l 1.35901,450.75277 c 2.3103,-0.6795 6.38732,-1.359 9.37713,-0.2718 z"
           id="path4603"
           inkscape:connector-curvature="0"
           sodipodi:nodetypes="cccccccccc" />
      </g>
    </g>
    <g
       id="g3911"
       transform="translate(57.982756,108.89444)">
      <path
         sodipodi:nodetypes="ccccccc"
         inkscape:connector-curvature="0"
         id="path5139"
         d="m 138.10876,179.63855 c -0.21363,7.07814 0.86381,13.20497 4.72719,20.28311 9.60617,17.0327 22.33804,30.80381 37.78791,45.11852 -0.31843,5.10769 -0.5018,10.45138 1.49007,10.93846 0.50595,6.21376 35.05376,21.71772 45.71359,38.65394 l 9.03304,-16.62462 c -29.04411,-25.26998 -78.40533,-62.0915 -98.7518,-98.36941 z"
         style="fill:#269300;fill-opacity:1;stroke:#000000;stroke-width:0.76876861px;stroke-linecap:round;stroke-linejoin:round;stroke-opacity:1" />
      <path
         sodipodi:nodetypes="ccccccccccccc"
         inkscape:connector-curvature="0"
         id="path5137"
         d="m 297.1241,393.06602 -15.22084,-26.90827 c -12.86524,-9.42243 -28.17668,-24.28087 -36.4213,-35.33411 -9.42243,-12.32163 -15.03965,-36.3307 -28.26729,-53.27294 -8.24462,-7.51982 -21.5238,-9.51436 -33.23388,-18.86884 -9.12848,-7.71917 -6.08663,-25.97829 -15.41845,-37.12212 -7.14307,-10.09162 -13.14736,-18.57749 -22.45671,-28.28676 -4.07768,-4.41776 -6.65545,-8.02878 -7.98497,-13.84236 14.16048,23.01697 40.2733,29.39866 62.49085,45.17922 17.99381,13.00247 35.19553,26.5184 49.76286,42.61243 30.69178,29.85847 35.87127,48.43366 49.46774,80.72483 l 3.53341,47.29333 z"
         style="fill:#26a900;fill-opacity:1;stroke:#000000;stroke-width:0.76876861px;stroke-linecap:round;stroke-linejoin:round;stroke-opacity:1" />
      <path
         sodipodi:nodetypes="ccccccccccccc"
         inkscape:connector-curvature="0"
         id="path4581"
         d="m 293.18298,287.19962 c 2.58591,-43.64951 22.6741,-78.35078 39.26721,-111.8823 l 21.19198,-47.28519 c 4.36114,-11.29346 11.45477,-9.84727 14.15012,-16.55169 0.56626,3.78255 -3.62401,6.81766 -4.14495,8.83352 l -2.37826,9.10532 c -5.36425,21.72273 -8.421,47.18138 -5.77377,65.41473 2.51906,26.8792 -6.5916,58.12503 -14.61129,77.96017 -11.60319,26.78289 -18.85757,58.3223 -31.95566,81.97948 l -4.09973,57.59428 -7.61974,-18.46811 1.67768,-40.67053 c -3.14614,-7.27602 -6.98932,-45.93645 -5.70359,-66.02968 z"
         style="fill:#26a900;fill-opacity:1;stroke:#000000;stroke-width:0.76876861px;stroke-linecap:round;stroke-linejoin:round;stroke-opacity:1" />
      <path
         sodipodi:nodetypes="ccccccc"
         inkscape:connector-curvature="0"
         id="path4530"
         d="m 267.18842,121.2895 c 3.71527,2.59593 4.97951,-1.24093 6.43594,1.15798 20.47566,40.77012 26.18482,137.43406 26.95491,193.15321 1.71591,-10.01815 3.51143,-19.67807 4.93905,-31.04157 -2.58344,-50.74714 -6.44828,-119.48355 -23.63218,-165.14608 -0.91699,-3.43597 4.48338,-0.72464 3.77623,-6.11552 z"
         style="fill:#26a900;fill-opacity:1;stroke:#000000;stroke-width:0.76876861px;stroke-linecap:butt;stroke-linejoin:miter;stroke-opacity:1;display:inline" />
      <path
         sodipodi:nodetypes="ccccccc"
         inkscape:connector-curvature="0"
         id="path4550"
         d="m 300.91202,352.62224 c -4.41676,-16.93093 -2.92186,-31.7554 -1.56285,-51.81202 2.5723,-67.20506 33.35927,-96.54753 32.81994,-143.34093 0.0131,-4.00429 -0.0736,-9.82732 -1.56286,-12.97849 3.07805,1.98837 6.3592,7.44082 6.31938,12.91053 0.81541,21.69877 1.4949,41.42698 1.7667,61.63084 -0.54359,47.38393 -13.99774,91.91395 -30.30579,133.59007"
         style="fill:#26a900;fill-opacity:1;stroke:#000000;stroke-width:0.76876861px;stroke-linecap:round;stroke-linejoin:round;stroke-opacity:1;display:inline" />
      <path
         sodipodi:nodetypes="ccc"
         inkscape:connector-curvature="0"
         id="path5141"
         d="m 197.62996,234.9974 c 0.26694,7.11353 5.30067,16.8279 22.53073,25.52078 29.01131,14.60996 66.53082,87.32632 76.92944,129.65995"
         style="fill:none;stroke:#000000;stroke-width:0.76876861px;stroke-linecap:round;stroke-linejoin:round;stroke-opacity:1" />
      <path
         sodipodi:nodetypes="cc"
         inkscape:connector-curvature="0"
         id="path5143"
         d="m 213.68127,247.65262 c 53.36354,35.01699 74.90733,91.04267 83.37004,141.86392"
         style="fill:none;stroke:#000000;stroke-width:0.76876861px;stroke-linecap:round;stroke-linejoin:round;stroke-opacity:1" />
      <path
         sodipodi:nodetypes="cc"
         inkscape:connector-curvature="0"
         id="path5145"
         d="m 249.55897,305.27438 c -2.6727,18.30124 26.0325,27.53696 33.89207,47.26517"
         style="fill:none;stroke:#000000;stroke-width:0.76876861px;stroke-linecap:round;stroke-linejoin:round;stroke-opacity:1" />
      <path
         sodipodi:nodetypes="cc"
         inkscape:connector-curvature="0"
         id="path5147"
         d="m 245.48196,309.21549 c -0.86071,19.11666 33.06205,26.82927 41.20474,50.39666"
         style="fill:none;stroke:#000000;stroke-width:0.76876861px;stroke-linecap:round;stroke-linejoin:round;stroke-opacity:1" />
      <path
         sodipodi:nodetypes="cc"
         inkscape:connector-curvature="0"
         id="path5149"
         d="m 264.91571,288.83043 c 15.93621,21.66596 29.25692,54.1429 31.91236,100.4497"
         style="fill:none;stroke:#000000;stroke-width:0.76876861px;stroke-linecap:round;stroke-linejoin:round;stroke-opacity:1" />
      <path
         sodipodi:nodetypes="cc"
         inkscape:connector-curvature="0"
         id="path5151"
         d="m 290.7999,336.14024 c 5.21343,2.83536 2.26025,14.82231 8.11764,17.03902"
         style="fill:none;stroke:#000000;stroke-width:0.76876861px;stroke-linecap:round;stroke-linejoin:miter;stroke-opacity:1" />
      <path
         sodipodi:nodetypes="cc"
         inkscape:connector-curvature="0"
         id="path5153"
         d="m 215.78772,276.29362 c 7.8709,6.37599 14.25007,18.11906 23.07609,18.61253"
         style="fill:none;stroke:#000000;stroke-width:0.76876861px;stroke-linecap:round;stroke-linejoin:round;stroke-opacity:1" />
      <path
         sodipodi:nodetypes="cc"
         inkscape:connector-curvature="0"
         id="path5155"
         d="m 163.59032,214.58077 c 10.99827,17.57862 30.44734,30.24242 29.27521,43.69656"
         style="fill:none;stroke:#000000;stroke-width:0.76876861px;stroke-linecap:round;stroke-linejoin:miter;stroke-opacity:1" />
      <path
         sodipodi:nodetypes="cc"
         inkscape:connector-curvature="0"
         id="path5157"
         d="m 303.50176,345.27572 c 8.29424,-28.13005 15.94596,-64.01373 16.90959,-92.84659"
         style="fill:none;stroke:#000000;stroke-width:0.76876861px;stroke-linecap:round;stroke-linejoin:miter;stroke-opacity:1" />
      <path
         sodipodi:nodetypes="cc"
         inkscape:connector-curvature="0"
         id="path5159"
         d="m 333.91613,194.93126 c 2.42454,48.11141 -12.19806,105.35476 -27.34496,154.1883"
         style="fill:none;stroke:#000000;stroke-width:0.76876861px;stroke-linecap:round;stroke-linejoin:round;stroke-opacity:1" />
      <path
         sodipodi:nodetypes="cc"
         inkscape:connector-curvature="0"
         id="path5161"
         d="m 337.94085,236.07874 c 14.4469,-29.73886 4.32254,-87.16241 26.15836,-117.08081"
         style="fill:none;stroke:#000000;stroke-width:0.76876861px;stroke-linecap:round;stroke-linejoin:round;stroke-opacity:1" />
      <path
         sodipodi:nodetypes="cc"
         inkscape:connector-curvature="0"
         id="path5163"
         d="m 348.06986,140.51155 c 7.18095,-16.52322 17.18199,-21.92322 18.0773,-23.99446"
         style="fill:none;stroke:#000000;stroke-width:0.76876861px;stroke-linecap:round;stroke-linejoin:round;stroke-opacity:1" />
      <path
         sodipodi:nodetypes="cc"
         inkscape:connector-curvature="0"
         id="path5165"
         d="m 302.36994,353.72001 c 0.78886,1.58994 -0.39283,3.79144 0.59989,5.38138"
         style="fill:none;stroke:#000000;stroke-width:0.76876861px;stroke-linecap:round;stroke-linejoin:round;stroke-opacity:1" />
      <path
         sodipodi:nodetypes="cc"
         inkscape:connector-curvature="0"
         id="path5167"
         d="m 305.20818,353.99182 -0.47565,7.77895"
         style="fill:none;stroke:#000000;stroke-width:0.76876861px;stroke-linecap:round;stroke-linejoin:round;stroke-opacity:1" />
      <path
         sodipodi:nodetypes="cc"
         inkscape:connector-curvature="0"
         id="path5169"
         d="m 307.44654,354.25196 c -0.95131,1.63363 0,3.19932 -0.88335,4.765"
         style="fill:none;stroke:#000000;stroke-width:0.76876861px;stroke-linecap:round;stroke-linejoin:round;stroke-opacity:1" />
      <path
         inkscape:connector-curvature="0"
         id="path5171"
         d="m 296.78435,430.84632 0,2.92186"
         style="fill:none;stroke:#000000;stroke-width:0.76876861px;stroke-linecap:round;stroke-linejoin:miter;stroke-opacity:1" />
      <path
         inkscape:connector-curvature="0"
         id="path5173"
         d="m 299.36646,430.84632 0.13589,8.56173"
         style="fill:none;stroke:#000000;stroke-width:0.76876861px;stroke-linecap:round;stroke-linejoin:miter;stroke-opacity:1" />
      <path
         inkscape:connector-curvature="0"
         id="path5175"
         d="m 301.67676,431.25403 0,5.36806"
         style="fill:none;stroke:#000000;stroke-width:0.76876861px;stroke-linecap:round;stroke-linejoin:miter;stroke-opacity:1" />
    </g>
    <g
       id="g3868"
       transform="translate(57.982756,108.89444)">
      <path
         sodipodi:nodetypes="cccccccc"
         inkscape:connector-curvature="0"
         id="path4465"
         d="m 254.45887,24.496133 c 0.80894,-6.85973 7.73338,-11.8751 11.06618,-12.13395 -0.9295,6.88696 11.53787,18.74606 13.09028,25.55644 l 17.16199,1.926 c 3.60563,4.79085 5.36788,13.21581 6.34375,20.3739 0.73926,8.48938 1.5012,16.59926 0.58244,24.65622 -0.6148,5.63015 -3.69369,16.023897 -7.41087,20.295047 z"
         style="fill:#d10000;fill-opacity:1;stroke:#000000;stroke-width:0.76876861px;stroke-linecap:butt;stroke-linejoin:miter;stroke-opacity:1;display:inline" />
      <path
         sodipodi:nodetypes="ccccc"
         inkscape:connector-curvature="0"
         id="path4463"
         d="m 243.39271,18.283553 c 5.79194,-0.25886 11.68094,7.34509 18.73483,11.26032 2.78271,0.97071 13.13703,14.75489 15.72561,24.94743 l -36.40189,6.98916 c 0.87365,-14.46369 -1.26192,-28.73323 1.94145,-43.19691 z"
         style="fill:#d10000;fill-opacity:1;stroke:#000000;stroke-width:0.76876861px;stroke-linecap:butt;stroke-linejoin:miter;stroke-opacity:1;display:inline" />
      <path
         sodipodi:nodetypes="cccccc"
         inkscape:connector-curvature="0"
         id="path4461"
         d="m 274.74686,50.899643 c 1.359,-21.4852 13.88124,-35.01052 31.93658,-30.48052 -2.36208,1.2943 -7.05387,1.71494 -9.02766,8.34818 -5.82431,21.35577 2.13557,40.57597 1.74729,62.90245 -0.97072,15.337327 -11.06617,23.103067 -19.02606,24.073787 -2.39444,-21.938207 -13.52531,-43.293987 -5.63015,-64.843897 z"
         style="fill:#d10000;fill-opacity:1;stroke:#000000;stroke-width:0.76876861px;stroke-linecap:butt;stroke-linejoin:miter;stroke-opacity:1;display:inline" />
      <path
         sodipodi:nodetypes="cccc"
         inkscape:connector-curvature="0"
         id="path4459"
         d="m 239.48388,28.565893 c -1.64737,-0.36608 -6.45217,-2.92864 -7.41312,-8.37409 -2.69985,6.72672 1.87615,9.60961 0.54911,14.00257 z"
         style="fill:#d10000;fill-opacity:1;stroke:#000000;stroke-width:0.76876861px;stroke-linecap:butt;stroke-linejoin:miter;stroke-opacity:1;display:inline" />
      <path
         sodipodi:nodetypes="cccccccsc"
         inkscape:connector-curvature="0"
         id="path4457"
         d="m 236.72252,22.211393 c 3.54413,3.13749 8.18517,3.74776 12.36208,4.09782 11.87818,1.35135 18.17588,14.38466 25.72629,24.49763 -3.22664,19.25218 5.89658,35.3645 8.51137,50.519087 1.05248,6.08608 -0.0504,10.51108 -2.29258,14.2634 l -11.0236,4.68125 c -17.48033,4.34721 -32.76418,-17.66337 -38.85026,-35.555547 -3.06593,-10.27313 2.74044,-38.83299 2.45387,-49.81552 -0.16587,-6.35722 1.88875,-4.22022 3.11283,-12.68812 z"
         style="fill:#d10000;fill-opacity:1;stroke:#000000;stroke-width:0.76876861px;stroke-linecap:round;stroke-linejoin:miter;stroke-opacity:1;display:inline" />
      <path
         sodipodi:nodetypes="ccc"
         inkscape:connector-curvature="0"
         id="path4435"
         d="m 181.10145,69.544283 c 7.77009,-6.79011 14.20339,-12.27558 19.73338,-13.94026 13.35447,-3.9967 25.04008,3.84647 26.53793,15.77671"
         style="fill:#b70000;fill-opacity:1;stroke:#000000;stroke-width:0.76876861px;stroke-linecap:butt;stroke-linejoin:miter;stroke-opacity:1" />
      <path
         sodipodi:nodetypes="cccccc"
         inkscape:connector-curvature="0"
         id="path4437"
         d="m 226.85944,78.983603 c -1.51009,-11.57729 -6.86401,-40.72644 4.94208,-60.26598 -0.49161,7.77398 0.88448,12.98998 3.86475,20.09847 4.66413,12.30045 -4.75603,25.59398 -5.51211,34.40174 l 0.41184,10.43329 z"
         style="fill:#d10000;fill-opacity:1;stroke:#000000;stroke-width:0.76876861px;stroke-linecap:butt;stroke-linejoin:round;stroke-opacity:1;display:inline" />
      <path
         sodipodi:nodetypes="ccccc"
         inkscape:connector-curvature="0"
         id="path4414"
         d="m 180.83047,69.712783 c 46.22554,0.39233 34.73355,45.724707 75.62764,52.680217 6.61761,0.49756 9.15039,0.0383 13.90092,-2.25492 -27.35391,2.02267 -26.5819,-43.745507 -54.49797,-57.428207 -15.84886,-9.60808 -22.73718,3.63881 -35.03059,7.00291 z"
         style="fill:#d10000;fill-opacity:1;stroke:#000000;stroke-width:0.76876861px;stroke-linecap:round;stroke-linejoin:round;stroke-opacity:1" />
      <path
         sodipodi:nodetypes="cc"
         inkscape:connector-curvature="0"
         id="path5238"
         d="m 212.67255,82.792143 c 13.2937,14.77196 21.6694,31.299907 40.49492,38.925287"
         style="fill:none;stroke:#000000;stroke-width:0.76876861px;stroke-linecap:round;stroke-linejoin:miter;stroke-opacity:1" />
      <path
         sodipodi:nodetypes="cc"
         inkscape:connector-curvature="0"
         id="path5177"
         d="m 284.00971,114.80999 c 3.32956,-2.87656 4.68857,-6.97621 4.55267,-11.82333"
         style="fill:none;stroke:#000000;stroke-width:0.76876861px;stroke-linecap:round;stroke-linejoin:miter;stroke-opacity:1" />
      <path
         sodipodi:nodetypes="cc"
         inkscape:connector-curvature="0"
         id="path5179"
         d="m 288.76622,112.43173 c 3.82786,-4.75651 7.18008,-8.96942 7.20273,-15.900337"
         style="fill:none;stroke:#000000;stroke-width:0.76876861px;stroke-linecap:round;stroke-linejoin:miter;stroke-opacity:1" />
      <path
         sodipodi:nodetypes="cc"
         inkscape:connector-curvature="0"
         id="path5240"
         d="m 214.23566,62.071643 c -1.51573,4.97562 2.32885,6.83089 0.17529,11.14428"
         style="fill:none;stroke:#000000;stroke-width:0.76876861px;stroke-linecap:round;stroke-linejoin:miter;stroke-opacity:1" />
      <path
         sodipodi:nodetypes="cc"
         inkscape:connector-curvature="0"
         id="path5248"
         d="m 227.93773,36.921053 c 2.06988,-0.69112 2.96257,-4.60146 4.93634,-5.02831"
         style="fill:none;stroke:#000000;stroke-width:0.76876861px;stroke-linecap:round;stroke-linejoin:miter;stroke-opacity:1" />
      <path
         sodipodi:nodetypes="cc"
         inkscape:connector-curvature="0"
         id="path5250"
         d="m 227.8739,33.867543 c 1.62966,-0.28698 1.73016,-3.01396 4.37838,-4.47647"
         style="fill:none;stroke:#000000;stroke-width:0.76876861px;stroke-linecap:round;stroke-linejoin:miter;stroke-opacity:1" />
      <path
         sodipodi:nodetypes="cc"
         inkscape:connector-curvature="0"
         id="path5252"
         d="m 228.02566,30.771993 c 1.09396,-0.26768 1.53519,-2.58966 3.7591,-3.32032"
         style="fill:none;stroke:#000000;stroke-width:0.76876861px;stroke-linecap:round;stroke-linejoin:round;stroke-opacity:1" />
      <path
         sodipodi:nodetypes="cc"
         inkscape:connector-curvature="0"
         id="path5254"
         d="m 238.97137,36.777343 c -1.09719,1.13534 0.25608,3.51993 -0.98525,4.12675"
         style="fill:none;stroke:#000000;stroke-width:0.76876861px;stroke-linecap:round;stroke-linejoin:miter;stroke-opacity:1" />
      <path
         sodipodi:nodetypes="cc"
         inkscape:connector-curvature="0"
         id="path5256"
         d="m 237.22301,31.776873 c 1.0364,2.3428 -1.43469,3.9649 -0.63853,6.01942"
         style="fill:none;stroke:#000000;stroke-width:0.76876861px;stroke-linecap:round;stroke-linejoin:miter;stroke-opacity:1" />
      <path
         sodipodi:nodetypes="cc"
         inkscape:connector-curvature="0"
         id="path5258"
         d="m 241.13856,30.519613 c 0.37112,2.26046 3.24073,2.07046 3.99623,3.61019"
         style="fill:none;stroke:#000000;stroke-width:0.76876861px;stroke-linecap:round;stroke-linejoin:miter;stroke-opacity:1" />
      <path
         sodipodi:nodetypes="cc"
         inkscape:connector-curvature="0"
         id="path5260"
         d="m 246.72296,38.949683 c -0.64226,-1.8358 -3.49471,-0.45237 -4.3772,-2.91279"
         style="fill:none;stroke:#000000;stroke-width:0.76876861px;stroke-linecap:round;stroke-linejoin:miter;stroke-opacity:1" />
      <path
         sodipodi:nodetypes="cc"
         inkscape:connector-curvature="0"
         id="path5262"
         d="m 241.77867,27.103293 c 1.84031,0.87769 10.42469,-0.0962 13.67498,4.06002"
         style="fill:none;stroke:#000000;stroke-width:0.76876861px;stroke-linecap:round;stroke-linejoin:miter;stroke-opacity:1" />
      <path
         sodipodi:nodetypes="cc"
         inkscape:connector-curvature="0"
         id="path5264"
         d="m 259.24187,49.543843 c 0.82673,-2.83126 3.48811,-7.39525 7.71235,-9.71688"
         style="fill:none;stroke:#000000;stroke-width:0.76876861px;stroke-linecap:round;stroke-linejoin:miter;stroke-opacity:1" />
      <path
         sodipodi:nodetypes="cc"
         inkscape:connector-curvature="0"
         id="path5266"
         d="m 260.2951,54.708053 c 0.4983,-3.96376 2.01585,-9.08268 7.81427,-13.08041"
         style="fill:none;stroke:#000000;stroke-width:0.76876861px;stroke-linecap:round;stroke-linejoin:miter;stroke-opacity:1" />
      <path
         sodipodi:nodetypes="cc"
         inkscape:connector-curvature="0"
         id="path5268"
         d="m 262.84323,55.795263 c 0.66817,-5.1076 2.8992,-10.07928 6.52322,-12.77464"
         style="fill:none;stroke:#000000;stroke-width:0.76876861px;stroke-linecap:round;stroke-linejoin:miter;stroke-opacity:1" />
      <path
         sodipodi:nodetypes="cc"
         inkscape:connector-curvature="0"
         id="path5270"
         d="m 266.51254,54.809983 c -0.0227,-2.19706 1.4496,-6.73839 4.11099,-9.54701"
         style="fill:none;stroke:#000000;stroke-width:0.76876861px;stroke-linecap:round;stroke-linejoin:miter;stroke-opacity:1" />
      <path
         sodipodi:nodetypes="cc"
         inkscape:connector-curvature="0"
         id="path5272"
         d="m 269.60427,54.538183 c 0.30379,-2.24236 0.579,-4.48472 2.92186,-6.79502"
         style="fill:none;stroke:#000000;stroke-width:0.76876861px;stroke-linecap:round;stroke-linejoin:miter;stroke-opacity:1" />
      <path
         sodipodi:nodetypes="cc"
         inkscape:connector-curvature="0"
         id="path5274"
         d="m 278.41082,35.500123 c 3.2372,1.31284 4.20942,7.30579 6.91892,7.30964"
         style="fill:none;stroke:#000000;stroke-width:0.76876861px;stroke-linecap:round;stroke-linejoin:miter;stroke-opacity:1" />
      <path
         sodipodi:nodetypes="cc"
         inkscape:connector-curvature="0"
         id="path5276"
         d="m 277.42878,37.581603 c 2.7325,0.37464 2.75723,7.1431 7.94843,7.28574"
         style="fill:none;stroke:#000000;stroke-width:0.76876861px;stroke-linecap:round;stroke-linejoin:miter;stroke-opacity:1" />
      <path
         sodipodi:nodetypes="cc"
         inkscape:connector-curvature="0"
         id="path5278"
         d="m 274.74858,50.897723 c 0.72822,4.89999 9.67428,5.34188 9.03255,9.65234"
         style="fill:none;stroke:#000000;stroke-width:0.76876861px;stroke-linecap:round;stroke-linejoin:miter;stroke-opacity:1" />
      <path
         sodipodi:nodetypes="cc"
         inkscape:connector-curvature="0"
         id="path5280"
         d="m 274.48091,53.335683 c 1.2231,4.98301 7.01465,3.89785 7.01465,7.38596"
         style="fill:none;stroke:#000000;stroke-width:0.76876861px;stroke-linecap:round;stroke-linejoin:miter;stroke-opacity:1" />
      <path
         sodipodi:nodetypes="cc"
         inkscape:connector-curvature="0"
         id="path5282"
         d="m 274.22488,55.897183 c 0.69268,2.99809 4.7918,2.8628 4.99676,5.52045"
         style="fill:none;stroke:#000000;stroke-width:0.76876861px;stroke-linecap:round;stroke-linejoin:miter;stroke-opacity:1" />
      <path
         sodipodi:nodetypes="cc"
         inkscape:connector-curvature="0"
         id="path5284"
         d="m 265.41833,12.502323 c -5.03613,6.04141 -0.17036,15.34525 0.1982,20.49365"
         style="fill:none;stroke:#000000;stroke-width:0.76876861px;stroke-linecap:butt;stroke-linejoin:miter;stroke-opacity:1" />
      <path
         sodipodi:nodetypes="cc"
         inkscape:connector-curvature="0"
         id="path5286"
         d="m 243.5114,18.116883 c 1.6308,2.5368 4.74568,5.15322 4.93305,8.00646"
         style="fill:none;stroke:#000000;stroke-width:0.76876861px;stroke-linecap:butt;stroke-linejoin:miter;stroke-opacity:1" />
      <path
         sodipodi:nodetypes="cc"
         inkscape:connector-curvature="0"
         id="path5288"
         d="m 238.27923,27.901703 c 7.20273,31.34769 17.80295,63.91848 37.50851,89.558347"
         style="fill:none;stroke:#000000;stroke-width:0.76876861px;stroke-linecap:round;stroke-linejoin:miter;stroke-opacity:1" />
      <path
         sodipodi:nodetypes="cc"
         inkscape:connector-curvature="0"
         id="path5242"
         d="m 216.18881,63.182263 c -1.04129,4.95911 3.14149,8.04753 0.12929,13.38263"
         style="fill:none;stroke:#000000;stroke-width:0.76876861px;stroke-linecap:round;stroke-linejoin:miter;stroke-opacity:1" />
      <path
         sodipodi:nodetypes="cc"
         inkscape:connector-curvature="0"
         id="path5290"
         d="m 259.072,105.56877 c 4.50965,8.5509 7.83828,11.34279 13.9332,13.29009"
         style="fill:none;stroke:#000000;stroke-width:0.76876861px;stroke-linecap:round;stroke-linejoin:miter;stroke-opacity:1" />
      <path
         sodipodi:nodetypes="cc"
         inkscape:connector-curvature="0"
         id="path5244"
         d="m 218.5351,64.176633 c -1.27987,5.84998 3.77272,7.77015 -0.19577,15.40909"
         style="fill:none;stroke:#000000;stroke-width:0.76876861px;stroke-linecap:round;stroke-linejoin:miter;stroke-opacity:1" />
      <path
         sodipodi:nodetypes="cc"
         inkscape:connector-curvature="0"
         id="path5292"
         d="m 274.29284,95.036493 c 4.82446,6.817657 5.5685,15.183107 3.86974,21.593077"
         style="fill:none;stroke:#000000;stroke-width:0.76876861px;stroke-linecap:round;stroke-linejoin:miter;stroke-opacity:1" />
      <path
         sodipodi:nodetypes="cc"
         inkscape:connector-curvature="0"
         id="path5246"
         d="m 220.84549,66.056473 c -0.90567,2.96448 2.92503,8.53355 0.50912,12.33655"
         style="fill:none;stroke:#000000;stroke-width:0.76876861px;stroke-linecap:round;stroke-linejoin:miter;stroke-opacity:1" />
      <path
         sodipodi:nodetypes="cc"
         inkscape:connector-curvature="0"
         id="path5294"
         d="m 300.1284,50.112173 c -0.21276,1.48486 -2.76339,0.0494 -3.21398,1.48624"
         style="fill:none;stroke:#000000;stroke-width:0.76876861px;stroke-linecap:round;stroke-linejoin:miter;stroke-opacity:1" />
      <path
         sodipodi:nodetypes="cc"
         inkscape:connector-curvature="0"
         id="path5296"
         d="m 300.64485,51.912433 c -0.20499,1.31277 -2.69396,0.26534 -3.1392,2.15468"
         style="fill:none;stroke:#000000;stroke-width:0.76876861px;stroke-linecap:round;stroke-linejoin:miter;stroke-opacity:1" />
      <path
         sodipodi:nodetypes="cc"
         inkscape:connector-curvature="0"
         id="path5298"
         d="m 301.02399,53.955943 c -0.30292,1.17845 -1.78508,0.26614 -2.36801,1.8091"
         style="fill:none;stroke:#000000;stroke-width:0.76876861px;stroke-linecap:round;stroke-linejoin:miter;stroke-opacity:1" />
    </g>
    <g
       id="g3941"
       transform="translate(0.50000026,9)">
      <path
         sodipodi:nodetypes="ccccccccc"
         inkscape:connector-curvature="0"
         id="path3859"
         d="m 349.48516,548.0379 0,353.6336 c 0,26.9069 -38.43843,49.97 -42.28227,80.7207 -3.84385,26.9069 3.84384,46.1262 19.21921,49.97 15.37537,3.8438 45.25112,2.8438 57.65765,0 23.06306,-3.8438 26.9069,-23.0631 23.06306,-49.97 -3.84385,-30.7507 -42.28228,-53.8138 -42.28228,-80.7207 l 0,-353.6336 z"
         style="fill:#00e9b7;fill-opacity:0.23280424;stroke:#000000;stroke-width:0.76876861;stroke-linecap:round;stroke-linejoin:round;stroke-miterlimit:4;stroke-opacity:1;stroke-dasharray:none" />
      <path
         sodipodi:nodetypes="cc"
         inkscape:connector-curvature="0"
         id="path3863"
         d="m 318.73441,1028.5184 c 19.21922,-7.6877 49.749,-7.754 76.6559,-0.066"
         style="fill:none;stroke:#000000;stroke-width:0.76876861;stroke-linecap:round;stroke-linejoin:miter;stroke-miterlimit:4;stroke-opacity:1;stroke-dasharray:none" />
    </g>
  </g>
  <g
     inkscape:groupmode="layer"
     id="layer3"
     inkscape:label="vase">
    <path
       style="fill:#00afe8;fill-opacity:0.42328042;stroke:none"
       d="m 335.16861,985.18705 c 9.14088,-2.7966 17.18775,2.64523 23.73879,0.10982 8.8683,-3.12305 14.22986,-3.87479 25.0427,-0.72227 8.92072,4.21213 16.69538,-2.56675 21.39887,-1.81825 2.67648,9.37005 3.48426,19.63345 3.04203,29.56595 -0.75484,10.5013 -3.63966,19.5949 -12.9608,25.0292 -6.85956,6.2761 -65.50868,10.2497 -75.9224,0.056 -9.5481,-6.2942 -16.64738,-27.5221 -10.14858,-52.22066 9.44807,-6.24115 18.38504,1.54901 25.80939,2.1e-4 z"
       id="path3950"
       inkscape:connector-curvature="0"
       sodipodi:nodetypes="ccccccccc" />
    <path
       style="fill:url(#radialGradient3960);stroke:none;stroke-width:0.59292001000000005px;stroke-linecap:butt;stroke-linejoin:miter;stroke-opacity:1;fill-opacity:1"
       d="m 321.35328,970.72225 c -0.11075,-4.53886 13.22482,-18.55355 15.88277,-24.27608 l 1.49486,7.76185 c -3.88868,2.44162 -7.32477,7.63188 -11.25355,18.63142 z"
       id="path3952"
       inkscape:connector-curvature="0"
       sodipodi:nodetypes="ccccc" />
  </g>
</svg>
