<?xml version="1.0" encoding="UTF-8" standalone="no"?>
<!-- Created with Inkscape (http://www.inkscape.org/) -->

<svg
   xmlns:dc="http://purl.org/dc/elements/1.1/"
   xmlns:cc="http://creativecommons.org/ns#"
   xmlns:rdf="http://www.w3.org/1999/02/22-rdf-syntax-ns#"
   xmlns:svg="http://www.w3.org/2000/svg"
   xmlns="http://www.w3.org/2000/svg"
   xmlns:sodipodi="http://sodipodi.sourceforge.net/DTD/sodipodi-0.dtd"
   xmlns:inkscape="http://www.inkscape.org/namespaces/inkscape"
   width="792pt"
   height="612pt"
   id="svg4591"
   version="1.1"
   inkscape:version="0.48.3.1 r9886"
   sodipodi:docname="tut1.svg">
  <defs
     id="defs4593" />
  <sodipodi:namedview
     inkscape:document-units="in"
     pagecolor="#ffffff"
     bordercolor="#666666"
     borderopacity="1.0"
     inkscape:pageopacity="0.0"
     inkscape:pageshadow="2"
     inkscape:zoom="1.2279853"
     inkscape:cx="452.26368"
     inkscape:cy="287.19336"
     inkscape:current-layer="layer1"
     id="namedview4595"
     showgrid="false"
     inkscape:window-width="1920"
     inkscape:window-height="1138"
     inkscape:window-x="-8"
     inkscape:window-y="-8"
     inkscape:window-maximized="1" />
  <metadata
     id="metadata4597">
    <rdf:RDF>
      <cc:Work
         rdf:about="">
        <dc:format>image/svg+xml</dc:format>
        <dc:type
           rdf:resource="http://purl.org/dc/dcmitype/StillImage" />
        <dc:title></dc:title>
      </cc:Work>
    </rdf:RDF>
  </metadata>
  <g
     inkscape:label="Layer 1"
     inkscape:groupmode="layer"
     id="layer1">
    <g
       style="display:inline"
       id="g5934"
       transform="matrix(1.7570973,0,0,1.7570973,-504.96384,-509.24789)">
      <path
         sodipodi:nodetypes="csccc"
         inkscape:connector-curvature="0"
         id="path3040-0-4"
         d="m 462.11457,669.3676 c 0,0 -2.17886,5.28072 -0.0293,5.29594 0.70947,0.005 6.20457,-7.31857 6.20457,-7.31857 l -2.79734,-1.99057 z"
         style="fill:#ffffff;fill-opacity:1;stroke:#000000;stroke-width:0.51005554px;stroke-linecap:round;stroke-linejoin:round;stroke-opacity:1;display:inline" />
      <path
         sodipodi:nodetypes="cccccccc"
         inkscape:connector-curvature="0"
         id="path3928-1"
         d="m 453.82176,643.40766 -3.82315,8.67094 c -0.99887,1.95521 -1.48146,5.65444 1.65768,8.54343 l 10.48641,8.63747 3.53391,-3.63621 -4.64805,-3.94927 c -6.87767,-5.64117 -6.63985,-6.62775 -3.62774,-13.08338 l 2.19348,-5.09734"
         style="fill:#ffffff;fill-opacity:1;stroke:#000000;stroke-width:0.51005554px;stroke-linecap:butt;stroke-linejoin:round;stroke-opacity:1;display:inline" />
      <path
         sodipodi:nodetypes="csccc"
         inkscape:connector-curvature="0"
         id="path3040-4-9"
         d="m 469.12946,676.77334 c 0,0 -3.84924,4.14049 -1.88373,5.01082 0.64873,0.28725 8.29997,-4.13968 8.29997,-4.13968 l -1.78443,-3.10668 z"
         style="fill:#ffffff;fill-opacity:1;stroke:#000000;stroke-width:0.51005554px;stroke-linecap:round;stroke-linejoin:round;stroke-opacity:1;display:inline" />
      <path
         sodipodi:nodetypes="cccccccc"
         inkscape:connector-curvature="0"
         id="path3928-4-1"
         d="m 459.41971,643.38976 -0.63934,7.35646 c -0.15145,2.98443 0.64446,7.58298 2.2663,10.61725 l 8.07448,15.42245 4.64785,-2.23791 -6.07598,-11.71361 c -2.39191,-4.3686 -3.28805,-9.72265 -2.88051,-14.71956 l 0.45764,-4.60531"
         style="fill:#ffffff;fill-opacity:1;stroke:#000000;stroke-width:0.51005554px;stroke-linecap:butt;stroke-linejoin:round;stroke-opacity:1;display:inline" />
      <path
         sodipodi:nodetypes="cccc"
         inkscape:connector-curvature="0"
         id="path3925-0-8-4-7"
         d="m 459.54465,619.85531 c 4.44741,-1.04054 7.04586,17.30103 5.75515,23.65629 l -11.50577,-0.14674 -0.20487,-23.62159"
         style="fill:#ffffff;fill-opacity:1;stroke:#000000;stroke-width:0.51005554px;stroke-linecap:butt;stroke-linejoin:miter;stroke-opacity:1;display:inline" />
      <path
         sodipodi:nodetypes="ccccccc"
         inkscape:connector-curvature="0"
         id="path3893-5"
         d="m 451.75633,613.90603 0.0638,4.97304 c -0.0691,1.53016 1.31233,1.14762 2.47058,1.19544 l 5.79392,0.0319 c 2.12549,0.0754 1.74396,-1.26922 1.81684,-1.8913 l -1.56979,-5.98268 -7.3958,0.12751"
         style="fill:#ffffff;fill-opacity:1;stroke:#000000;stroke-width:0.51005554px;stroke-linecap:butt;stroke-linejoin:round;stroke-opacity:1;display:inline" />
      <path
         sodipodi:nodetypes="cccccccc"
         inkscape:connector-curvature="0"
         id="path3902-7"
         d="m 451.88842,613.76928 -0.0225,1.48774 4.80134,-0.0225 c 0.45083,-0.0451 0.90166,0.22542 1.01437,0.60862 l 0.0131,2.34968 1.55536,0.003 -0.10329,-5.35032 -7.32598,0.1578"
         style="fill:#000000;fill-opacity:1;stroke:#000000;stroke-width:0.51005554px;stroke-linecap:butt;stroke-linejoin:round;stroke-opacity:1;display:inline" />
      <path
         sodipodi:nodetypes="ccccccc"
         inkscape:connector-curvature="0"
         id="path3090-6"
         d="m 463.16883,612.00926 0.11157,6.20036 -4.76583,-0.0159 -0.0615,-2.6824 c 0.0997,-2.11325 -1.01097,-1.71308 -0.89483,-1.78061 l -7.26442,0.0187 c 0.63282,-8.28157 11.95989,-6.81236 12.87503,-1.7401 z"
         style="fill:#4296ff;fill-opacity:1;stroke:#000000;stroke-width:0.51005554px;stroke-linecap:butt;stroke-linejoin:round;stroke-opacity:1;display:inline" />
      <path
         transform="matrix(0.51005554,0,0,0.51005554,425.42472,355.77665)"
         d="m 71.5,507.29968 c 0,1.00102 -0.811484,1.8125 -1.8125,1.8125 -1.001016,0 -1.8125,-0.81148 -1.8125,-1.8125 0,-1.00101 0.811484,-1.8125 1.8125,-1.8125 1.001016,0 1.8125,0.81149 1.8125,1.8125 z"
         sodipodi:ry="1.8125"
         sodipodi:rx="1.8125"
         sodipodi:cy="507.29968"
         sodipodi:cx="69.6875"
         id="path3860-1"
         style="opacity:0.9792;fill:#000000;fill-opacity:1;stroke:#000000;stroke-width:0.30000001;stroke-linecap:butt;stroke-linejoin:round;stroke-miterlimit:4;stroke-opacity:1;stroke-dasharray:none;display:inline"
         sodipodi:type="arc" />
      <path
         sodipodi:nodetypes="cccccc"
         inkscape:connector-curvature="0"
         id="path3866-8"
         d="m 453.51739,608.57619 0.005,-3.1397 1.89677,-0.0159 0.0179,2.5267 c -0.92549,0.17082 -1.32557,0.39902 -1.91931,0.62891 z"
         style="fill:#4296ff;fill-opacity:1;stroke:#000000;stroke-width:0.51005554px;stroke-linecap:butt;stroke-linejoin:round;stroke-opacity:1;display:inline" />
      <path
         sodipodi:nodetypes="cccc"
         inkscape:connector-curvature="0"
         id="path3866-7-9"
         d="m 458.02513,609.98327 0,-4.53929 1.89677,-0.0159 0.0225,4.57182"
         style="fill:#4296ff;fill-opacity:1;stroke:#000000;stroke-width:0.51005554px;stroke-linecap:butt;stroke-linejoin:round;stroke-opacity:1;display:inline" />
      <path
         sodipodi:nodetypes="cccccccc"
         inkscape:connector-curvature="0"
         id="path3928-9-8-5-6-4"
         d="m 455.9703,628.74738 -0.19464,4.5312 c -0.11457,2.71338 -0.85003,2.74305 -4.03962,2.6571 l -7.93354,-0.0915 c -2.31597,0.24291 -2.03288,3.55734 0.009,3.64963 l 8.12475,0.0516 c 6.72694,0.18462 7.76989,-0.91371 8.12815,-5.18019 l 0.12417,-5.57801"
         style="fill:#ffffff;fill-opacity:1;stroke:#000000;stroke-width:0.56199092px;stroke-linecap:round;stroke-linejoin:round;stroke-opacity:1;display:inline" />
    </g>
    <path
       style="fill:none;stroke:#000000;stroke-width:1px;stroke-linecap:butt;stroke-linejoin:miter;stroke-opacity:1"
       d="M 1.2473693e-8,196.08317 234.93732,193.77985 l 9.21323,-11.51653 6.90992,-6.90992 14.97149,-4.60662 12.66819,11.51654 -3.45496,14.97149 1.15165,39.15622 -5.75826,32.2463 6.90992,31.09465 -9.21323,49.5211 4.60661,56.43102 -2.3033,24.18472 4.60661,51.82441 -67.94756,-41.45953 -23.03307,9.21324 -104.800469,5.18244 -63.340942,6.33409 -10.3648814,146.26 26.4880304,86.37401 961.630682,2.30331 3.45496,71.40252 -996.180286,-1.15166 z"
       id="path4662"
       inkscape:connector-curvature="0"
       sodipodi:nodetypes="cccccccccccccccccccccccc" />
    <path
       style="fill:none;stroke:#000000;stroke-width:1px;stroke-linecap:butt;stroke-linejoin:miter;stroke-opacity:1"
       d="m 309.79479,179.96001 21.88142,-9.21323 17.2748,10.36489 10.36488,13.81984 634.56109,6.90992 -1.15165,260.27369 -63.34094,22.45724 -66.79591,-22.45724 -56.43102,19.57812 -61.03764,-12.66819 -35.70126,5.75827 -51.8244,20.72976 -57.58268,-10.36488 -49.5211,0 -51.82441,18.42645 -79.46409,-12.66819 -73.70583,-2.30331 -27.63968,-9.21323 6.90992,-50.67275 -10.36488,-48.36945 2.30331,-54.12771 -5.75827,-59.88599 6.90992,-47.21779 z"
       id="path4664"
       inkscape:connector-curvature="0"
       sodipodi:nodetypes="cccccccccccccccccccccccc" />
    <path
       style="fill:none;stroke:#000000;stroke-width:1px;stroke-linecap:butt;stroke-linejoin:miter;stroke-opacity:1"
       d="m 271.79023,261.72741 -6.90992,-6.90992 -20.72977,13.81985 -29.94299,-13.81985 -20.72976,11.51654 -28.79134,-11.51654 -23.03307,14.9715 -26.48803,-16.12315 -28.791339,13.81985 -25.33637,-14.9715 -23.03307,17.2748 -21.881421,-21.88142 -17.2748035,20.72976"
       id="path4666"
       inkscape:connector-curvature="0"
       sodipodi:nodetypes="ccccccccccccc" />
    <path
       style="fill:none;stroke:#000000;stroke-width:1px;stroke-linecap:butt;stroke-linejoin:miter;stroke-opacity:1"
       d="m 310.94645,258.27245 21.88141,9.21323 33.39795,-12.66819 28.79134,12.66819 35.70126,-11.51653 41.45953,16.12315 35.70126,-14.9715 28.79134,11.51654 44.91448,-12.66819 38.00457,10.36488 38.00457,-13.81984 48.36944,14.97149 41.45953,-13.81984 28.79134,14.9715 47.21779,-13.81985 31.09465,18.42646 55.27936,-17.2748 34.54959,23.03307 49.5211,-21.88142"
       id="path4668"
       inkscape:connector-curvature="0"
       sodipodi:nodetypes="ccccccccccccccccccc" />
    <g
       id="g5916"
       transform="matrix(-0.210542,0.0091379,-0.0091379,-0.210542,234.13908,740.29632)">
      <path
         sodipodi:nodetypes="ccccccccccccc"
         inkscape:connector-curvature="0"
         id="path3090"
         d="m 805.94563,303.65075 0.25254,62.19888 c -0.13709,3.53685 2.3795,3.94004 5,4 l 25,0 c 2.99383,0.0108 3.04464,-1.59821 3,-4 l -0.25254,-38.02031 c 0.0644,-2.68929 1.94677,-2.99458 4,-3 l 83,0 0,-33 -105,0 -11.21429,-10.53568 -12.5,12.14286 z"
         style="fill:#7c8384;fill-opacity:1;stroke:#000000;stroke-width:1px;stroke-linecap:round;stroke-linejoin:round;stroke-opacity:1;display:inline" />
      <path
         sodipodi:nodetypes="ccccc"
         inkscape:connector-curvature="0"
         id="path3103"
         d="m 926.15992,291.75694 1.7749,-1.16541 0.0108,33.23779 -1.90531,0.96842 z"
         style="fill:#7c8384;fill-opacity:1;stroke:#000000;stroke-width:1px;stroke-linecap:round;stroke-linejoin:round;stroke-opacity:1;display:inline" />
      <path
         sodipodi:nodetypes="ccccccc"
         inkscape:connector-curvature="0"
         id="path3873"
         d="m 927.85771,290.51574 -106.50242,-0.14013 -10.52497,-10.08857 -1.05582,0.99117 10.99931,10.59511 105.45184,-0.0674 z"
         style="fill:#737470;fill-opacity:1;stroke:#000000;stroke-width:1px;stroke-linecap:round;stroke-linejoin:round;stroke-opacity:1;display:inline" />
      <path
         sodipodi:nodetypes="ccccc"
         inkscape:connector-curvature="0"
         id="path3095"
         d="m 834.94563,291.82932 3,6 80,0 3,-6 z"
         style="fill:#abaeae;fill-opacity:1;stroke:#000000;stroke-width:1px;stroke-linecap:butt;stroke-linejoin:miter;stroke-opacity:1;display:inline" />
      <path
         sodipodi:nodetypes="ccccccc"
         inkscape:connector-curvature="0"
         id="path3097"
         d="m 800.9381,293.20284 7.93846,9.61854 -0.18174,5.21777 16.07328,-14.05318 -4.86519,-0.19993 -9.99938,-9.12813 z"
         style="fill:#abaeae;fill-opacity:1;stroke:#000000;stroke-width:0.83864379px;stroke-linecap:butt;stroke-linejoin:miter;stroke-opacity:1;display:inline" />
      <path
         sodipodi:nodetypes="cccccccc"
         inkscape:connector-curvature="0"
         id="path3099"
         d="m 809.15992,315.25553 0,48.51679 c 0.007,3.52904 2.9458,3.09184 6.22392,3.16414 l 13.69263,0 c 4.31544,0.0419 6.15882,-0.6082 6.22391,-3.16414 l 0,-44.29794 c 0.29545,-6.14172 -10.80505,-10.6274 -19.31638,-10.75431 -5.10584,-0.19215 -6.6669,2.81602 -6.82408,6.53546 z"
         style="fill:#b3711e;fill-opacity:1;stroke:#000000;stroke-width:1.14581418px;stroke-linecap:butt;stroke-linejoin:miter;stroke-opacity:1;display:inline" />
      <path
         sodipodi:nodetypes="ccccc"
         inkscape:connector-curvature="0"
         id="path3101"
         d="m 842.94563,324.82932 0,-5 75,0 0,5 z"
         style="fill:#abaeae;fill-opacity:1;stroke:#000000;stroke-width:1px;stroke-linecap:butt;stroke-linejoin:miter;stroke-opacity:1;display:inline" />
    </g>
  </g>
</svg>
