<?xml version="1.0" encoding="UTF-8" standalone="no"?>
<!-- Created with Inkscape (http://www.inkscape.org/) -->

<svg
   xmlns:dc="http://purl.org/dc/elements/1.1/"
   xmlns:cc="http://creativecommons.org/ns#"
   xmlns:rdf="http://www.w3.org/1999/02/22-rdf-syntax-ns#"
   xmlns:svg="http://www.w3.org/2000/svg"
   xmlns="http://www.w3.org/2000/svg"
   xmlns:xlink="http://www.w3.org/1999/xlink"
   xmlns:sodipodi="http://sodipodi.sourceforge.net/DTD/sodipodi-0.dtd"
   xmlns:inkscape="http://www.inkscape.org/namespaces/inkscape"
   width="792pt"
   height="612pt"
   id="svg4591"
   version="1.1"
   inkscape:version="0.48.3.1 r9886"
   sodipodi:docname="tut4.svg">
  <defs
     id="defs4593">
    <linearGradient
       id="linearGradient7046">
      <stop
         style="stop-color:#6997d3;stop-opacity:1;"
         offset="0"
         id="stop7060" />
      <stop
         style="stop-color:#05326d;stop-opacity:1;"
         offset="1"
         id="stop7050" />
    </linearGradient>
    <linearGradient
       inkscape:collect="always"
       xlink:href="#linearGradient7046"
       id="linearGradient7070"
       x1="186.06348"
       y1="186.42586"
       x2="412.50681"
       y2="182.82722"
       gradientUnits="userSpaceOnUse"
       gradientTransform="matrix(-0.00849066,1.2047295,-0.78003006,-0.01311352,444.06821,-30.175051)" />
  </defs>
  <sodipodi:namedview
     inkscape:document-units="in"
     pagecolor="#ffffff"
     bordercolor="#666666"
     borderopacity="1.0"
     inkscape:pageopacity="0.0"
     inkscape:pageshadow="2"
     inkscape:zoom="1"
     inkscape:cx="443.70239"
     inkscape:cy="424.31622"
     inkscape:current-layer="layer1"
     id="namedview4595"
     showgrid="false"
     inkscape:window-width="1920"
     inkscape:window-height="1138"
     inkscape:window-x="-8"
     inkscape:window-y="-8"
     inkscape:window-maximized="1"
     showguides="true"
     inkscape:guide-bbox="true">
    <inkscape:grid
       type="xygrid"
       id="grid7038" />
    <sodipodi:guide
       orientation="0,1"
       position="-15.556349,573.4636"
       id="guide7040" />
    <sodipodi:guide
       orientation="1,0"
       position="7.5,-19.5"
       id="guide7042" />
  </sodipodi:namedview>
  <metadata
     id="metadata4597">
    <rdf:RDF>
      <cc:Work
         rdf:about="">
        <dc:format>image/svg+xml</dc:format>
        <dc:type
           rdf:resource="http://purl.org/dc/dcmitype/StillImage" />
        <dc:title></dc:title>
      </cc:Work>
    </rdf:RDF>
  </metadata>
  <g
     inkscape:label="Layer 1"
     inkscape:groupmode="layer"
     id="layer1">
    <path
       style="fill:#6997d3;fill-opacity:1;stroke:#000000;stroke-width:1px;stroke-linecap:butt;stroke-linejoin:miter;stroke-opacity:1"
       d="m 1.1516535,0.30206772 0,194.62944228 990.4220165,13.81984 0,-213.0558963 z"
       id="path6945"
       inkscape:connector-curvature="0"
       sodipodi:nodetypes="ccccc" />
    <path
       style="fill:#05326d;fill-opacity:1;stroke:#000000;stroke-width:1px;stroke-linecap:butt;stroke-linejoin:miter;stroke-opacity:1"
       d="m 0,191.47655 3.4549605,574.6751 990.4220195,1.15166 -2.34123,-564.31022 z"
       id="path6943"
       inkscape:connector-curvature="0"
       sodipodi:nodetypes="ccccc" />
    <path
       style="fill:url(#linearGradient7070);fill-opacity:1;fill-rule:nonzero;stroke:none"
       d="M 330.8733,-0.01889466 268.66788,1.2782542 266.8711,694.30406 l 63.00574,2.55016 z"
       id="path7044"
       inkscape:connector-curvature="0"
       sodipodi:nodetypes="ccccc" />
    <g
       style="display:inline"
       id="g5934"
       transform="matrix(1.7570973,0,0,1.7570973,-504.96384,-509.24789)">
      <path
         sodipodi:nodetypes="csccc"
         inkscape:connector-curvature="0"
         id="path3040-0-4"
         d="m 462.11457,669.3676 c 0,0 -2.17886,5.28072 -0.0293,5.29594 0.70947,0.005 6.20457,-7.31857 6.20457,-7.31857 l -2.79734,-1.99057 z"
         style="fill:#ffffff;fill-opacity:1;stroke:#000000;stroke-width:0.51005554px;stroke-linecap:round;stroke-linejoin:round;stroke-opacity:1;display:inline" />
      <path
         sodipodi:nodetypes="cccccccc"
         inkscape:connector-curvature="0"
         id="path3928-1"
         d="m 453.82176,643.40766 -3.82315,8.67094 c -0.99887,1.95521 -1.48146,5.65444 1.65768,8.54343 l 10.48641,8.63747 3.53391,-3.63621 -4.64805,-3.94927 c -6.87767,-5.64117 -6.63985,-6.62775 -3.62774,-13.08338 l 2.19348,-5.09734"
         style="fill:#ffffff;fill-opacity:1;stroke:#000000;stroke-width:0.51005554px;stroke-linecap:butt;stroke-linejoin:round;stroke-opacity:1;display:inline" />
      <path
         sodipodi:nodetypes="csccc"
         inkscape:connector-curvature="0"
         id="path3040-4-9"
         d="m 469.12946,676.77334 c 0,0 -3.84924,4.14049 -1.88373,5.01082 0.64873,0.28725 8.29997,-4.13968 8.29997,-4.13968 l -1.78443,-3.10668 z"
         style="fill:#ffffff;fill-opacity:1;stroke:#000000;stroke-width:0.51005554px;stroke-linecap:round;stroke-linejoin:round;stroke-opacity:1;display:inline" />
      <path
         sodipodi:nodetypes="cccccccc"
         inkscape:connector-curvature="0"
         id="path3928-4-1"
         d="m 459.41971,643.38976 -0.63934,7.35646 c -0.15145,2.98443 0.64446,7.58298 2.2663,10.61725 l 8.07448,15.42245 4.64785,-2.23791 -6.07598,-11.71361 c -2.39191,-4.3686 -3.28805,-9.72265 -2.88051,-14.71956 l 0.45764,-4.60531"
         style="fill:#ffffff;fill-opacity:1;stroke:#000000;stroke-width:0.51005554px;stroke-linecap:butt;stroke-linejoin:round;stroke-opacity:1;display:inline" />
      <path
         sodipodi:nodetypes="cccc"
         inkscape:connector-curvature="0"
         id="path3925-0-8-4-7"
         d="m 459.54465,619.85531 c 4.44741,-1.04054 7.04586,17.30103 5.75515,23.65629 l -11.50577,-0.14674 -0.20487,-23.62159"
         style="fill:#ffffff;fill-opacity:1;stroke:#000000;stroke-width:0.51005554px;stroke-linecap:butt;stroke-linejoin:miter;stroke-opacity:1;display:inline" />
      <path
         sodipodi:nodetypes="ccccccc"
         inkscape:connector-curvature="0"
         id="path3893-5"
         d="m 451.75633,613.90603 0.0638,4.97304 c -0.0691,1.53016 1.31233,1.14762 2.47058,1.19544 l 5.79392,0.0319 c 2.12549,0.0754 1.74396,-1.26922 1.81684,-1.8913 l -1.56979,-5.98268 -7.3958,0.12751"
         style="fill:#ffffff;fill-opacity:1;stroke:#000000;stroke-width:0.51005554px;stroke-linecap:butt;stroke-linejoin:round;stroke-opacity:1;display:inline" />
      <path
         sodipodi:nodetypes="cccccccc"
         inkscape:connector-curvature="0"
         id="path3902-7"
         d="m 451.88842,613.76928 -0.0225,1.48774 4.80134,-0.0225 c 0.45083,-0.0451 0.90166,0.22542 1.01437,0.60862 l 0.0131,2.34968 1.55536,0.003 -0.10329,-5.35032 -7.32598,0.1578"
         style="fill:#000000;fill-opacity:1;stroke:#000000;stroke-width:0.51005554px;stroke-linecap:butt;stroke-linejoin:round;stroke-opacity:1;display:inline" />
      <path
         sodipodi:nodetypes="ccccccc"
         inkscape:connector-curvature="0"
         id="path3090-6"
         d="m 463.16883,612.00926 0.11157,6.20036 -4.76583,-0.0159 -0.0615,-2.6824 c 0.0997,-2.11325 -1.01097,-1.71308 -0.89483,-1.78061 l -7.26442,0.0187 c 0.63282,-8.28157 11.95989,-6.81236 12.87503,-1.7401 z"
         style="fill:#4296ff;fill-opacity:1;stroke:#000000;stroke-width:0.51005554px;stroke-linecap:butt;stroke-linejoin:round;stroke-opacity:1;display:inline" />
      <path
         transform="matrix(0.51005554,0,0,0.51005554,425.42472,355.77665)"
         d="m 71.5,507.29968 c 0,1.00102 -0.811484,1.8125 -1.8125,1.8125 -1.001016,0 -1.8125,-0.81148 -1.8125,-1.8125 0,-1.00101 0.811484,-1.8125 1.8125,-1.8125 1.001016,0 1.8125,0.81149 1.8125,1.8125 z"
         sodipodi:ry="1.8125"
         sodipodi:rx="1.8125"
         sodipodi:cy="507.29968"
         sodipodi:cx="69.6875"
         id="path3860-1"
         style="opacity:0.9792;fill:#000000;fill-opacity:1;stroke:#000000;stroke-width:0.30000001;stroke-linecap:butt;stroke-linejoin:round;stroke-miterlimit:4;stroke-opacity:1;stroke-dasharray:none;display:inline"
         sodipodi:type="arc" />
      <path
         sodipodi:nodetypes="cccccc"
         inkscape:connector-curvature="0"
         id="path3866-8"
         d="m 453.51739,608.57619 0.005,-3.1397 1.89677,-0.0159 0.0179,2.5267 c -0.92549,0.17082 -1.32557,0.39902 -1.91931,0.62891 z"
         style="fill:#4296ff;fill-opacity:1;stroke:#000000;stroke-width:0.51005554px;stroke-linecap:butt;stroke-linejoin:round;stroke-opacity:1;display:inline" />
      <path
         sodipodi:nodetypes="cccc"
         inkscape:connector-curvature="0"
         id="path3866-7-9"
         d="m 458.02513,609.98327 0,-4.53929 1.89677,-0.0159 0.0225,4.57182"
         style="fill:#4296ff;fill-opacity:1;stroke:#000000;stroke-width:0.51005554px;stroke-linecap:butt;stroke-linejoin:round;stroke-opacity:1;display:inline" />
      <path
         sodipodi:nodetypes="cccccccc"
         inkscape:connector-curvature="0"
         id="path3928-9-8-5-6-4"
         d="m 455.9703,628.74738 -0.19464,4.5312 c -0.11457,2.71338 -0.85003,2.74305 -4.03962,2.6571 l -7.93354,-0.0915 c -2.31597,0.24291 -2.03288,3.55734 0.009,3.64963 l 8.12475,0.0516 c 6.72694,0.18462 7.76989,-0.91371 8.12815,-5.18019 l 0.12417,-5.57801"
         style="fill:#ffffff;fill-opacity:1;stroke:#000000;stroke-width:0.56199092px;stroke-linecap:round;stroke-linejoin:round;stroke-opacity:1;display:inline" />
    </g>
    <path
       style="fill:#bf6530;fill-opacity:1;stroke:#000000;stroke-width:1px;stroke-linecap:butt;stroke-linejoin:miter;stroke-opacity:1"
       d="m 270.69644,219.28985 2.4141,27.93111 -2.47196,21.41637 3.37439,31.09465 -5.6777,49.5211 4.60661,56.43102 -2.3033,24.18472 0.0783,41.13118 c -14.98045,-4.56614 -39.63464,2.52491 -58.48308,0.38178 -17.37668,-3.73986 -48.43621,0.32296 -68.46225,1.29009 C 112.52385,474.84956 106.04462,468.75 76.309807,471 63.519686,473.81417 30.839518,467.00003 7.5,470.9127 c -1.3675885,15.96584 -1.3098924,30.78003 -0.3741738,44.15466 4.1987368,28.05821 -3.9828019,71.37582 0.7917616,92.81203 1.5835237,9.37847 1.1516538,30.27348 -1.5835231,46.84979 -1.2476249,16.89091 2.1113643,27.15982 2.3033063,40.01995 l 985.166359,0.2473 0.1532,72.30688 L 1.151654,766.15165 0.81434203,221.83388 z"
       id="path4662"
       inkscape:connector-curvature="0"
       sodipodi:nodetypes="ccccccccccccccccccccc" />
    <path
       style="fill:#bf6530;fill-opacity:1;stroke:#000000;stroke-width:1px;stroke-linecap:butt;stroke-linejoin:miter;stroke-opacity:1"
       d="m 992.68789,471 c -21.11365,4.94093 -41.83507,-5.85104 -64.88278,0.20957 -9.13404,3.40608 -27.12405,4.47092 -49.69473,0.34433 -13.8225,-1.21021 -46.75309,-4.85196 -66.58136,-0.0564 -19.56047,4.52845 -41.45671,1.77825 -63.24215,3.6017 -14.10194,1.32013 -16.38144,-6.66926 -28.28186,-4.74984 -18.80169,4.16152 -21.37193,-2.77538 -40.0863,2.11915 -13.5083,2.42007 -46.77635,5.28615 -65.97058,1.83119 -16.20166,-2.44303 -25.10422,-5.15492 -50.83544,-2.54323 -19.57811,1.82345 -67.41121,3.60246 -84.3981,2.54678 -29.36716,-2.49525 -30.98882,0.91948 -57.47685,-3.30325 -26.00818,-6.23812 -40.81917,3.63151 -67.69109,2 -11.22862,-0.76776 -23.97359,-5.25 -35.55056,-1.80738 l -0.71554,-44.20297 -4.60662,-35.70126 8.06158,-59.31015 -4.87407,-62.57455 6.67492,-37.95517 669.12862,0.4628 z"
       id="path4664"
       inkscape:connector-curvature="0"
       sodipodi:nodetypes="cccccccccccccccccccc" />
    <path
       style="fill:#4ea429;fill-opacity:1;stroke:#000000;stroke-width:1px;stroke-linecap:butt;stroke-linejoin:miter;stroke-opacity:1"
       d="m 272.5,245.45551 -4.36234,-5.29618 -20.72977,13.81985 -29.94299,-13.81985 -20.72976,11.51654 -28.79134,-11.51654 -23.03307,14.9715 L 118.4227,239.00768 89.631384,252.82753 64.295013,237.85603 41.261939,255.13083 19.380518,233.24941 0.33794774,253.97917 0.40251663,191.5 272.5,191.5 l -6.01041,26.80097 z"
       id="path4666"
       inkscape:connector-curvature="0"
       sodipodi:nodetypes="ccccccccccccccccc" />
    <path
       style="fill:#777777;fill-opacity:1;stroke:#000000;stroke-width:1px;stroke-linecap:butt;stroke-linejoin:miter;stroke-opacity:1"
       d="m 202.768,191.5 31.51619,0 6.79078,-2.06909 4.31591,-8.43306 4.9694,-13.74332 11.15659,-4.55095 11.51346,14.22922 -0.007,14.85145 0.34629,12.55336 -2.48939,14.14655 2.44585,29.00023 -1.82583,11.68495 -14.15,-1.62868 -10.38286,0.61075 -24.22667,-1.4251 -13.43665,1.83227 -5.73036,-1.01792 -2.03585,-1.4251 -0.47553,-11.59568 1.29224,-9.47435 -1.65816,-16.12029 2.69409,-13.14868 z"
       id="path6951"
       inkscape:connector-curvature="0"
       sodipodi:nodetypes="ccccccccccccccccccccccc" />
    <path
       style="fill:#b6b5b9;fill-opacity:1;stroke:#000000;stroke-width:0.82497299px;stroke-linecap:butt;stroke-linejoin:miter;stroke-opacity:1"
       d="m 679.36179,624.59557 -12.66783,6.48429 -11.69337,12.04225 0,13.89491 -1.9489,15.74756 12.66783,11.11593 18.51451,11.11592 26.3101,-7.41062 17.54006,-11.11592 -0.97444,-27.78981 -12.66783,-15.74757 -21.43785,-12.96858 z"
       id="path5784"
       inkscape:connector-curvature="0"
       sodipodi:nodetypes="ccccccccccccc" />
    <path
       style="fill:#777777;fill-opacity:1;stroke:#000000;stroke-width:1px;stroke-linecap:butt;stroke-linejoin:miter;stroke-opacity:1"
       d="m 626.49951,563.46063 27.63969,43.76284 0,34.5496 -33.39796,11.51654 -40.30787,-14.9715 -9.21323,-27.63968 12.66819,-20.72976 10.36488,-17.27481 z"
       id="path5786"
       inkscape:connector-curvature="0"
       sodipodi:nodetypes="ccccccccc" />
    <path
       style="fill:#b6b5b9;fill-opacity:1;stroke:#000000;stroke-width:1px;stroke-linecap:butt;stroke-linejoin:miter;stroke-opacity:1"
       d="m 560.85526,486.29986 -20.72976,19.57811 13.81984,24.18472 13.81984,27.63968 18.42646,11.51654 41.45953,-14.9715 11.51653,-38.00456 -24.18472,-25.33638 -26.48803,-1.15165 z"
       id="path5788"
       inkscape:connector-curvature="0"
       sodipodi:nodetypes="cccccccccc" />
    <path
       style="fill:#b6b5b9;fill-opacity:1;stroke:#000000;stroke-width:1px;stroke-linecap:butt;stroke-linejoin:miter;stroke-opacity:1"
       d="m 279.85181,482.8449 14.9715,-5.75827 19.57811,12.66819 1.15165,18.42645 -25.33638,8.06158 -28.79134,-2.30331 z"
       id="path5790"
       inkscape:connector-curvature="0"
       sodipodi:nodetypes="ccccccc" />
    <path
       style="fill:#b6b5b9;fill-opacity:1;stroke:#000000;stroke-width:1px;stroke-linecap:butt;stroke-linejoin:miter;stroke-opacity:1"
       d="m 324.76629,542.73087 -8.06158,20.72976 12.66819,8.06158 32.2463,0 6.90992,-9.21323 z"
       id="path5792"
       inkscape:connector-curvature="0"
       sodipodi:nodetypes="cccccc" />
    <path
       style="fill:#b6b5b9;fill-opacity:1;stroke:#000000;stroke-width:1px;stroke-linecap:butt;stroke-linejoin:miter;stroke-opacity:1"
       d="m 325.91795,588.79702 19.57811,-9.21323 3.45496,6.90992 -8.06158,19.57811 -23.03307,-4.60662 z"
       id="path5794"
       inkscape:connector-curvature="0"
       sodipodi:nodetypes="cccccc" />
    <path
       style="fill:#b6b5b9;fill-opacity:1;stroke:#000000;stroke-width:0.70521837px;stroke-linecap:butt;stroke-linejoin:miter;stroke-opacity:1"
       d="m 671.85929,560.10079 -12.74904,8.64932 -2.75692,20.18578 -1.17023,13.83202 7.54908,8.84787 5.42425,10.28943 24.2296,-6.81471 12.14044,4.18079 30.36067,-6.00731 7.49347,-33.333 -12.87508,-15.7892 -38.56964,-5.18674 z"
       id="path5796"
       inkscape:connector-curvature="0"
       sodipodi:nodetypes="ccccccccccccc" />
    <path
       style="fill:#777777;fill-opacity:1;stroke:#000000;stroke-width:1px;stroke-linecap:butt;stroke-linejoin:miter;stroke-opacity:1"
       d="m 223.34062,478.0409 14.50846,3.69463 2.7515,19.34956 -9.22361,16.11721 -5.99498,9.90036 -15.88792,-7.61115 6.45727,-12.4337 z"
       id="path5800"
       inkscape:connector-curvature="0"
       sodipodi:nodetypes="cccccccc" />
    <path
       style="fill:#777777;fill-opacity:1;stroke:#000000;stroke-width:1px;stroke-linecap:butt;stroke-linejoin:miter;stroke-opacity:1"
       d="m 351.17398,514.71105 -24.84523,1.85084 -3.30675,20.1047 26.98726,14.00441 14.23886,-2.3419 z"
       id="path5802"
       inkscape:connector-curvature="0"
       sodipodi:nodetypes="cccccc" />
    <g
       id="g5916"
       transform="matrix(-0.210542,0.0091379,-0.0091379,-0.210542,234.13908,740.29632)">
      <path
         sodipodi:nodetypes="ccccccccccccc"
         inkscape:connector-curvature="0"
         id="path3090"
         d="m 805.94563,303.65075 0.25254,62.19888 c -0.13709,3.53685 2.3795,3.94004 5,4 l 25,0 c 2.99383,0.0108 3.04464,-1.59821 3,-4 l -0.25254,-38.02031 c 0.0644,-2.68929 1.94677,-2.99458 4,-3 l 83,0 0,-33 -105,0 -11.21429,-10.53568 -12.5,12.14286 z"
         style="fill:#7c8384;fill-opacity:1;stroke:#000000;stroke-width:1px;stroke-linecap:round;stroke-linejoin:round;stroke-opacity:1;display:inline" />
      <path
         sodipodi:nodetypes="ccccc"
         inkscape:connector-curvature="0"
         id="path3103"
         d="m 926.15992,291.75694 1.7749,-1.16541 0.0108,33.23779 -1.90531,0.96842 z"
         style="fill:#7c8384;fill-opacity:1;stroke:#000000;stroke-width:1px;stroke-linecap:round;stroke-linejoin:round;stroke-opacity:1;display:inline" />
      <path
         sodipodi:nodetypes="ccccccc"
         inkscape:connector-curvature="0"
         id="path3873"
         d="m 927.85771,290.51574 -106.50242,-0.14013 -10.52497,-10.08857 -1.05582,0.99117 10.99931,10.59511 105.45184,-0.0674 z"
         style="fill:#737470;fill-opacity:1;stroke:#000000;stroke-width:1px;stroke-linecap:round;stroke-linejoin:round;stroke-opacity:1;display:inline" />
      <path
         sodipodi:nodetypes="ccccc"
         inkscape:connector-curvature="0"
         id="path3095"
         d="m 834.94563,291.82932 3,6 80,0 3,-6 z"
         style="fill:#abaeae;fill-opacity:1;stroke:#000000;stroke-width:1px;stroke-linecap:butt;stroke-linejoin:miter;stroke-opacity:1;display:inline" />
      <path
         sodipodi:nodetypes="ccccccc"
         inkscape:connector-curvature="0"
         id="path3097"
         d="m 800.9381,293.20284 7.93846,9.61854 -0.18174,5.21777 16.07328,-14.05318 -4.86519,-0.19993 -9.99938,-9.12813 z"
         style="fill:#abaeae;fill-opacity:1;stroke:#000000;stroke-width:0.83864379px;stroke-linecap:butt;stroke-linejoin:miter;stroke-opacity:1;display:inline" />
      <path
         sodipodi:nodetypes="cccccccc"
         inkscape:connector-curvature="0"
         id="path3099"
         d="m 809.15992,315.25553 0,48.51679 c 0.007,3.52904 2.9458,3.09184 6.22392,3.16414 l 13.69263,0 c 4.31544,0.0419 6.15882,-0.6082 6.22391,-3.16414 l 0,-44.29794 c 0.29545,-6.14172 -10.80505,-10.6274 -19.31638,-10.75431 -5.10584,-0.19215 -6.6669,2.81602 -6.82408,6.53546 z"
         style="fill:#b3711e;fill-opacity:1;stroke:#000000;stroke-width:1.14581418px;stroke-linecap:butt;stroke-linejoin:miter;stroke-opacity:1;display:inline" />
      <path
         sodipodi:nodetypes="ccccc"
         inkscape:connector-curvature="0"
         id="path3101"
         d="m 842.94563,324.82932 0,-5 75,0 0,5 z"
         style="fill:#abaeae;fill-opacity:1;stroke:#000000;stroke-width:1px;stroke-linecap:butt;stroke-linejoin:miter;stroke-opacity:1;display:inline" />
    </g>
    <path
       style="fill:#b6b5b9;fill-opacity:1;stroke:#000000;stroke-width:1px;stroke-linecap:butt;stroke-linejoin:miter;stroke-opacity:1"
       d="m 537.82219,570.94638 -17.2748,5.18245 -4.60662,7.48574 0,15.54733 11.51654,11.51653 9.21323,5.18244 10.9407,1.72748 16.12315,-2.30331 11.51654,-17.2748 -7.48575,-15.54732 -18.42646,-9.78906 z"
       id="path5925"
       inkscape:connector-curvature="0"
       sodipodi:nodetypes="cccccccccccc" />
    <path
       style="fill:#777777;fill-opacity:1;stroke:#000000;stroke-width:1px;stroke-linecap:butt;stroke-linejoin:miter;stroke-opacity:1"
       d="m 281.00346,469.02504 18.42645,4.60662 5.75827,-4.60662 4.60662,-10.9407 -2.30331,-10.36489 -4.03079,-10.9407 -14.39567,0 -8.06157,6.90992 0,13.81984 z"
       id="path5927"
       inkscape:connector-curvature="0"
       sodipodi:nodetypes="cccccccccc" />
    <path
       style="fill:#777777;fill-opacity:1;stroke:#000000;stroke-width:1px;stroke-linecap:butt;stroke-linejoin:miter;stroke-opacity:1"
       d="m 287.33755,525.45607 15.54732,-10.36488 11.51654,9.78905 6.33409,10.36488 -9.21323,12.09236 -16.69897,0 -11.51654,-12.09236 z"
       id="path5929"
       inkscape:connector-curvature="0"
       sodipodi:nodetypes="cccccccc" />
    <path
       style="fill:#b6b5b9;fill-opacity:1;stroke:#000000;stroke-width:1px;stroke-linecap:butt;stroke-linejoin:miter;stroke-opacity:1"
       d="m 263.15282,567.49142 3.45496,-8.06157 8.6374,-1.15165 5.75827,4.03078 1.72748,8.6374 -0.57583,6.90993 -3.45496,2.87913 -5.18244,0 -6.33409,-2.30331 -4.60662,-3.45496 z"
       id="path5931"
       inkscape:connector-curvature="0"
       sodipodi:nodetypes="ccccccccccc" />
    <path
       style="fill:#777777;fill-opacity:1;stroke:#000000;stroke-width:1px;stroke-linecap:butt;stroke-linejoin:miter;stroke-opacity:1"
       d="m 239.54393,593.97945 10.36488,-7.48575 13.24402,1.72748 3.45496,5.75827 -3.45496,12.09236 -6.3341,10.36489 -13.81984,-5.75827 -5.18244,-10.94071 z"
       id="path5933"
       inkscape:connector-curvature="0"
       sodipodi:nodetypes="ccccccccc" />
    <path
       style="fill:#b6b5b9;fill-opacity:1;stroke:#000000;stroke-width:1px;stroke-linecap:butt;stroke-linejoin:miter;stroke-opacity:1"
       d="m 254.86875,519.33171 17.39565,6.82212 -1.44039,15.04598 -4.87751,11.12481 -15.18884,-0.63869 -9.55331,-13.69634 3.32954,-16.36368 z"
       id="path5929-4"
       inkscape:connector-curvature="0"
       sodipodi:nodetypes="cccccccc" />
    <path
       style="fill:#777777;fill-opacity:1;stroke:#000000;stroke-width:1px;stroke-linecap:butt;stroke-linejoin:miter;stroke-opacity:1"
       d="m 529.76061,622.7708 22.45725,0.57583 19.00228,14.97149 12.09236,10.36488 0.57583,18.42646 -13.24402,19.00228 -21.88142,4.03079 -39.73204,-8.06158 0,-25.9122 10.36488,-20.72976 6.90992,-12.66819 z"
       id="path5953"
       inkscape:connector-curvature="0"
       sodipodi:nodetypes="cccccccccccc" />
    <path
       style="fill:#777777;fill-opacity:1;stroke:#000000;stroke-width:1px;stroke-linecap:butt;stroke-linejoin:miter;stroke-opacity:1"
       d="m 355.08454,614.77548 10.93798,11.73303 -4.43004,22.89455 -16.65969,7.95708 -16.94929,-20.48518 -8.6277,-27.56464 z"
       id="path5790-8"
       inkscape:connector-curvature="0"
       sodipodi:nodetypes="ccccccc" />
    <path
       style="fill:#777777;fill-opacity:1;stroke:#000000;stroke-width:1px;stroke-linecap:butt;stroke-linejoin:miter;stroke-opacity:1"
       d="m 269.37238,623.34504 10.32317,12.27745 -5.59594,22.63782 -17.04509,7.09404 -15.87868,-21.32578 6.61416,-22.2118 z"
       id="path5790-82"
       inkscape:connector-curvature="0"
       sodipodi:nodetypes="ccccccc" />
    <path
       style="fill:#b6b5b9;fill-opacity:1;stroke:#000000;stroke-width:1px;stroke-linecap:butt;stroke-linejoin:miter;stroke-opacity:1"
       d="m 347.26646,661.34342 17.03555,-7.67724 9.75686,11.54384 4.55011,11.26268 -11.07016,10.41925 -16.47325,-2.73628 -9.37944,-13.81601 z"
       id="path5929-4-4"
       inkscape:connector-curvature="0"
       sodipodi:nodetypes="cccccccc" />
    <path
       style="fill:#b6b5b9;fill-opacity:1;stroke:#000000;stroke-width:1px;stroke-linecap:butt;stroke-linejoin:miter;stroke-opacity:1"
       d="m 266.6078,668.83694 19.57811,-9.21323 3.45496,6.90992 -8.06158,19.57811 -23.03307,-4.60662 z"
       id="path5794-5"
       inkscape:connector-curvature="0"
       sodipodi:nodetypes="cccccc" />
    <path
       style="fill:#b6b5b9;fill-opacity:1;stroke:#000000;stroke-width:1px;stroke-linecap:butt;stroke-linejoin:miter;stroke-opacity:1"
       d="m 230.22185,652.41118 17.39565,6.82212 -1.44039,15.04598 -4.87751,11.12481 -15.18884,-0.63869 -9.55331,-13.69634 3.32954,-16.36368 z"
       id="path5929-4-2"
       inkscape:connector-curvature="0"
       sodipodi:nodetypes="cccccccc" />
    <path
       style="fill:#b6b5b9;fill-opacity:1;stroke:#000000;stroke-width:1px;stroke-linecap:butt;stroke-linejoin:miter;stroke-opacity:1"
       d="m 192.45568,675.85001 3.45496,-8.06157 8.6374,-1.15165 5.75827,4.03078 1.72748,8.6374 -0.57583,6.90993 -3.45496,2.87913 -5.18244,0 -6.33409,-2.30331 -4.60662,-3.45496 z"
       id="path5931-2"
       inkscape:connector-curvature="0"
       sodipodi:nodetypes="ccccccccccc" />
    <path
       style="fill:#b6b5b9;fill-opacity:1;stroke:#000000;stroke-width:1px;stroke-linecap:butt;stroke-linejoin:miter;stroke-opacity:1"
       d="m 216.16192,627.21953 10.36488,-7.48575 13.24402,1.72748 3.45496,5.75827 -3.45496,12.09236 -6.3341,10.36489 -13.81984,-5.75827 -5.18244,-10.94071 z"
       id="path5933-1"
       inkscape:connector-curvature="0"
       sodipodi:nodetypes="ccccccccc" />
    <path
       style="fill:#b6b5b9;fill-opacity:1;stroke:#000000;stroke-width:1px;stroke-linecap:butt;stroke-linejoin:miter;stroke-opacity:1"
       d="m 396.34762,654.85422 17.39565,6.82212 -1.44039,15.04598 -4.87751,11.12481 -15.18884,-0.63869 -9.55331,-13.69634 3.32954,-16.36368 z"
       id="path5929-4-6"
       inkscape:connector-curvature="0"
       sodipodi:nodetypes="cccccccc" />
    <path
       style="fill:#4ea429;fill-opacity:1;stroke:#000000;stroke-width:1px;stroke-linecap:butt;stroke-linejoin:miter;stroke-opacity:1"
       d="m 991.22889,191.5 -671.47889,0 -0.0434,55.37166 25.33637,9.21323 33.39795,-12.66819 28.79134,12.66819 35.70126,-11.51653 41.45953,16.12315 35.70126,-14.9715 28.79134,11.51654 44.91448,-12.66819 38.00457,10.36488 38.00457,-13.81984 48.36944,14.97149 41.45953,-13.81984 28.79134,14.9715 47.21779,-13.81985 31.09465,18.42646 55.27936,-17.2748 34.54959,23.03307 35.47371,-18.31867 z"
       id="path4664-5"
       inkscape:connector-curvature="0"
       sodipodi:nodetypes="cccccccccccccccccccccc" />
    <g
       id="g6703"
       transform="translate(849.47332,13.83938)">
      <path
         sodipodi:nodetypes="csccc"
         inkscape:connector-curvature="0"
         id="path3040-0-4-1"
         d="m 89.81498,169.36505 c 0,0 -3.82847,9.27874 -0.0515,9.30548 1.24661,0.009 10.90203,-12.85944 10.90203,-12.85944 l -4.9152,-3.49762 z"
         style="fill:#ffffff;fill-opacity:1;stroke:#000000;stroke-width:0.89621723px;stroke-linecap:round;stroke-linejoin:round;stroke-opacity:1;display:inline" />
      <path
         sodipodi:nodetypes="cccccccc"
         inkscape:connector-curvature="0"
         id="path3928-1-7"
         d="m 75.24371,123.75091 -6.71765,15.23569 c -1.75511,3.43549 -2.60307,9.9354 2.91271,15.01164 l 18.42564,15.17687 6.20942,-6.38917 -8.16707,-6.93926 C 75.82202,145.9346 76.2399,144.20108 81.53247,132.85791 l 3.85415,-8.95652"
         style="fill:#ffffff;fill-opacity:1;stroke:#000000;stroke-width:0.89621723px;stroke-linecap:butt;stroke-linejoin:round;stroke-opacity:1;display:inline" />
      <path
         sodipodi:nodetypes="csccc"
         inkscape:connector-curvature="0"
         id="path3040-4-9-1"
         d="m 102.14083,182.37766 c 0,0 -6.76349,7.27524 -3.3099,8.8045 1.13988,0.50472 14.58386,-7.27382 14.58386,-7.27382 l -3.13542,-5.45874 z"
         style="fill:#ffffff;fill-opacity:1;stroke:#000000;stroke-width:0.89621723px;stroke-linecap:round;stroke-linejoin:round;stroke-opacity:1;display:inline" />
      <path
         sodipodi:nodetypes="cccccccc"
         inkscape:connector-curvature="0"
         id="path3928-4-1-1"
         d="m 85.07985,123.71946 -1.12338,12.92602 c -0.26611,5.24393 1.13238,13.32403 3.98211,18.65554 l 14.18765,27.09874 8.16672,-3.93222 -10.67609,-20.58196 c -4.20282,-7.67605 -5.77742,-17.08364 -5.06133,-25.86369 l 0.80411,-8.09198"
         style="fill:#ffffff;fill-opacity:1;stroke:#000000;stroke-width:0.89621723px;stroke-linecap:butt;stroke-linejoin:round;stroke-opacity:1;display:inline" />
      <path
         sodipodi:nodetypes="cccc"
         inkscape:connector-curvature="0"
         id="path3925-0-8-4-7-5"
         d="m 85.29938,82.36714 c 4.96434,-1.21757 6.47629,31.01035 10.11236,41.5664 l -20.21676,-0.25783 0.45437,-40.89467"
         style="fill:#ffffff;fill-opacity:1;stroke:#000000;stroke-width:0.89621723px;stroke-linecap:butt;stroke-linejoin:miter;stroke-opacity:1;display:inline" />
      <path
         sodipodi:nodetypes="ccccc"
         inkscape:connector-curvature="0"
         id="path3893-5-2"
         d="m 71.61455,71.91368 c -0.36066,14.33725 1.76316,10.82382 14.63363,10.89462 3.73469,0.13248 3.06431,-2.23014 3.19237,-3.3232 L 86.68227,68.97295 73.68713,69.197"
         style="fill:#ffffff;fill-opacity:1;stroke:#000000;stroke-width:0.89621723px;stroke-linecap:butt;stroke-linejoin:round;stroke-opacity:1;display:inline" />
      <path
         sodipodi:nodetypes="cccccccc"
         inkscape:connector-curvature="0"
         id="path3902-7-7"
         d="m 71.84664,71.67339 -0.0395,2.61411 8.43642,-0.0395 c 0.79215,-0.0792 1.5843,0.39609 1.78235,1.06941 l 0.023,4.12861 2.73292,0.005 -0.18149,-9.40104 -12.87246,0.27727"
         style="fill:#000000;fill-opacity:1;stroke:#000000;stroke-width:0.89621723px;stroke-linecap:butt;stroke-linejoin:round;stroke-opacity:1;display:inline" />
      <path
         sodipodi:nodetypes="ccccccc"
         inkscape:connector-curvature="0"
         id="path3090-6-6"
         d="m 91.66742,68.58087 0.19604,10.89463 -8.37403,-0.0279 -0.10806,-4.71324 c 0.17518,-3.71319 -1.77637,-3.01005 -1.5723,-3.12871 l -12.76429,0.0329 C 70.1567,57.08703 90.05947,59.66857 91.66746,68.58103 z"
         style="fill:#db28f3;fill-opacity:1;stroke:#000000;stroke-width:0.89621723px;stroke-linecap:butt;stroke-linejoin:round;stroke-opacity:1;display:inline" />
      <path
         transform="matrix(0.89621721,0,0,0.89621721,25.34735,-381.64476)"
         d="m 71.5,507.29968 c 0,1.00102 -0.811484,1.8125 -1.8125,1.8125 -1.001016,0 -1.8125,-0.81148 -1.8125,-1.8125 0,-1.00101 0.811484,-1.8125 1.8125,-1.8125 1.001016,0 1.8125,0.81149 1.8125,1.8125 z"
         sodipodi:ry="1.8125"
         sodipodi:rx="1.8125"
         sodipodi:cy="507.29968"
         sodipodi:cx="69.6875"
         id="path3860-1-1"
         style="opacity:0.9792;fill:#000000;fill-opacity:1;stroke:#000000;stroke-width:0.30000001;stroke-linecap:butt;stroke-linejoin:round;stroke-miterlimit:4;stroke-opacity:1;stroke-dasharray:none;display:inline"
         sodipodi:type="arc" />
      <path
         sodipodi:nodetypes="cccccc"
         inkscape:connector-curvature="0"
         id="path3866-8-4"
         d="m 74.7089,62.54863 0.009,-5.51676 3.33281,-0.0279 0.0315,4.43966 c -1.62618,0.30015 -2.32916,0.70112 -3.37242,1.10506 z"
         style="fill:#db28f3;fill-opacity:1;stroke:#000000;stroke-width:0.89621723px;stroke-linecap:butt;stroke-linejoin:round;stroke-opacity:1;display:inline" />
      <path
         sodipodi:nodetypes="cccc"
         inkscape:connector-curvature="0"
         id="path3866-7-9-2"
         d="m 82.62944,65.02101 0,-7.97598 3.33281,-0.0279 0.0395,8.03314"
         style="fill:#db28f3;fill-opacity:1;stroke:#000000;stroke-width:0.89621723px;stroke-linecap:butt;stroke-linejoin:round;stroke-opacity:1;display:inline" />
      <path
         sodipodi:nodetypes="cccccccc"
         inkscape:connector-curvature="0"
         id="path3928-9-8-5-6-4-3"
         d="m 79.83324,95.95552 0.0652,7.351 c -0.20131,4.76768 -0.47566,5.63415 -6.08008,5.48313 l -15.36511,-0.16078 c -4.06938,0.42682 -3.57196,5.43625 0.0158,5.59842 l 14.27597,0.0907 c 11.81989,0.3244 12.02378,-1.60547 12.65328,-9.10209 l 0.21817,-9.80111"
         style="fill:#ffffff;fill-opacity:1;stroke:#000000;stroke-width:0.98747271px;stroke-linecap:round;stroke-linejoin:round;stroke-opacity:1;display:inline" />
      <path
         sodipodi:nodetypes="cc"
         inkscape:connector-curvature="0"
         id="path6601"
         d="m 76.26211,92.26569 c -3.79227,2.30614 -3.16705,8.13708 0,8.90485"
         style="fill:#ffffff;fill-opacity:1;stroke:#000000;stroke-width:1px;stroke-linecap:butt;stroke-linejoin:miter;stroke-opacity:1" />
    </g>
    <path
       style="fill:#777777;fill-opacity:1;stroke:#000000;stroke-width:1px;stroke-linecap:butt;stroke-linejoin:miter;stroke-opacity:1"
       d="m 322.82556,178.96499 1.78114,-9.61827 6.37733,-4.66852 10.86986,6.40347 4.5059,8.87835 6.47924,2.94156 4.71147,8.59842 28.54134,0 1.52289,8.61489 -1.44826,17.30053 -1.51963,13.33485 2.59894,15.50625 -1.29014,13.03139 -12.09236,-2.59122 -4.60662,1.72748 -12.38027,0.28792 L 339.0257,259 l -9.21323,1.15165 -4.21323,-2.26539 -7.73312,1.11374 -2.38401,-12.5368 0.92931,-15.63756 0.28788,-22.66802 -0.94955,-17.01117 z"
       id="path6953"
       inkscape:connector-curvature="0"
       sodipodi:nodetypes="ccccccccccccccccccccccccc" />
    <path
       style="fill:#777777;fill-opacity:1;stroke:#000000;stroke-width:1px;stroke-linecap:butt;stroke-linejoin:miter;stroke-opacity:1"
       d="m 255.79249,577.38184 -16.80652,13.62816 -5.00728,-5.8831 3.14533,-20.93797 23.46638,-1.03565 z"
       id="path5794-7"
       inkscape:connector-curvature="0"
       sodipodi:nodetypes="cccccc" />
    <path
       style="fill:#777777;fill-opacity:1;stroke:#000000;stroke-width:1px;stroke-linecap:butt;stroke-linejoin:miter;stroke-opacity:1"
       d="m 185.0772,634.77018 -13.81984,20.72977 13.81984,14.97149 27.63969,-12.66819 6.90992,-12.66818 z"
       id="path5802-6"
       inkscape:connector-curvature="0"
       sodipodi:nodetypes="cccccc" />
    <path
       style="fill:#b6b5b9;fill-opacity:1;stroke:#000000;stroke-width:1px;stroke-linecap:butt;stroke-linejoin:miter;stroke-opacity:1"
       d="m 173.87688,665.3821 15.33748,15.26263 -5.31751,5.60427 -21.15368,-0.90182 -3.52424,-23.22332 z"
       id="path5794-1"
       inkscape:connector-curvature="0"
       sodipodi:nodetypes="cccccc"
       inkscape:transform-center-x="5.7003941" />
    <path
       style="fill:#b6b5b9;fill-opacity:1;stroke:#000000;stroke-width:1px;stroke-linecap:butt;stroke-linejoin:miter;stroke-opacity:1"
       d="m 349.27962,486.99454 1.98187,18.58015 -14.01082,5.67038 -12.11998,0.81095 -6.44745,-13.76732 7.73698,-14.79847 16.05199,-4.60321 z"
       id="path5929-4-8"
       inkscape:connector-curvature="0"
       sodipodi:nodetypes="cccccccc"
       inkscape:transform-center-x="4.0717101" />
  </g>
</svg>
