<?xml version="1.0" encoding="UTF-8" standalone="no"?>
<!-- Created with Inkscape (http://www.inkscape.org/) -->

<svg
   xmlns:dc="http://purl.org/dc/elements/1.1/"
   xmlns:cc="http://creativecommons.org/ns#"
   xmlns:rdf="http://www.w3.org/1999/02/22-rdf-syntax-ns#"
   xmlns:svg="http://www.w3.org/2000/svg"
   xmlns="http://www.w3.org/2000/svg"
   xmlns:sodipodi="http://sodipodi.sourceforge.net/DTD/sodipodi-0.dtd"
   xmlns:inkscape="http://www.inkscape.org/namespaces/inkscape"
   width="64px"
   height="64px"
   id="svg6091"
   version="1.1"
   inkscape:version="0.48.3.1 r9886"
   sodipodi:docname="roundtangle.svg.2012_12_13_13_36_53.1.svg"
   inkscape:export-filename="C:\Users\Nate\Documents\Java\workspace\offworld-android\assets\textures\ui\camera.png"
   inkscape:export-xdpi="90.087975"
   inkscape:export-ydpi="90.087975">
  <defs
     id="defs6093" />
  <sodipodi:namedview
     id="base"
     pagecolor="#ffffff"
     bordercolor="#666666"
     borderopacity="1.0"
     inkscape:pageopacity="0.0"
     inkscape:pageshadow="2"
     inkscape:zoom="5.5"
     inkscape:cx="44.945658"
     inkscape:cy="29.748364"
     inkscape:current-layer="layer1"
     showgrid="true"
     inkscape:document-units="px"
     inkscape:grid-bbox="true"
     showguides="true"
     inkscape:guide-bbox="true"
     inkscape:window-width="1920"
     inkscape:window-height="1138"
     inkscape:window-x="-8"
     inkscape:window-y="-8"
     inkscape:window-maximized="1"
     inkscape:snap-nodes="true" />
  <metadata
     id="metadata6096">
    <rdf:RDF>
      <cc:Work
         rdf:about="">
        <dc:format>image/svg+xml</dc:format>
        <dc:type
           rdf:resource="http://purl.org/dc/dcmitype/StillImage" />
        <dc:title></dc:title>
      </cc:Work>
    </rdf:RDF>
  </metadata>
  <g
     id="layer1"
     inkscape:label="Layer 1"
     inkscape:groupmode="layer">
    <path
       style="fill:#ffffff;fill-opacity:1;stroke:#000000;stroke-width:2.01217198;stroke-linecap:butt;stroke-linejoin:miter;stroke-miterlimit:4;stroke-opacity:1;stroke-dasharray:none"
       d="M 16.625,1.0625 C 7.0179536,1.0625 1.1875,8.8788777 1.1875,16.5 l 0,30.875 c 0,9.756776 5.8304536,15.4375 15.4375,15.4375 l 30.96875,0 c 7.807182,0 15.34375,-5.674683 15.34375,-15.34375 l 0,-31.0625 C 62.9375,8.8728377 55.400932,1.0625 47.59375,1.0625 z m -7.7755682,11.045455 6.4062502,0 0,6.40625 -6.4062502,0 z m 8.3937162,8.408895 6.4375,0 0,6.4375 -6.4375,0 z m 8.441927,8.424966 6.4375,0 0,6.40625 -6.4375,0 z m -8.424074,8.408894 6.4375,0 0,6.40625 -6.4375,0 z m 16.881181,8.410678 22.09375,0 0,6.5625 -22.09375,0 z m -25.323109,0.0134 6.4375,0 0,6.4375 -6.4375,0 z"
       id="path6127"
       inkscape:connector-curvature="0"
       sodipodi:nodetypes="ssssssssscccccccccccccccccccccccccccccc" />
  </g>
</svg>
