<?xml version="1.0" encoding="UTF-8" standalone="no"?>
<!-- Created with Inkscape (http://www.inkscape.org/) -->

<svg
   xmlns:dc="http://purl.org/dc/elements/1.1/"
   xmlns:cc="http://creativecommons.org/ns#"
   xmlns:rdf="http://www.w3.org/1999/02/22-rdf-syntax-ns#"
   xmlns:svg="http://www.w3.org/2000/svg"
   xmlns="http://www.w3.org/2000/svg"
   xmlns:sodipodi="http://sodipodi.sourceforge.net/DTD/sodipodi-0.dtd"
   xmlns:inkscape="http://www.inkscape.org/namespaces/inkscape"
   width="64px"
   height="64px"
   id="svg6091"
   version="1.1"
   inkscape:version="0.48.4 r9939"
   sodipodi:docname="toolbox-2clasp.svg"
   inkscape:export-filename="C:\Users\nate2_000\Documents\offworld-raw\ui\bitmap.png"
   inkscape:export-xdpi="180"
   inkscape:export-ydpi="180">
  <defs
     id="defs6093" />
  <sodipodi:namedview
     id="base"
     pagecolor="#ffffff"
     bordercolor="#666666"
     borderopacity="1.0"
     inkscape:pageopacity="0.0"
     inkscape:pageshadow="2"
     inkscape:zoom="11"
     inkscape:cx="33.008704"
     inkscape:cy="32.919362"
     inkscape:current-layer="layer1"
     showgrid="false"
     inkscape:document-units="px"
     inkscape:grid-bbox="true"
     showguides="false"
     inkscape:guide-bbox="true"
     inkscape:window-width="1680"
     inkscape:window-height="987"
     inkscape:window-x="-8"
     inkscape:window-y="-8"
     inkscape:window-maximized="1"
     inkscape:snap-nodes="true">
    <sodipodi:guide
       orientation="1,0"
       position="32,64.545455"
       id="guide3871" />
    <inkscape:grid
       type="xygrid"
       id="grid3877" />
    <sodipodi:guide
       orientation="0,1"
       position="15.299219,33.234019"
       id="guide3917" />
  </sodipodi:namedview>
  <metadata
     id="metadata6096">
    <rdf:RDF>
      <cc:Work
         rdf:about="">
        <dc:format>image/svg+xml</dc:format>
        <dc:type
           rdf:resource="http://purl.org/dc/dcmitype/StillImage" />
        <dc:title></dc:title>
      </cc:Work>
    </rdf:RDF>
  </metadata>
  <g
     id="layer1"
     inkscape:label="Layer 1"
     inkscape:groupmode="layer">
    <path
       style="fill:#ffffff;fill-opacity:1;stroke:#000000;stroke-width:2;stroke-linecap:butt;stroke-linejoin:miter;stroke-miterlimit:4;stroke-opacity:1;stroke-dasharray:none"
       d="M 16.625,1.0625 C 7.0179536,1.0625 1.0625,8.8788777 1.0625,16.5 l 0,30.875 C 1.0625,57.131776 6.8929537,63 16.5,63 l 30.96875,0 C 55.275932,63 62.9375,57.200317 62.9375,47.53125 l 0,-31.0625 C 62.9375,8.9353381 55.400932,1.0625 47.59375,1.0625 z m 2.65625,14.71875 25.28125,0 c 3.18139,-0.131283 3.775995,1.113397 3.78125,3.0625 l 0,4.53125 3.09375,0 c 1.945123,1.16e-4 1.9375,-0.0176 1.9375,2.15625 l 0,5.21875 -19.40625,0 0,-1.9375 -3.84375,0 0,1.9375 -19.53125,0 0,-4.875 c 10e-7,-2.51709 -0.01722,-2.499878 2.5,-2.5 l 2.53125,0 0,-4.53125 c -0.0809,-1.779941 0.483109,-3.177146 3.65625,-3.0625 z m 1.65625,3.03125 c -1.767339,0.08 -1.690797,1.295763 -1.65625,2.21875 l 0.125,2.34375 25.15625,0 0,-2.34375 c 0.04281,-1.090003 0.174084,-2.382778 -2.28125,-2.1875 l -20.46875,0 c -0.334434,-0.03935 -0.622523,-0.04268 -0.875,-0.03125 z m -10.34375,15.241477 19.53125,0 0,2.8125 3.84375,0 0,-2.8125 19.40625,0.0625 0,11.40625 c 0,2.993538 -0.01315,3 -2.21875,3 l -38,0 c -2.561074,0 -2.5625,-0.0065 -2.5625,-3 z"
       id="path6127"
       inkscape:connector-curvature="0"
       sodipodi:nodetypes="ssssssssscccccsccccccsccccsccccccsccccccssssc" />
  </g>
</svg>
